{"_v":2,"glyphs":{"0":{"ha":496,"x_min":35,"x_max":461,"o":"m 247 -10 l 247 -10 q 177 -10 130 31 q 82 72 59 154 q 35 235 35 356 l 35 356 q 35 483 58 565 q 81 646 129 685 q 176 724 247 724 l 247 724 q 319 724 367 683 q 414 642 438 560 q 461 478 461 356 l 461 356 q 461 279 452 213 q 442 146 418 96 q 394 46 353 18 q 311 -10 247 -10 z m 247 134 l 247 134 q 263 134 273 148 q 282 161 287 188 q 292 215 294 257 q 295 299 295 356 l 295 356 q 295 415 294 458 q 292 500 287 527 q 282 554 273 567 q 263 580 247 580 l 247 580 q 233 580 224 566 q 215 552 210 525 q 205 497 203 455 q 201 413 201 356 l 201 356 q 201 298 203 256 q 204 213 209 187 q 214 160 223 147 q 232 134 247 134 z"},"1":{"ha":496,"x_min":34,"x_max":397,"o":"m 397 714 l 397 0 l 229 0 l 229 375 q 229 410 230 442 q 230 473 231 501 l 231 501 q 224 491 216 480 q 207 468 196 456 l 196 456 l 135 389 l 34 486 l 246 714 l 397 714 z"},"2":{"ha":496,"x_min":20,"x_max":458,"o":"m 458 0 l 20 0 l 20 116 l 180 323 q 217 371 238 404 q 259 436 268 462 q 277 488 277 515 l 277 515 q 277 537 269 550 q 261 562 248 568 q 234 573 218 573 l 218 573 q 186 573 157 561 q 128 548 96 526 l 96 526 l 24 649 q 56 670 89 687 q 122 704 158 714 q 194 724 233 724 l 233 724 q 295 724 343 700 q 391 676 419 633 q 446 589 446 530 l 446 530 q 446 484 434 443 q 421 402 390 354 q 358 305 301 235 l 301 235 l 232 150 l 232 147 l 458 147 l 458 0 z"},"3":{"ha":496,"x_min":30,"x_max":454,"o":"m 209 -10 l 209 -10 q 158 -10 112 -2 q 66 5 30 21 l 30 21 l 30 170 q 71 153 108 144 q 145 135 186 135 l 186 135 q 234 135 260 154 q 286 173 286 216 l 286 216 q 286 244 272 262 q 258 279 230 288 q 202 296 160 296 l 160 296 l 115 296 l 115 435 l 164 435 q 200 435 225 444 q 250 453 263 472 q 276 490 276 516 l 276 516 q 276 548 258 564 q 239 579 205 579 l 205 579 q 181 579 156 571 q 131 563 102 546 l 102 546 l 30 662 q 80 694 128 709 q 176 724 232 724 l 232 724 q 296 724 343 704 q 390 684 416 645 q 442 605 442 545 l 442 545 q 442 508 427 475 q 411 442 383 417 q 355 391 315 376 l 315 376 l 315 373 q 381 359 418 316 q 454 273 454 201 l 454 201 q 454 136 426 89 q 397 41 342 16 q 287 -10 209 -10 z"},"4":{"ha":496,"x_min":17,"x_max":481,"o":"m 414 0 l 249 0 l 249 138 l 17 138 l 17 272 l 253 714 l 414 714 l 414 275 l 481 275 l 481 138 l 414 138 l 414 0 z m 212 392 l 151 275 l 249 275 l 249 404 q 249 421 250 435 q 250 448 251 459 q 252 469 252 476 l 252 476 l 248 476 q 242 455 233 434 q 223 412 212 392 l 212 392 z"},"5":{"ha":496,"x_min":46,"x_max":454,"o":"m 206 -10 l 206 -10 q 165 -10 121 -1 q 76 7 46 20 l 46 20 l 46 170 q 76 154 108 145 q 140 135 186 135 l 186 135 q 220 135 242 146 q 264 157 275 179 q 286 200 286 233 l 286 233 q 286 277 263 302 q 240 327 193 327 l 193 327 q 172 327 151 324 q 129 320 108 312 l 108 312 l 53 359 l 76 714 l 416 714 l 416 566 l 217 566 l 210 462 q 225 464 238 465 q 250 466 265 466 l 265 466 q 324 466 366 438 q 408 410 431 360 q 454 310 454 242 l 454 242 q 454 160 427 104 q 400 48 345 19 q 290 -10 206 -10 z"},"6":{"ha":496,"x_min":31,"x_max":468,"o":"m 256 -10 l 256 -10 q 204 -10 163 12 q 121 33 92 74 q 62 115 47 176 q 31 236 31 314 l 31 314 q 31 375 39 434 q 47 493 67 546 q 87 598 121 638 q 155 678 207 701 q 258 724 330 724 l 330 724 q 356 724 382 722 q 407 720 432 716 l 432 716 l 432 570 q 412 575 391 577 q 369 579 346 579 l 346 579 q 294 579 259 560 q 223 541 205 501 q 187 460 185 393 l 185 393 l 189 393 q 201 421 218 439 q 235 457 258 467 q 280 476 306 476 l 306 476 q 357 476 394 449 q 430 421 449 369 q 468 317 468 244 l 468 244 q 468 167 443 110 q 417 52 370 21 q 323 -10 256 -10 z m 250 134 l 250 134 q 274 134 289 158 q 304 182 304 241 l 304 241 q 304 288 292 312 q 279 336 251 336 l 251 336 q 235 336 222 325 q 209 314 202 295 q 195 276 195 252 l 195 252 q 195 225 199 203 q 203 181 210 166 q 217 150 227 142 q 237 134 250 134 z"},"7":{"ha":496,"x_min":28,"x_max":463,"o":"m 263 0 l 85 0 l 292 566 l 28 566 l 28 714 l 463 714 l 463 599 l 263 0 z"},"8":{"ha":496,"x_min":28,"x_max":468,"o":"m 246 -10 l 246 -10 q 177 -10 128 13 q 79 36 54 80 q 28 124 28 188 l 28 188 q 28 226 39 259 q 49 291 74 319 q 98 347 138 373 l 138 373 q 107 399 87 427 q 66 454 56 485 q 46 516 46 551 l 46 551 q 46 606 71 645 q 95 683 141 704 q 186 724 248 724 l 248 724 q 312 724 357 704 q 402 683 426 645 q 450 606 450 550 l 450 550 q 450 512 439 481 q 428 449 406 423 q 384 397 350 376 l 350 376 q 393 347 419 318 q 444 288 456 257 q 468 225 468 190 l 468 190 q 468 126 442 82 q 415 37 365 14 q 315 -10 246 -10 z m 247 123 l 247 123 q 277 123 292 139 q 306 155 306 187 l 306 187 q 306 203 302 218 q 298 233 288 249 q 277 265 255 283 l 255 283 l 245 291 q 225 275 213 259 q 200 243 195 227 q 189 210 189 191 l 189 191 q 189 159 204 141 q 218 123 247 123 z m 246 459 l 246 459 q 262 472 272 485 q 281 497 286 511 q 290 525 290 541 l 290 541 q 290 565 279 578 q 268 591 249 591 l 249 591 q 229 591 218 578 q 206 564 206 542 l 206 542 q 206 525 211 511 q 216 496 225 484 q 234 471 246 459 z"},"9":{"ha":496,"x_min":28,"x_max":465,"o":"m 165 -10 l 165 -10 q 139 -10 114 -7 q 88 -5 63 -1 l 63 -1 l 63 145 q 83 140 105 138 q 127 135 149 135 l 149 135 q 188 135 218 146 q 247 156 267 178 q 287 200 299 236 q 310 271 311 321 l 311 321 l 306 321 q 295 294 278 276 q 260 257 238 248 q 215 238 189 238 l 189 238 q 138 238 102 266 q 66 294 47 346 q 28 398 28 470 l 28 470 q 28 548 53 605 q 78 662 125 693 q 172 724 238 724 l 238 724 q 290 724 332 703 q 374 682 404 641 q 433 599 449 540 q 465 481 465 404 l 465 404 q 465 339 456 278 q 446 216 425 164 q 404 112 369 73 q 334 34 284 12 q 233 -10 165 -10 z m 244 378 l 244 378 q 266 378 278 393 q 290 407 296 427 q 301 446 301 462 l 301 462 q 301 474 300 494 q 298 513 293 533 q 287 553 276 567 q 264 580 245 580 l 245 580 q 223 580 208 556 q 192 532 192 473 l 192 473 q 192 423 206 401 q 220 378 244 378 z"},"\r":{"ha":221,"x_min":0,"x_max":0,"o":""}," ":{"ha":221,"x_min":0,"x_max":0,"o":""},"ഀ":{"ha":0,"x_min":-430,"x_max":-127,"o":"m -430 708 l -430 708 q -430 776 -392 820 q -354 864 -279 864 l -279 864 q -204 864 -165 820 q -127 776 -127 708 l -127 708 q -127 640 -164 596 q -202 552 -279 552 l -279 552 q -355 552 -392 596 q -430 639 -430 708 z m -321 708 l -321 708 q -321 681 -311 664 q -302 647 -279 647 l -279 647 q -256 647 -246 664 q -236 681 -236 708 l -236 708 q -236 735 -246 752 q -256 769 -279 769 l -279 769 q -302 769 -311 752 q -321 735 -321 708 z"},"ഁ":{"ha":0,"x_min":-457,"x_max":-100,"o":"m -278 631 l -278 631 q -370 631 -413 677 q -457 723 -457 799 l -457 799 q -457 817 -454 835 q -452 852 -449 864 l -449 864 l -354 853 q -356 843 -357 832 q -359 820 -359 810 l -359 810 q -359 778 -349 759 q -340 740 -321 732 q -303 723 -278 723 l -278 723 q -257 723 -238 731 q -220 739 -209 759 q -198 778 -198 812 l -198 812 q -198 817 -199 830 q -200 843 -202 853 l -202 853 l -108 863 q -105 851 -102 835 q -100 819 -100 800 l -100 800 q -100 720 -142 676 q -185 631 -278 631 z m -279 748 l -279 748 q -305 748 -318 764 q -332 780 -332 806 l -332 806 q -332 830 -319 847 q -306 863 -279 863 l -279 863 q -250 863 -237 847 q -225 830 -225 805 l -225 805 q -225 780 -239 764 q -253 748 -279 748 z"},"ം":{"ha":439,"x_min":28,"x_max":411,"o":"m 220 -12 l 220 -12 q 155 -12 112 13 q 69 38 49 83 q 28 127 28 185 l 28 185 q 28 245 50 289 q 71 333 114 358 q 156 382 218 382 l 218 382 q 284 382 327 358 q 369 333 390 289 q 411 245 411 185 l 411 185 q 411 127 391 83 q 371 38 329 13 q 286 -12 220 -12 z m 219 263 l 219 263 q 200 263 187 247 q 174 230 174 184 l 174 184 q 174 141 186 124 q 198 107 220 107 l 220 107 q 239 107 252 123 q 265 139 265 185 l 265 185 q 265 230 253 247 q 240 263 219 263 z"},"ഃ":{"ha":321,"x_min":25,"x_max":296,"o":"m 25 439 l 25 439 q 25 501 59 541 q 93 581 160 581 l 160 581 q 227 581 262 541 q 296 501 296 439 l 296 439 q 296 377 262 337 q 228 297 160 297 l 160 297 q 92 297 59 337 q 25 376 25 439 z m 128 439 l 128 439 q 128 414 136 402 q 144 389 160 389 l 160 389 q 177 389 185 402 q 193 414 193 439 l 193 439 q 193 464 185 477 q 177 489 160 489 l 160 489 q 144 489 136 477 q 128 464 128 439 z m 25 130 l 25 130 q 25 192 59 232 q 93 272 160 272 l 160 272 q 225 272 261 232 q 296 192 296 130 l 296 130 q 296 68 262 28 q 228 -12 160 -12 l 160 -12 q 92 -12 59 28 q 25 67 25 130 z m 128 130 l 128 130 q 128 105 136 93 q 144 80 160 80 l 160 80 q 177 80 185 93 q 193 105 193 130 l 193 130 q 193 155 185 168 q 177 180 160 180 l 160 180 q 144 180 136 168 q 128 155 128 130 z"},"ഄ":{"ha":575,"x_min":32,"x_max":543,"o":"m 51 352 l 51 352 l 197 325 q 190 303 187 279 q 184 255 184 235 l 184 235 q 184 171 210 142 q 236 113 287 113 l 287 113 q 339 113 365 142 q 391 170 391 234 l 391 234 q 391 253 388 278 q 385 303 378 325 l 378 325 l 524 352 q 532 329 538 296 q 543 263 543 231 l 543 231 q 543 158 520 104 q 496 50 440 21 q 384 -9 287 -9 l 287 -9 q 191 -9 135 21 q 79 50 56 104 q 32 158 32 231 l 32 231 q 32 264 38 297 q 44 329 51 352 z m 228 195 l 228 427 l 347 427 l 347 195 l 228 195 z"},"അ":{"ha":1349,"x_min":32,"x_max":1319,"o":"m 333 581 l 333 581 q 374 581 416 575 q 458 568 494 550 l 494 550 q 508 546 515 536 q 521 525 534 520 l 534 520 q 563 508 594 490 q 625 472 647 443 q 668 414 668 369 l 668 369 q 668 342 660 321 q 651 299 633 283 q 614 267 584 256 l 584 256 l 582 271 q 628 258 655 222 q 681 186 681 138 l 681 138 q 681 99 663 65 q 645 30 603 9 q 561 -12 488 -12 l 488 -12 q 403 -12 354 20 q 304 52 283 109 q 261 165 261 239 l 261 239 q 261 302 278 352 q 295 402 326 441 q 356 479 395 506 l 395 506 q 406 513 412 523 q 418 533 429 539 l 429 539 q 467 559 510 570 q 553 581 600 581 l 600 581 q 655 581 696 570 q 736 558 767 536 q 798 513 823 480 l 823 480 l 884 229 l 884 0 l 726 0 l 726 294 q 726 352 717 387 q 707 421 684 441 l 684 441 q 670 453 648 460 q 625 467 596 467 l 596 467 q 581 467 565 464 q 549 461 534 456 l 534 456 q 512 449 490 432 q 468 415 451 388 q 433 360 423 323 q 412 286 412 239 l 412 239 q 412 163 430 135 q 447 107 478 107 l 478 107 q 501 107 513 118 q 525 129 525 151 l 525 151 q 525 172 513 186 q 501 200 469 200 l 469 200 l 456 200 l 456 319 l 465 319 q 492 319 505 333 q 517 346 517 369 l 517 369 q 517 399 496 421 q 474 443 437 449 l 437 449 q 416 461 394 464 q 371 466 352 466 l 352 466 q 295 466 260 444 q 225 421 209 382 q 193 343 193 291 l 193 291 q 193 248 203 208 q 212 168 229 130 q 245 91 266 53 l 266 53 l 139 -12 q 109 27 85 73 q 60 119 46 175 q 32 231 32 299 l 32 299 q 32 343 45 392 q 58 441 91 484 q 124 527 183 554 q 242 581 333 581 z m 1117 -12 l 1117 -12 q 1050 -12 1009 17 q 968 45 950 94 q 931 143 931 203 l 931 203 q 931 304 973 356 q 1014 407 1090 407 l 1090 407 q 1135 407 1167 380 q 1199 352 1220 310 q 1240 267 1248 222 l 1248 222 l 1187 216 q 1183 241 1176 259 q 1168 277 1157 288 q 1145 298 1128 298 l 1128 298 q 1107 298 1096 278 q 1084 257 1084 201 l 1084 201 q 1084 166 1089 146 q 1094 125 1103 117 q 1111 108 1121 108 l 1121 108 q 1136 108 1146 118 q 1155 127 1160 154 q 1164 181 1164 231 l 1164 231 q 1164 254 1163 272 q 1162 290 1160 305 l 1160 305 q 1160 309 1160 319 q 1159 328 1158 332 l 1158 332 q 1154 364 1134 393 q 1114 421 1082 439 q 1050 457 1008 457 l 1008 457 q 981 457 962 452 q 942 447 927 436 l 927 436 q 911 424 902 407 q 892 389 888 362 q 884 334 884 293 l 884 293 l 884 161 l 755 440 q 787 490 823 521 q 858 552 903 567 q 948 581 1006 581 l 1006 581 q 1087 581 1146 554 q 1205 526 1244 479 q 1282 431 1301 369 q 1319 307 1319 237 l 1319 237 q 1319 151 1297 96 q 1274 40 1230 14 q 1185 -12 1117 -12 z"},"ആ":{"ha":1486,"x_min":32,"x_max":1468,"o":"m 333 581 l 333 581 q 374 581 416 575 q 458 568 494 550 l 494 550 q 508 546 515 536 q 521 525 534 520 l 534 520 q 563 508 594 490 q 625 472 647 443 q 668 414 668 369 l 668 369 q 668 342 660 321 q 651 299 633 283 q 614 267 584 256 l 584 256 l 582 271 q 628 258 655 222 q 681 186 681 138 l 681 138 q 681 99 663 65 q 645 30 603 9 q 561 -12 488 -12 l 488 -12 q 403 -12 354 20 q 304 52 283 109 q 261 165 261 239 l 261 239 q 261 302 278 352 q 295 402 326 441 q 356 479 395 506 l 395 506 q 406 513 412 523 q 418 533 429 539 l 429 539 q 467 559 510 570 q 553 581 600 581 l 600 581 q 655 581 696 570 q 736 558 767 536 q 798 513 823 480 l 823 480 l 884 229 l 884 0 l 726 0 l 726 294 q 726 352 717 387 q 707 421 684 441 l 684 441 q 670 453 648 460 q 625 467 596 467 l 596 467 q 581 467 565 464 q 549 461 534 456 l 534 456 q 512 449 490 432 q 468 415 451 388 q 433 360 423 323 q 412 286 412 239 l 412 239 q 412 163 430 135 q 447 107 478 107 l 478 107 q 501 107 513 118 q 525 129 525 151 l 525 151 q 525 172 513 186 q 501 200 469 200 l 469 200 l 456 200 l 456 319 l 465 319 q 492 319 505 333 q 517 346 517 369 l 517 369 q 517 399 496 421 q 474 443 437 449 l 437 449 q 416 461 394 464 q 371 466 352 466 l 352 466 q 295 466 260 444 q 225 421 209 382 q 193 343 193 291 l 193 291 q 193 248 203 208 q 212 168 229 130 q 245 91 266 53 l 266 53 l 139 -12 q 109 27 85 73 q 60 119 46 175 q 32 231 32 299 l 32 299 q 32 343 45 392 q 58 441 91 484 q 124 527 183 554 q 242 581 333 581 z m 1000 581 l 1000 581 q 1090 581 1150 549 q 1210 516 1245 461 q 1279 405 1293 335 l 1293 335 q 1296 311 1297 286 q 1298 261 1298 236 l 1298 236 q 1298 155 1278 100 q 1258 44 1216 16 q 1174 -12 1107 -12 l 1107 -12 q 1046 -12 1005 13 q 964 38 944 83 q 923 128 923 189 l 923 189 q 923 296 991 353 q 1058 409 1176 409 l 1176 409 q 1187 409 1197 409 q 1206 408 1214 407 l 1214 407 l 1246 406 q 1309 393 1359 355 q 1409 317 1439 254 q 1468 191 1468 101 l 1468 101 q 1468 44 1456 -10 q 1443 -64 1412 -107 q 1380 -150 1324 -175 q 1267 -201 1180 -201 l 1180 -201 q 1146 -201 1117 -195 q 1088 -190 1057 -180 l 1057 -180 l 1098 -63 q 1121 -70 1141 -73 q 1161 -76 1180 -76 l 1180 -76 q 1226 -76 1254 -58 q 1282 -41 1296 -13 q 1310 15 1315 47 q 1319 78 1319 105 l 1319 105 q 1319 151 1314 186 q 1309 220 1295 245 q 1281 269 1254 284 l 1254 284 l 1205 292 q 1197 294 1188 295 q 1178 295 1168 295 l 1168 295 q 1132 295 1112 280 q 1092 265 1084 241 q 1076 217 1076 188 l 1076 188 q 1076 160 1081 144 q 1085 127 1093 120 q 1101 112 1112 112 l 1112 112 q 1131 112 1142 135 q 1152 158 1152 231 l 1152 231 q 1152 263 1149 289 q 1146 315 1140 337 l 1140 337 l 1129 371 q 1116 400 1097 419 q 1077 438 1054 448 q 1030 457 1003 457 l 1003 457 q 980 457 961 452 q 942 447 927 436 l 927 436 q 911 424 902 407 q 892 389 888 362 q 884 334 884 293 l 884 293 l 884 212 l 755 440 q 787 490 823 521 q 858 552 902 567 q 945 581 1000 581 z"},"ഇ":{"ha":872,"x_min":29,"x_max":840,"o":"m 294 581 l 294 581 q 353 581 393 568 q 432 555 459 534 q 485 513 506 488 l 506 488 l 456 500 q 491 542 532 562 q 573 581 628 581 l 628 581 q 684 581 724 561 q 764 540 790 504 q 815 467 828 420 q 840 372 840 318 l 840 318 q 840 226 820 165 q 800 103 749 62 l 749 62 q 723 41 688 28 q 652 14 602 7 q 551 0 477 0 l 477 0 l 284 0 q 250 0 235 -2 q 219 -4 210 -9 l 210 -9 q 200 -14 195 -21 q 190 -29 190 -40 l 190 -40 q 190 -50 195 -58 q 199 -66 207 -71 l 207 -71 q 216 -77 233 -80 q 249 -83 284 -83 l 284 -83 l 825 -83 l 825 -206 l 294 -206 q 218 -206 178 -199 q 138 -192 109 -177 l 109 -177 q 74 -159 53 -126 q 31 -94 31 -45 l 31 -45 q 31 -2 47 29 q 63 60 91 80 l 91 80 q 114 96 141 105 q 167 114 204 118 q 241 122 296 122 l 296 122 l 461 122 q 507 122 539 126 q 571 129 594 137 q 616 145 631 158 l 631 158 q 659 181 670 220 q 680 259 680 317 l 680 317 q 680 358 672 390 q 664 422 649 440 q 633 458 609 458 l 609 458 q 599 458 593 456 q 586 453 581 449 l 581 449 q 569 439 564 417 q 559 395 559 349 l 559 349 l 559 154 l 403 154 l 403 306 q 403 359 396 389 q 389 419 371 436 l 371 436 q 359 447 342 454 q 324 461 295 461 l 295 461 q 273 461 254 457 q 235 453 219 446 q 202 438 189 427 q 176 415 167 400 l 167 400 q 164 388 163 377 q 162 365 161 354 l 161 354 q 160 345 159 331 q 158 317 158 303 l 158 303 q 158 269 167 255 q 175 241 189 241 l 189 241 q 204 241 212 254 q 219 266 219 288 l 219 288 q 219 304 215 314 q 211 324 204 329 q 196 333 187 333 l 187 333 q 175 333 163 327 q 151 320 134 303 l 134 303 l 87 350 q 107 372 129 389 q 150 406 176 416 q 201 426 231 426 l 231 426 q 274 426 303 409 q 331 392 346 361 q 361 329 361 284 l 361 284 q 361 245 347 210 q 333 175 298 153 q 262 131 199 131 l 199 131 q 148 131 110 152 q 71 173 50 217 q 29 260 29 328 l 29 328 q 29 400 59 457 q 89 514 148 548 q 207 581 294 581 z"},"ഈ":{"ha":1553,"x_min":29,"x_max":1521,"o":"m 294 581 l 294 581 q 353 581 393 568 q 432 555 459 534 q 485 513 506 488 l 506 488 l 456 500 q 491 542 532 562 q 573 581 628 581 l 628 581 q 684 581 724 561 q 764 540 790 504 q 815 467 828 420 q 840 372 840 318 l 840 318 q 840 226 820 165 q 800 103 749 62 l 749 62 q 723 41 688 28 q 652 14 602 7 q 551 0 477 0 l 477 0 l 284 0 q 250 0 235 -2 q 219 -4 210 -9 l 210 -9 q 200 -14 195 -21 q 190 -29 190 -40 l 190 -40 q 190 -50 195 -58 q 199 -66 207 -71 l 207 -71 q 216 -77 233 -80 q 249 -83 284 -83 l 284 -83 l 825 -83 l 825 -206 l 294 -206 q 218 -206 178 -199 q 138 -192 109 -177 l 109 -177 q 74 -159 53 -126 q 31 -94 31 -45 l 31 -45 q 31 -2 47 29 q 63 60 91 80 l 91 80 q 114 96 141 105 q 167 114 204 118 q 241 122 296 122 l 296 122 l 461 122 q 507 122 539 126 q 571 129 594 137 q 616 145 631 158 l 631 158 q 659 181 670 220 q 680 259 680 317 l 680 317 q 680 358 672 390 q 664 422 649 440 q 633 458 609 458 l 609 458 q 599 458 593 456 q 586 453 581 449 l 581 449 q 569 439 564 417 q 559 395 559 349 l 559 349 l 559 154 l 403 154 l 403 306 q 403 359 396 389 q 389 419 371 436 l 371 436 q 359 447 342 454 q 324 461 295 461 l 295 461 q 273 461 254 457 q 235 453 219 446 q 202 438 189 427 q 176 415 167 400 l 167 400 q 164 388 163 377 q 162 365 161 354 l 161 354 q 160 345 159 331 q 158 317 158 303 l 158 303 q 158 269 167 255 q 175 241 189 241 l 189 241 q 204 241 212 254 q 219 266 219 288 l 219 288 q 219 304 215 314 q 211 324 204 329 q 196 333 187 333 l 187 333 q 175 333 163 327 q 151 320 134 303 l 134 303 l 87 350 q 107 372 129 389 q 150 406 176 416 q 201 426 231 426 l 231 426 q 274 426 303 409 q 331 392 346 361 q 361 329 361 284 l 361 284 q 361 245 347 210 q 333 175 298 153 q 262 131 199 131 l 199 131 q 148 131 110 152 q 71 173 50 217 q 29 260 29 328 l 29 328 q 29 400 59 457 q 89 514 148 548 q 207 581 294 581 z m 1324 581 l 1324 581 q 1386 581 1430 549 q 1474 517 1498 457 q 1521 397 1521 313 l 1521 313 q 1521 208 1494 136 q 1466 63 1407 26 q 1348 -12 1253 -12 l 1253 -12 q 1189 -12 1145 -1 q 1101 9 1053 30 l 1053 30 l 1114 140 q 1142 127 1173 120 q 1204 112 1235 112 l 1235 112 q 1282 112 1310 134 q 1337 155 1349 200 q 1361 244 1361 313 l 1361 313 q 1361 394 1346 427 q 1331 459 1311 459 l 1311 459 q 1305 459 1301 457 q 1296 455 1292 450 l 1292 450 q 1286 442 1284 429 q 1282 416 1282 386 l 1282 386 l 1282 272 l 1126 272 l 1126 368 q 1126 399 1124 417 q 1122 435 1116 445 l 1116 445 q 1112 452 1106 456 q 1100 459 1092 459 l 1092 459 q 1078 459 1067 441 q 1055 423 1055 382 l 1055 382 q 1055 357 1059 333 q 1062 308 1067 288 l 1067 288 l 916 257 q 908 286 903 321 q 897 355 897 390 l 897 390 q 897 439 916 483 q 934 526 974 554 q 1014 581 1079 581 l 1079 581 q 1127 581 1159 565 q 1190 549 1217 515 l 1217 515 l 1187 514 q 1214 549 1245 565 q 1275 581 1324 581 z"},"ഉ":{"ha":629,"x_min":29,"x_max":597,"o":"m 314 581 l 314 581 q 386 581 439 560 q 492 538 528 500 q 563 461 580 411 q 597 360 597 301 l 597 301 q 597 221 577 163 q 557 104 513 66 l 513 66 q 485 42 449 28 q 412 13 367 7 q 322 0 268 0 l 268 0 l 257 0 q 243 0 231 -1 q 219 -3 210 -8 l 210 -8 q 200 -13 195 -21 q 190 -29 190 -40 l 190 -40 q 190 -50 195 -58 q 199 -66 207 -71 l 207 -71 q 216 -77 233 -80 q 249 -83 284 -83 l 284 -83 l 581 -83 l 581 -206 l 294 -206 q 218 -206 178 -199 q 138 -192 109 -177 l 109 -177 q 74 -159 53 -126 q 31 -94 31 -45 l 31 -45 q 31 -1 47 31 q 63 62 91 82 l 91 82 q 126 106 167 114 q 208 121 255 122 l 255 122 l 259 122 q 297 122 323 127 q 349 132 367 142 q 384 151 397 164 l 397 164 q 421 190 429 225 q 436 260 436 294 l 436 294 q 436 336 427 367 q 417 397 400 418 q 382 438 357 448 q 332 458 302 458 l 302 458 q 278 458 257 454 q 236 450 219 442 q 202 434 189 424 q 176 413 166 400 l 166 400 q 163 388 163 377 q 162 365 161 354 l 161 354 q 160 345 159 331 q 158 317 158 303 l 158 303 q 158 269 167 255 q 175 241 189 241 l 189 241 q 204 241 212 254 q 219 266 219 288 l 219 288 q 219 304 215 314 q 211 324 204 329 q 196 333 187 333 l 187 333 q 175 333 161 327 q 147 320 130 303 l 130 303 l 87 350 q 107 372 129 389 q 150 406 176 416 q 201 426 231 426 l 231 426 q 274 426 303 409 q 331 392 346 361 q 361 329 361 284 l 361 284 q 361 245 347 210 q 333 175 298 153 q 262 131 199 131 l 199 131 q 148 131 110 152 q 71 172 50 215 q 29 258 29 323 l 29 323 q 29 377 47 424 q 65 471 101 507 q 137 542 191 562 q 244 581 314 581 z"},"ഊ":{"ha":1310,"x_min":29,"x_max":1278,"o":"m 314 581 l 314 581 q 386 581 439 560 q 492 538 528 500 q 563 461 580 411 q 597 360 597 301 l 597 301 q 597 221 577 163 q 557 104 513 66 l 513 66 q 485 42 449 28 q 412 13 367 7 q 322 0 268 0 l 268 0 l 257 0 q 243 0 231 -1 q 219 -3 210 -8 l 210 -8 q 200 -13 195 -21 q 190 -29 190 -40 l 190 -40 q 190 -50 195 -58 q 199 -66 207 -71 l 207 -71 q 216 -77 233 -80 q 249 -83 284 -83 l 284 -83 l 581 -83 l 581 -206 l 294 -206 q 218 -206 178 -199 q 138 -192 109 -177 l 109 -177 q 74 -159 53 -126 q 31 -94 31 -45 l 31 -45 q 31 -1 47 31 q 63 62 91 82 l 91 82 q 126 106 167 114 q 208 121 255 122 l 255 122 l 259 122 q 297 122 323 127 q 349 132 367 142 q 384 151 397 164 l 397 164 q 421 190 429 225 q 436 260 436 294 l 436 294 q 436 336 427 367 q 417 397 400 418 q 382 438 357 448 q 332 458 302 458 l 302 458 q 278 458 257 454 q 236 450 219 442 q 202 434 189 424 q 176 413 166 400 l 166 400 q 163 388 163 377 q 162 365 161 354 l 161 354 q 160 345 159 331 q 158 317 158 303 l 158 303 q 158 269 167 255 q 175 241 189 241 l 189 241 q 204 241 212 254 q 219 266 219 288 l 219 288 q 219 304 215 314 q 211 324 204 329 q 196 333 187 333 l 187 333 q 175 333 161 327 q 147 320 130 303 l 130 303 l 87 350 q 107 372 129 389 q 150 406 176 416 q 201 426 231 426 l 231 426 q 274 426 303 409 q 331 392 346 361 q 361 329 361 284 l 361 284 q 361 245 347 210 q 333 175 298 153 q 262 131 199 131 l 199 131 q 148 131 110 152 q 71 172 50 215 q 29 258 29 323 l 29 323 q 29 377 47 424 q 65 471 101 507 q 137 542 191 562 q 244 581 314 581 z m 1081 581 l 1081 581 q 1143 581 1187 549 q 1231 517 1255 457 q 1278 397 1278 313 l 1278 313 q 1278 208 1251 136 q 1223 63 1164 26 q 1105 -12 1010 -12 l 1010 -12 q 946 -12 902 -1 q 858 9 810 30 l 810 30 l 871 140 q 899 127 930 120 q 961 112 992 112 l 992 112 q 1039 112 1067 134 q 1094 155 1106 200 q 1118 244 1118 313 l 1118 313 q 1118 394 1103 427 q 1088 459 1068 459 l 1068 459 q 1062 459 1058 457 q 1053 455 1049 450 l 1049 450 q 1043 442 1041 429 q 1039 416 1039 386 l 1039 386 l 1039 272 l 883 272 l 883 368 q 883 399 881 417 q 879 435 873 445 l 873 445 q 869 452 863 456 q 857 459 849 459 l 849 459 q 835 459 824 441 q 812 423 812 382 l 812 382 q 812 357 816 333 q 819 308 824 288 l 824 288 l 673 257 q 665 286 660 321 q 654 355 654 390 l 654 390 q 654 439 673 483 q 691 526 731 554 q 771 581 836 581 l 836 581 q 884 581 916 565 q 947 549 974 515 l 974 515 l 944 514 q 971 549 1002 565 q 1032 581 1081 581 z"},"ഋ":{"ha":835,"x_min":27,"x_max":808,"o":"m 617 581 l 617 581 q 706 581 757 520 q 808 458 808 355 l 808 355 q 808 286 792 241 q 775 195 746 163 l 746 163 q 700 111 637 89 q 574 67 478 67 l 478 67 l 361 67 q 295 67 245 77 q 195 86 157 107 q 119 128 89 163 l 89 163 q 60 197 44 244 q 27 290 27 360 l 27 360 q 27 423 50 473 q 73 523 118 552 q 162 581 225 581 l 225 581 q 280 581 321 559 q 361 536 383 496 q 405 455 405 402 l 405 402 q 405 336 384 297 q 363 258 327 241 q 291 224 245 224 l 245 224 q 216 224 184 239 q 152 254 125 278 q 97 302 78 328 l 78 328 l 122 415 q 141 385 155 367 q 169 349 182 341 q 195 333 211 333 l 211 333 q 231 333 243 349 q 254 364 254 408 l 254 408 q 254 437 245 452 q 235 466 221 466 l 221 466 q 207 466 196 457 q 184 448 178 426 q 172 404 172 363 l 172 363 q 172 345 174 329 q 175 313 178 299 l 178 299 l 184 258 q 199 232 222 215 q 245 198 275 188 q 304 178 339 174 q 373 170 411 170 l 411 170 l 424 170 q 462 170 497 174 q 531 178 561 188 q 590 198 613 215 q 636 232 651 258 l 651 258 l 657 299 q 660 313 662 329 q 663 345 663 363 l 663 363 q 663 404 657 426 q 651 448 641 457 q 631 466 618 466 l 618 466 q 602 466 592 451 q 581 435 581 400 l 581 400 q 581 362 593 348 q 604 333 621 333 l 621 333 q 639 333 652 340 q 665 347 679 365 q 693 383 713 415 l 713 415 l 757 328 q 739 302 712 278 q 684 254 652 239 q 619 224 585 224 l 585 224 q 542 224 507 241 q 471 257 451 295 q 430 332 430 394 l 430 394 q 430 455 455 497 q 479 538 521 560 q 563 581 617 581 z m 418 -261 l 418 -261 q 317 -261 243 -241 q 168 -222 128 -177 q 87 -133 87 -59 l 87 -59 q 87 -7 112 29 q 136 64 177 86 q 218 107 267 117 q 316 126 365 126 l 365 126 l 470 126 q 519 126 568 117 q 617 107 658 86 q 699 64 724 29 q 748 -7 748 -59 l 748 -59 q 748 -133 708 -177 q 667 -222 593 -241 q 519 -261 418 -261 z m 418 -135 l 418 -135 q 471 -135 509 -125 q 546 -116 566 -95 q 586 -75 586 -43 l 586 -43 q 586 -17 574 1 q 561 18 538 29 q 515 39 485 44 q 454 48 419 48 l 419 48 l 416 48 q 369 48 331 40 q 293 32 271 12 q 249 -8 249 -43 l 249 -43 q 249 -75 269 -95 q 289 -116 327 -125 q 365 -135 418 -135 z"},"ഌ":{"ha":1062,"x_min":32,"x_max":1032,"o":"m 334 581 l 334 581 q 404 581 453 559 q 502 537 543 482 l 543 482 l 569 374 l 597 218 l 597 0 l 439 0 l 439 300 q 439 359 432 389 q 425 419 406 436 l 406 436 q 394 447 377 453 q 359 458 333 458 l 333 458 q 292 458 255 436 q 218 413 195 365 q 172 317 172 240 l 172 240 l 172 234 q 172 178 178 151 q 184 123 195 115 q 205 106 216 106 l 216 106 q 226 106 233 112 q 240 118 244 133 q 248 147 248 173 l 248 173 q 248 213 239 228 q 229 243 212 243 l 212 243 q 192 243 174 226 q 156 208 126 164 l 126 164 l 100 278 q 131 312 170 334 q 209 356 256 356 l 256 356 q 305 356 337 334 q 368 312 384 273 q 399 234 399 184 l 399 184 q 399 121 379 77 q 359 33 319 11 q 279 -12 220 -12 l 220 -12 q 166 -12 124 13 q 81 38 57 95 q 32 151 32 246 l 32 246 q 32 357 71 432 q 110 506 178 544 q 246 581 334 581 z m 830 -12 l 830 -12 q 763 -12 722 17 q 681 45 663 94 q 644 143 644 203 l 644 203 q 644 304 686 356 q 727 407 803 407 l 803 407 q 848 407 880 380 q 912 352 933 310 q 953 267 961 222 l 961 222 l 900 216 q 896 241 889 259 q 881 277 870 288 q 858 298 841 298 l 841 298 q 820 298 809 278 q 797 257 797 201 l 797 201 q 797 166 802 146 q 807 125 816 117 q 824 108 834 108 l 834 108 q 849 108 859 118 q 868 127 873 154 q 877 181 877 231 l 877 231 q 877 254 876 272 q 875 290 873 305 l 873 305 q 873 309 873 319 q 872 328 871 332 l 871 332 q 867 364 847 393 q 827 421 795 439 q 763 457 721 457 l 721 457 q 694 457 675 452 q 655 447 640 436 l 640 436 q 624 424 615 407 q 605 389 601 362 q 597 334 597 293 l 597 293 l 597 161 l 468 440 q 500 490 536 521 q 571 552 616 567 q 661 581 719 581 l 719 581 q 800 581 859 554 q 918 526 957 479 q 995 431 1014 369 q 1032 307 1032 237 l 1032 237 q 1032 151 1010 96 q 987 40 943 14 q 898 -12 830 -12 z"},"എ":{"ha":1131,"x_min":26,"x_max":1097,"o":"m 227 372 l 227 372 q 300 372 343 345 q 385 317 404 275 q 423 232 423 187 l 423 187 q 423 159 414 130 q 405 100 391 78 l 391 78 l 385 122 l 749 122 l 746 0 l 296 0 l 249 73 q 258 90 265 116 q 272 141 272 175 l 272 175 q 272 206 263 228 q 254 250 229 250 l 229 250 q 213 250 203 241 q 193 231 189 215 q 184 198 184 177 l 184 177 q 184 134 195 104 q 206 74 222 42 l 222 42 l 96 -13 q 66 28 46 74 q 26 120 26 181 l 26 181 q 26 239 50 282 q 74 324 120 348 q 165 372 227 372 z m 791 581 l 791 581 q 871 581 929 554 q 987 527 1024 476 q 1061 425 1079 353 q 1097 280 1097 190 l 1097 190 q 1097 99 1082 25 q 1067 -50 1043 -112 q 1019 -174 990 -229 l 990 -229 l 854 -170 q 879 -119 897 -66 q 915 -13 926 49 q 936 110 936 187 l 936 187 q 936 252 928 302 q 919 352 902 387 q 884 421 857 439 q 830 457 793 457 l 793 457 q 738 457 703 423 q 668 388 652 320 q 635 252 635 151 l 635 151 q 635 132 635 115 q 635 97 635 81 l 635 81 q 635 72 634 64 q 632 55 632 47 l 632 47 q 633 -5 639 -39 q 644 -74 656 -91 q 667 -108 686 -108 l 686 -108 q 696 -108 700 -102 l 700 -102 q 703 -98 704 -92 q 705 -86 705 -73 l 705 -73 l 705 374 l 862 374 l 862 -12 q 862 -89 849 -127 q 836 -166 810 -190 l 810 -190 q 790 -209 762 -218 q 733 -228 698 -228 l 698 -228 q 627 -228 578 -194 q 528 -160 503 -78 q 478 4 478 147 l 478 147 q 478 244 497 324 q 516 403 555 461 q 594 518 653 550 q 712 581 791 581 z"},"ഏ":{"ha":1143,"x_min":26,"x_max":1119,"o":"m 227 372 l 227 372 q 300 372 343 345 q 385 317 404 275 q 423 232 423 187 l 423 187 q 423 159 414 130 q 405 100 391 78 l 391 78 l 385 122 l 749 122 l 746 0 l 296 0 l 249 73 q 258 90 265 116 q 272 141 272 175 l 272 175 q 272 206 263 228 q 254 250 229 250 l 229 250 q 213 250 203 241 q 193 231 189 215 q 184 198 184 177 l 184 177 q 184 134 195 104 q 206 74 222 42 l 222 42 l 96 -13 q 66 28 46 74 q 26 120 26 181 l 26 181 q 26 239 50 282 q 74 324 120 348 q 165 372 227 372 z m 833 581 l 833 581 q 907 581 960 562 q 1013 543 1047 510 q 1080 476 1096 433 q 1112 389 1112 341 l 1112 341 q 1112 287 1097 249 q 1081 210 1058 185 q 1035 159 1012 144 l 1012 144 l 1012 168 q 1056 143 1088 98 q 1119 52 1119 -26 l 1119 -26 q 1119 -97 1097 -142 q 1075 -187 1034 -207 q 992 -228 934 -228 l 934 -228 q 910 -228 890 -225 q 869 -223 852 -219 l 852 -219 l 876 -101 q 881 -102 889 -103 q 896 -104 903 -104 l 903 -104 q 926 -104 939 -93 q 951 -83 956 -63 q 961 -44 961 -16 l 961 -16 q 961 25 943 53 q 924 80 891 84 l 891 84 l 891 204 q 909 214 923 230 q 937 245 945 268 q 953 291 953 323 l 953 323 q 953 368 938 398 q 922 428 894 443 q 865 457 826 457 l 826 457 q 763 457 721 420 q 678 383 657 315 q 635 246 635 151 l 635 151 q 635 132 635 115 q 635 97 635 81 l 635 81 q 635 72 634 64 q 632 55 632 47 l 632 47 q 633 -5 639 -39 q 644 -74 656 -91 q 667 -108 686 -108 l 686 -108 q 696 -108 700 -102 l 700 -102 q 703 -98 704 -92 q 705 -86 705 -73 l 705 -73 l 705 374 l 862 374 l 862 -12 q 862 -89 849 -127 q 836 -166 810 -190 l 810 -190 q 790 -209 762 -218 q 733 -228 698 -228 l 698 -228 q 627 -228 578 -194 q 528 -160 503 -78 q 478 4 478 147 l 478 147 q 478 239 499 318 q 520 397 564 456 q 608 515 675 548 q 742 581 833 581 z"},"ഐ":{"ha":1791,"x_min":32,"x_max":1757,"o":"m 221 -12 l 221 -12 q 167 -12 124 13 q 81 37 57 92 q 32 146 32 236 l 32 236 q 32 309 52 372 q 72 435 111 482 q 150 529 209 555 q 267 581 343 581 l 343 581 q 427 581 483 555 q 538 529 570 487 q 601 444 615 394 q 628 343 628 293 l 628 293 q 628 230 613 174 q 597 118 572 71 q 547 24 516 -15 l 516 -15 l 387 50 q 411 87 429 125 q 446 163 456 204 q 465 244 465 289 l 465 289 q 465 340 452 378 q 438 416 410 437 q 381 458 334 458 l 334 458 q 287 458 250 431 q 213 403 193 353 q 172 302 172 234 l 172 234 q 172 178 178 151 q 184 123 195 115 q 205 106 216 106 l 216 106 q 226 106 233 112 q 240 118 244 133 q 248 147 248 173 l 248 173 q 248 213 239 228 q 229 243 212 243 l 212 243 q 192 243 174 226 q 156 208 126 164 l 126 164 l 100 278 q 131 312 170 334 q 209 356 256 356 l 256 356 q 305 356 337 334 q 368 312 384 273 q 399 234 399 184 l 399 184 q 399 123 379 80 q 359 36 320 12 q 280 -12 221 -12 z m 887 372 l 887 372 q 960 372 1003 345 q 1045 317 1064 275 q 1083 232 1083 187 l 1083 187 q 1083 159 1074 130 q 1065 100 1051 78 l 1051 78 l 1045 122 l 1409 122 l 1406 0 l 956 0 l 909 73 q 918 90 925 116 q 932 141 932 175 l 932 175 q 932 206 923 228 q 914 250 889 250 l 889 250 q 873 250 863 241 q 853 231 849 215 q 844 198 844 177 l 844 177 q 844 134 855 104 q 866 74 882 42 l 882 42 l 756 -13 q 726 28 706 74 q 686 120 686 181 l 686 181 q 686 239 710 282 q 734 324 780 348 q 825 372 887 372 z m 1451 581 l 1451 581 q 1531 581 1589 554 q 1647 527 1684 476 q 1721 425 1739 353 q 1757 280 1757 190 l 1757 190 q 1757 99 1742 25 q 1727 -50 1703 -112 q 1679 -174 1650 -229 l 1650 -229 l 1514 -170 q 1539 -119 1557 -66 q 1575 -13 1586 49 q 1596 110 1596 187 l 1596 187 q 1596 252 1588 302 q 1579 352 1562 387 q 1544 421 1517 439 q 1490 457 1453 457 l 1453 457 q 1398 457 1363 423 q 1328 388 1312 320 q 1295 252 1295 151 l 1295 151 q 1295 132 1295 115 q 1295 97 1295 81 l 1295 81 q 1295 72 1294 64 q 1292 55 1292 47 l 1292 47 q 1293 -5 1299 -39 q 1304 -74 1316 -91 q 1327 -108 1346 -108 l 1346 -108 q 1356 -108 1360 -102 l 1360 -102 q 1363 -98 1364 -92 q 1365 -86 1365 -73 l 1365 -73 l 1365 374 l 1522 374 l 1522 -12 q 1522 -89 1509 -127 q 1496 -166 1470 -190 l 1470 -190 q 1450 -209 1422 -218 q 1393 -228 1358 -228 l 1358 -228 q 1287 -228 1238 -194 q 1188 -160 1163 -78 q 1138 4 1138 147 l 1138 147 q 1138 244 1157 324 q 1176 403 1215 461 q 1254 518 1313 550 q 1372 581 1451 581 z"},"ഒ":{"ha":693,"x_min":30,"x_max":665,"o":"m 408 581 l 408 581 q 502 581 557 557 q 611 533 634 494 q 657 455 657 409 l 657 409 q 657 376 648 352 q 639 327 621 309 q 602 291 572 277 l 572 277 l 578 287 q 618 271 642 235 q 665 198 665 148 l 665 148 q 665 71 620 30 q 575 -12 480 -12 l 480 -12 q 460 -12 436 -8 q 411 -5 392 0 l 392 0 l 415 116 q 427 113 437 112 q 446 110 456 110 l 456 110 q 482 110 495 123 q 507 136 507 162 l 507 162 q 507 178 502 190 q 496 201 486 208 l 486 208 q 476 216 462 219 q 447 222 421 222 l 421 222 l 419 222 l 419 341 l 420 341 q 443 341 456 344 q 469 347 477 352 l 477 352 q 489 360 494 372 q 499 383 499 396 l 499 396 q 499 429 471 444 q 443 458 398 458 l 398 458 q 352 458 311 445 q 270 431 238 405 q 206 378 188 338 q 170 298 170 244 l 170 244 l 170 229 q 170 175 176 149 q 182 123 193 115 q 203 106 214 106 l 214 106 q 224 106 231 112 q 238 118 242 133 q 246 147 246 173 l 246 173 q 246 213 237 228 q 227 243 210 243 l 210 243 q 190 243 172 226 q 154 208 124 164 l 124 164 l 98 278 q 129 312 168 334 q 207 356 254 356 l 254 356 q 303 356 335 334 q 366 312 382 273 q 397 234 397 184 l 397 184 q 397 121 377 77 q 357 33 318 11 q 278 -12 219 -12 l 219 -12 q 164 -12 122 13 q 79 38 55 91 q 30 144 30 228 l 30 228 q 30 316 57 382 q 84 448 135 493 q 185 537 255 559 q 324 581 408 581 z"},"ഓ":{"ha":1170,"x_min":30,"x_max":1138,"o":"m 408 581 l 408 581 q 502 581 557 557 q 611 533 634 494 q 657 455 657 409 l 657 409 q 657 376 648 352 q 639 327 621 309 q 602 291 572 277 l 572 277 l 578 287 q 618 271 642 235 q 665 198 665 148 l 665 148 q 665 71 620 30 q 575 -12 480 -12 l 480 -12 q 460 -12 436 -8 q 411 -5 392 0 l 392 0 l 415 116 q 427 113 437 112 q 446 110 456 110 l 456 110 q 482 110 495 123 q 507 136 507 162 l 507 162 q 507 178 502 190 q 496 201 486 208 l 486 208 q 476 216 462 219 q 447 222 421 222 l 421 222 l 419 222 l 419 341 l 420 341 q 443 341 456 344 q 469 347 477 352 l 477 352 q 489 360 494 372 q 499 383 499 396 l 499 396 q 499 429 471 444 q 443 458 398 458 l 398 458 q 352 458 311 445 q 270 431 238 405 q 206 378 188 338 q 170 298 170 244 l 170 244 l 170 229 q 170 175 176 149 q 182 123 193 115 q 203 106 214 106 l 214 106 q 224 106 231 112 q 238 118 242 133 q 246 147 246 173 l 246 173 q 246 213 237 228 q 227 243 210 243 l 210 243 q 190 243 172 226 q 154 208 124 164 l 124 164 l 98 278 q 129 312 168 334 q 207 356 254 356 l 254 356 q 303 356 335 334 q 366 312 382 273 q 397 234 397 184 l 397 184 q 397 121 377 77 q 357 33 318 11 q 278 -12 219 -12 l 219 -12 q 164 -12 122 13 q 79 38 55 91 q 30 144 30 228 l 30 228 q 30 316 57 382 q 84 448 135 493 q 185 537 255 559 q 324 581 408 581 z m 1138 287 l 1138 287 q 1138 214 1127 158 q 1116 102 1091 65 q 1065 27 1023 8 q 981 -12 919 -12 l 919 -12 q 859 -12 821 5 q 782 21 759 49 q 736 77 724 113 q 712 148 705 186 l 705 186 l 864 215 q 870 180 878 157 q 885 133 896 122 q 907 110 924 110 l 924 110 q 943 110 955 129 q 966 147 972 187 q 977 226 977 290 l 977 290 q 977 349 972 386 q 966 423 955 441 q 943 459 924 459 l 924 459 q 909 459 898 448 q 887 436 880 413 q 872 390 866 354 l 866 354 l 707 384 q 717 423 732 459 q 747 494 772 522 q 796 549 834 565 q 871 581 927 581 l 927 581 q 988 581 1029 560 q 1070 538 1094 499 q 1118 459 1128 406 q 1138 352 1138 287 z"},"ഔ":{"ha":1371,"x_min":30,"x_max":1339,"o":"m 408 581 l 408 581 q 502 581 557 557 q 611 533 634 494 q 657 455 657 409 l 657 409 q 657 376 648 352 q 639 327 621 309 q 602 291 572 277 l 572 277 l 578 287 q 618 271 642 235 q 665 198 665 148 l 665 148 q 665 71 620 30 q 575 -12 480 -12 l 480 -12 q 460 -12 436 -8 q 411 -5 392 0 l 392 0 l 415 116 q 427 113 437 112 q 446 110 456 110 l 456 110 q 482 110 495 123 q 507 136 507 162 l 507 162 q 507 178 502 190 q 496 201 486 208 l 486 208 q 476 216 462 219 q 447 222 421 222 l 421 222 l 419 222 l 419 341 l 420 341 q 443 341 456 344 q 469 347 477 352 l 477 352 q 489 360 494 372 q 499 383 499 396 l 499 396 q 499 429 471 444 q 443 458 398 458 l 398 458 q 352 458 311 445 q 270 431 238 405 q 206 378 188 338 q 170 298 170 244 l 170 244 l 170 229 q 170 175 176 149 q 182 123 193 115 q 203 106 214 106 l 214 106 q 224 106 231 112 q 238 118 242 133 q 246 147 246 173 l 246 173 q 246 213 237 228 q 227 243 210 243 l 210 243 q 190 243 172 226 q 154 208 124 164 l 124 164 l 98 278 q 129 312 168 334 q 207 356 254 356 l 254 356 q 303 356 335 334 q 366 312 382 273 q 397 234 397 184 l 397 184 q 397 121 377 77 q 357 33 318 11 q 278 -12 219 -12 l 219 -12 q 164 -12 122 13 q 79 38 55 91 q 30 144 30 228 l 30 228 q 30 316 57 382 q 84 448 135 493 q 185 537 255 559 q 324 581 408 581 z m 1142 581 l 1142 581 q 1204 581 1248 549 q 1292 517 1316 457 q 1339 397 1339 313 l 1339 313 q 1339 208 1312 136 q 1284 63 1225 26 q 1166 -12 1071 -12 l 1071 -12 q 1007 -12 963 -1 q 919 9 871 30 l 871 30 l 932 140 q 960 127 991 120 q 1022 112 1053 112 l 1053 112 q 1100 112 1128 134 q 1155 155 1167 200 q 1179 244 1179 313 l 1179 313 q 1179 394 1164 427 q 1149 459 1129 459 l 1129 459 q 1123 459 1119 457 q 1114 455 1110 450 l 1110 450 q 1104 442 1102 429 q 1100 416 1100 386 l 1100 386 l 1100 272 l 944 272 l 944 368 q 944 399 942 417 q 940 435 934 445 l 934 445 q 930 452 924 456 q 918 459 910 459 l 910 459 q 896 459 885 441 q 873 423 873 382 l 873 382 q 873 357 877 333 q 880 308 885 288 l 885 288 l 734 257 q 726 286 721 321 q 715 355 715 390 l 715 390 q 715 439 734 483 q 752 526 792 554 q 832 581 897 581 l 897 581 q 945 581 977 565 q 1008 549 1035 515 l 1035 515 l 1005 514 q 1032 549 1063 565 q 1093 581 1142 581 z"},"ക":{"ha":944,"x_min":26,"x_max":918,"o":"m 208 -12 l 208 -12 q 120 -12 73 35 q 26 81 26 163 l 26 163 q 26 222 51 260 q 75 298 117 320 l 117 320 q 142 333 172 341 q 201 349 239 353 q 276 356 324 356 l 324 356 l 643 356 q 712 356 755 348 q 798 339 832 319 l 832 319 q 873 296 896 257 q 918 218 918 161 l 918 161 q 918 74 875 31 q 831 -12 759 -12 l 759 -12 q 737 -12 714 -9 q 691 -6 670 -1 l 670 -1 l 695 113 q 702 112 709 111 q 716 110 722 110 l 722 110 q 745 110 756 124 q 766 138 766 161 l 766 161 q 766 181 760 195 q 753 208 741 216 l 741 216 q 727 226 707 230 q 686 234 642 234 l 642 234 l 282 234 q 251 234 232 230 q 212 225 199 217 l 199 217 q 186 208 180 196 q 173 184 173 167 l 173 167 q 173 150 179 137 q 184 123 196 116 q 208 109 227 109 l 227 109 q 250 109 269 119 q 287 129 303 146 l 303 146 l 371 37 q 345 19 319 8 q 293 -3 266 -7 q 239 -12 208 -12 z m 470 581 l 470 581 q 553 581 603 546 q 653 511 676 446 q 699 380 699 287 l 699 287 q 699 185 674 119 q 648 52 597 20 q 546 -12 471 -12 l 471 -12 q 408 -12 366 10 q 324 31 298 71 l 298 71 q 268 111 255 167 q 241 223 241 294 l 241 294 q 241 435 299 508 q 357 581 470 581 z m 470 459 l 470 459 q 430 459 414 421 q 398 383 398 283 l 398 283 q 398 220 405 182 q 412 144 428 127 q 444 110 471 110 l 471 110 q 496 110 512 127 q 527 143 535 182 q 542 220 542 286 l 542 286 q 542 351 535 389 q 528 426 512 443 q 496 459 470 459 z"},"ഖ":{"ha":905,"x_min":31,"x_max":857,"o":"m 341 581 l 341 581 q 424 581 479 557 q 534 533 566 493 q 598 453 612 404 q 625 354 625 303 l 625 303 q 625 249 613 204 q 601 159 578 118 q 555 76 522 35 l 522 35 l 513 0 l 474 0 l 399 74 q 416 102 431 136 q 445 170 455 210 q 464 250 464 295 l 464 295 q 464 343 452 380 q 440 416 413 437 q 386 458 339 458 l 339 458 q 296 458 258 434 q 219 409 195 362 q 171 314 171 245 l 171 245 l 171 235 q 171 178 177 151 q 183 123 194 115 q 204 106 215 106 l 215 106 q 225 106 232 112 q 239 118 243 133 q 247 147 247 173 l 247 173 q 247 213 238 228 q 228 243 211 243 l 211 243 q 191 243 173 226 q 155 208 125 164 l 125 164 l 99 278 q 130 312 169 334 q 208 356 255 356 l 255 356 q 304 356 336 334 q 367 312 383 273 q 398 234 398 184 l 398 184 q 398 121 378 77 q 358 33 319 11 q 279 -12 220 -12 l 220 -12 q 165 -12 123 13 q 80 38 56 94 q 31 149 31 242 l 31 242 q 31 348 70 424 q 109 499 179 540 q 249 581 341 581 z m 699 569 l 857 569 l 857 0 l 492 0 l 550 122 l 699 122 l 699 569 z"},"ഗ":{"ha":798,"x_min":32,"x_max":766,"o":"m 535 581 l 535 581 q 613 581 664 547 q 715 512 741 451 q 766 389 766 307 l 766 307 q 766 244 754 190 q 741 135 719 86 q 697 36 667 -13 l 667 -13 l 534 51 q 555 93 572 133 q 588 172 597 215 q 606 257 606 307 l 606 307 q 606 365 596 398 q 585 430 569 444 q 552 458 532 458 l 532 458 q 522 458 513 455 q 504 452 498 445 l 498 445 q 488 435 484 418 q 479 400 479 363 l 479 363 l 479 233 q 479 183 472 146 q 465 108 451 82 q 437 55 415 36 l 415 36 q 387 11 351 0 q 314 -12 263 -12 l 263 -12 q 185 -12 134 23 q 83 57 58 119 q 32 181 32 262 l 32 262 q 32 325 45 380 q 57 434 80 484 q 102 533 131 582 l 131 582 l 264 518 q 243 476 227 437 q 211 397 202 355 q 192 312 192 262 l 192 262 q 192 205 203 172 q 213 139 230 125 q 247 111 266 111 l 266 111 q 277 111 286 114 q 294 117 300 124 l 300 124 q 310 134 315 152 q 319 169 319 206 l 319 206 l 319 336 q 319 412 335 459 q 351 505 383 533 l 383 533 q 412 558 448 570 q 484 581 535 581 z"},"ഘ":{"ha":1184,"x_min":26,"x_max":1136,"o":"m 227 581 l 227 581 q 300 581 343 554 q 385 526 404 484 q 423 441 423 396 l 423 396 q 423 368 414 339 q 405 309 391 287 l 391 287 l 385 331 l 579 331 l 618 210 l 296 210 l 249 282 q 258 299 265 325 q 272 350 272 384 l 272 384 q 272 414 263 437 q 254 459 229 459 l 229 459 q 213 459 203 449 q 193 439 189 423 q 184 406 184 386 l 184 386 q 184 343 195 313 q 206 283 222 251 l 222 251 l 96 196 q 66 237 46 283 q 26 329 26 390 l 26 390 q 26 448 50 491 q 74 533 120 557 q 165 581 227 581 z m 978 569 l 1136 569 l 1136 0 l 470 0 l 470 305 q 470 386 485 437 q 500 487 531 520 l 531 520 q 558 549 599 565 q 639 581 695 581 l 695 581 q 754 581 796 565 q 838 548 864 517 l 864 517 q 893 483 906 434 q 919 385 919 307 l 919 307 l 919 210 l 627 210 l 627 122 l 978 122 l 978 569 z m 695 459 l 695 459 q 658 459 643 433 q 627 406 627 350 l 627 350 l 627 331 l 762 331 l 762 349 q 762 405 746 432 q 729 459 695 459 z"},"ങ":{"ha":951,"x_min":32,"x_max":923,"o":"m 334 581 l 334 581 q 404 581 453 559 q 502 537 543 482 l 543 482 l 569 374 l 597 239 l 597 0 l 439 0 l 439 300 q 439 359 432 389 q 425 419 406 436 l 406 436 q 394 447 377 453 q 359 458 333 458 l 333 458 q 292 458 255 436 q 218 413 195 365 q 172 317 172 240 l 172 240 l 172 234 q 172 178 178 151 q 184 123 195 115 q 205 106 216 106 l 216 106 q 226 106 233 112 q 240 118 244 133 q 248 147 248 173 l 248 173 q 248 213 239 228 q 229 243 212 243 l 212 243 q 192 243 174 226 q 156 208 126 164 l 126 164 l 100 278 q 131 312 170 334 q 209 356 256 356 l 256 356 q 305 356 337 334 q 368 312 384 273 q 399 234 399 184 l 399 184 q 399 121 379 77 q 359 33 319 11 q 279 -12 220 -12 l 220 -12 q 166 -12 124 13 q 81 38 57 95 q 32 151 32 246 l 32 246 q 32 357 71 432 q 110 506 178 544 q 246 581 334 581 z m 712 581 l 712 581 q 780 581 825 559 q 870 537 893 500 q 915 462 915 414 l 915 414 q 915 380 906 355 q 897 329 878 311 q 859 292 830 278 l 830 278 l 836 287 q 876 271 900 235 q 923 198 923 148 l 923 148 q 923 71 878 30 q 833 -12 738 -12 l 738 -12 q 718 -12 694 -8 q 669 -5 650 0 l 650 0 l 673 116 q 685 113 695 112 q 704 110 714 110 l 714 110 q 740 110 753 123 q 765 136 765 162 l 765 162 q 765 178 760 190 q 754 201 744 208 l 744 208 q 734 216 720 219 q 705 222 679 222 l 679 222 l 667 222 l 667 341 l 675 341 q 699 341 714 345 q 728 349 735 354 l 735 354 q 747 362 752 374 q 757 385 757 401 l 757 401 q 757 427 742 443 q 727 459 699 459 l 699 459 q 677 459 662 453 q 647 447 636 437 l 636 437 q 619 422 611 401 q 602 379 600 351 q 597 322 597 285 l 597 285 l 597 215 l 462 236 l 454 319 l 458 408 q 475 457 508 496 q 540 535 591 558 q 641 581 712 581 z"},"ച":{"ha":804,"x_min":19,"x_max":756,"o":"m 598 569 l 756 569 l 756 0 l 19 0 l 19 122 l 368 122 l 297 100 q 316 120 328 152 q 340 184 340 217 l 340 217 q 340 246 331 262 q 322 278 302 278 l 302 278 q 283 278 274 262 q 265 245 265 222 l 265 222 q 265 206 267 196 q 268 186 269 178 l 269 178 l 115 163 q 112 176 111 192 q 109 207 109 225 l 109 225 q 109 305 157 353 q 205 400 302 400 l 302 400 q 359 400 396 383 q 432 366 453 340 q 474 313 482 283 q 490 252 490 225 l 490 225 q 490 202 486 180 q 481 158 473 138 q 464 118 452 100 l 452 100 l 434 122 l 598 122 l 598 569 z"},"ഛ":{"ha":1176,"x_min":19,"x_max":1146,"o":"m 302 400 l 302 400 q 359 400 396 383 q 432 366 453 340 q 474 313 482 283 q 490 252 490 225 l 490 225 q 490 202 486 180 q 481 158 473 138 q 464 118 452 100 l 452 100 l 434 122 l 622 122 l 654 0 l 19 0 l 19 122 l 368 122 l 297 100 q 316 120 328 152 q 340 184 340 217 l 340 217 q 340 246 331 262 q 322 278 302 278 l 302 278 q 283 278 274 262 q 265 245 265 222 l 265 222 q 265 206 267 196 q 268 186 269 178 l 269 178 l 115 163 q 112 176 111 192 q 109 207 109 225 l 109 225 q 109 305 157 353 q 205 400 302 400 z m 836 581 l 836 581 q 916 581 975 554 q 1033 526 1071 479 q 1109 431 1128 369 q 1146 307 1146 237 l 1146 237 q 1146 151 1124 96 q 1101 40 1057 14 q 1012 -12 944 -12 l 944 -12 q 877 -12 836 17 q 795 45 777 94 q 758 143 758 203 l 758 203 q 758 304 800 356 q 841 407 917 407 l 917 407 q 962 407 994 380 q 1026 352 1047 310 q 1067 267 1075 222 l 1075 222 l 1014 216 q 1010 241 1003 259 q 995 277 984 288 q 972 298 955 298 l 955 298 q 934 298 923 278 q 911 257 911 201 l 911 201 q 911 166 916 146 q 921 125 930 117 q 938 108 948 108 l 948 108 q 963 108 973 118 q 982 127 987 154 q 991 181 991 231 l 991 231 q 991 254 990 272 q 989 290 987 305 l 987 305 q 987 309 987 319 q 986 328 985 332 l 985 332 q 981 364 962 393 q 942 421 911 439 q 879 457 839 457 l 839 457 q 792 457 760 438 q 728 418 712 381 q 695 343 695 289 l 695 289 q 695 246 704 209 q 713 172 728 139 q 742 105 758 74 l 758 74 l 685 0 l 632 0 l 617 65 q 595 95 576 131 q 557 167 546 211 q 534 254 534 306 l 534 306 q 534 359 552 409 q 569 458 606 497 q 642 536 700 559 q 757 581 836 581 z"},"ജ":{"ha":838,"x_min":24,"x_max":806,"o":"m 266 581 l 266 581 q 319 581 354 571 q 388 561 412 546 q 435 531 452 515 l 452 515 l 430 511 q 465 549 506 565 q 546 581 595 581 l 595 581 q 670 581 717 550 q 763 518 785 468 q 806 418 806 362 l 806 362 q 806 320 794 286 q 781 251 759 226 q 736 200 704 184 l 704 184 l 542 153 l 443 146 q 412 142 377 141 q 342 140 315 140 l 315 140 l 225 140 q 200 140 190 138 q 180 136 175 132 l 175 132 q 171 129 169 125 q 167 120 167 115 l 167 115 q 167 109 171 104 q 174 99 182 96 q 190 93 203 93 l 203 93 q 217 93 232 95 q 247 97 269 103 q 290 108 323 118 l 323 118 q 345 124 367 130 q 388 136 409 141 q 429 145 449 149 q 468 152 485 155 l 485 155 q 496 162 519 175 q 541 188 568 202 q 594 215 618 225 q 641 234 655 234 l 655 234 q 685 234 715 223 q 745 211 765 184 q 785 157 785 111 l 785 111 q 785 51 748 20 q 710 -12 637 -12 l 637 -12 q 579 -12 546 7 q 512 26 498 56 q 484 86 484 118 l 484 118 q 484 159 504 187 q 524 215 541 230 l 541 230 l 666 211 q 653 204 639 190 q 625 175 616 158 q 606 140 606 120 l 606 120 q 606 107 612 95 q 617 83 633 83 l 633 83 q 645 83 652 91 q 659 99 659 115 l 659 115 q 659 126 657 134 q 654 142 649 147 q 643 152 633 152 l 633 152 q 622 152 612 144 q 602 135 585 116 l 585 116 l 570 127 q 554 112 532 96 q 509 80 480 64 q 450 48 413 34 l 413 34 q 369 18 331 8 q 293 -3 259 -7 q 225 -12 191 -12 l 191 -12 q 141 -12 104 0 q 66 12 45 39 q 24 66 24 111 l 24 111 q 24 149 40 175 q 55 200 82 215 l 82 215 q 107 229 139 235 q 171 241 231 241 l 231 241 l 500 241 q 535 241 558 245 q 581 248 597 255 q 612 262 623 272 l 623 272 q 639 287 647 310 q 654 332 654 363 l 654 363 q 654 394 645 416 q 636 437 621 449 q 605 461 584 461 l 584 461 q 573 461 564 459 q 555 456 547 450 l 547 450 q 531 437 526 414 q 520 390 520 346 l 520 346 l 520 266 l 378 266 l 378 313 q 378 357 374 391 q 369 424 349 446 l 349 446 q 336 461 316 470 q 295 478 267 478 l 267 478 q 242 478 216 473 q 190 467 174 457 l 174 457 q 173 455 169 446 q 165 436 164 433 l 164 433 q 160 426 158 415 q 155 404 155 391 l 155 391 q 155 361 162 350 q 169 338 179 338 l 179 338 q 187 338 192 342 q 197 346 200 355 q 203 364 203 380 l 203 380 q 203 400 197 410 q 190 420 179 420 l 179 420 q 169 420 160 416 q 151 411 141 402 l 141 402 l 89 436 q 118 459 150 468 q 181 477 215 477 l 215 477 q 244 477 270 467 q 295 457 311 434 q 327 410 327 369 l 327 369 q 327 338 314 310 q 301 282 270 265 q 238 247 182 247 l 182 247 q 112 247 71 283 q 30 319 30 396 l 30 396 q 30 449 56 491 q 81 532 134 557 q 186 581 266 581 z"},"ഝ":{"ha":1461,"x_min":32,"x_max":1429,"o":"m 601 581 l 601 581 q 654 581 696 571 q 737 561 770 539 l 770 539 q 821 506 845 451 q 869 395 869 306 l 869 306 l 869 216 q 869 177 874 157 q 878 136 890 125 l 890 125 q 897 119 906 116 q 914 112 925 112 l 925 112 q 936 112 945 116 q 953 119 960 125 l 960 125 q 972 136 977 157 q 981 177 981 214 l 981 214 l 981 570 l 1139 570 l 1139 222 q 1139 180 1143 158 q 1147 135 1160 123 l 1160 123 q 1165 119 1173 116 q 1181 112 1190 112 l 1190 112 q 1208 112 1226 126 q 1244 140 1257 173 q 1269 206 1269 263 l 1269 263 q 1269 309 1260 351 q 1251 393 1235 434 q 1219 475 1198 517 l 1198 517 l 1331 582 q 1361 533 1383 484 q 1405 434 1417 380 q 1429 326 1429 263 l 1429 263 q 1429 182 1403 120 q 1376 58 1327 24 q 1278 -11 1208 -11 l 1208 -11 q 1159 -11 1122 6 q 1085 22 1049 61 l 1049 61 l 1077 70 q 1056 42 1032 24 q 1008 6 980 -2 q 951 -11 916 -11 l 916 -11 q 871 -11 835 3 q 799 16 773 39 l 773 39 q 752 59 738 85 q 724 111 718 149 q 711 186 711 238 l 711 238 l 711 287 q 711 329 707 359 q 702 388 693 407 q 683 426 668 438 l 668 438 q 653 450 635 457 q 617 463 594 463 l 594 463 q 578 463 562 460 q 545 457 531 450 l 531 450 l 510 440 q 483 423 463 389 q 442 355 431 311 q 420 266 420 216 l 420 216 q 420 175 425 152 q 430 129 439 120 q 448 110 460 110 l 460 110 q 473 110 482 119 q 491 128 497 152 q 502 175 502 218 l 502 218 q 502 269 491 314 q 479 359 460 393 q 440 426 416 442 l 416 442 l 396 451 q 383 457 367 460 q 350 463 336 463 l 336 463 q 283 463 252 440 q 220 417 207 378 q 193 339 193 291 l 193 291 q 193 248 203 208 q 212 168 229 130 q 245 91 266 53 l 266 53 l 139 -12 q 108 27 84 73 q 60 119 46 175 q 32 231 32 299 l 32 299 q 32 343 45 392 q 58 441 91 484 q 123 527 181 554 q 238 581 327 581 l 327 581 q 380 581 424 568 q 467 555 508 528 l 508 528 l 522 493 q 589 447 624 385 q 659 323 659 219 l 659 219 q 659 141 636 90 q 613 39 569 14 q 525 -12 460 -12 l 460 -12 q 397 -12 353 16 q 309 43 286 95 q 263 147 263 220 l 263 220 q 263 284 279 333 q 294 382 326 421 q 357 459 404 493 l 404 493 l 416 522 q 459 552 507 567 q 555 581 601 581 z"},"ഞ":{"ha":1311,"x_min":32,"x_max":1279,"o":"m 334 581 l 334 581 q 404 581 454 559 q 503 536 545 482 l 545 482 l 569 374 l 597 218 l 597 0 l 439 0 l 439 300 q 439 359 432 389 q 425 419 406 436 l 406 436 q 394 447 377 453 q 359 458 333 458 l 333 458 q 292 458 255 436 q 218 413 195 365 q 172 317 172 240 l 172 240 l 172 234 q 172 178 178 151 q 184 123 195 115 q 205 106 216 106 l 216 106 q 226 106 233 112 q 240 118 244 133 q 248 147 248 173 l 248 173 q 248 213 239 228 q 229 243 212 243 l 212 243 q 192 243 174 226 q 156 208 126 164 l 126 164 l 100 278 q 131 312 170 334 q 209 356 256 356 l 256 356 q 305 356 337 334 q 368 312 384 273 q 399 234 399 184 l 399 184 q 399 121 379 77 q 359 33 319 11 q 279 -12 220 -12 l 220 -12 q 166 -12 124 13 q 81 38 57 95 q 32 151 32 246 l 32 246 q 32 357 71 432 q 110 506 178 544 q 246 581 334 581 z m 722 581 l 722 581 q 769 581 812 569 q 855 556 896 528 l 896 528 l 909 493 q 976 447 1011 385 q 1046 323 1046 219 l 1046 219 q 1046 141 1023 90 q 1000 39 956 14 q 912 -12 847 -12 l 847 -12 q 784 -12 740 16 q 696 43 673 95 q 650 147 650 220 l 650 220 q 650 285 666 334 q 681 382 713 421 q 744 459 791 493 l 791 493 l 805 524 q 849 553 897 567 q 944 581 997 581 l 997 581 q 1081 581 1136 556 q 1191 530 1223 488 q 1254 446 1267 396 q 1279 345 1279 296 l 1279 296 q 1279 232 1264 176 q 1249 120 1225 74 q 1200 27 1170 -12 l 1170 -12 l 1042 52 q 1063 88 1080 126 q 1097 163 1108 203 q 1118 243 1118 284 l 1118 284 q 1118 338 1105 378 q 1092 418 1064 441 q 1035 463 987 463 l 987 463 q 969 463 953 460 q 936 456 921 450 l 921 450 l 898 441 q 870 424 850 390 q 829 356 818 311 q 807 266 807 216 l 807 216 q 807 175 812 152 q 817 129 826 120 q 835 110 847 110 l 847 110 q 860 110 869 119 q 878 128 884 152 q 889 175 889 218 l 889 218 q 889 269 878 314 q 866 359 847 393 q 827 426 803 442 l 803 442 l 784 451 q 776 455 766 458 q 755 460 744 462 q 732 463 720 463 l 720 463 q 694 463 674 457 q 654 451 639 439 l 639 439 q 617 421 607 391 q 597 360 597 307 l 597 307 l 597 20 l 458 20 l 458 232 l 483 467 q 507 499 539 525 q 570 551 615 566 q 659 581 722 581 z"},"ട":{"ha":503,"x_min":9,"x_max":488,"o":"m 260 581 l 260 581 q 329 581 383 568 q 436 554 488 531 l 488 531 l 420 422 q 380 439 342 449 q 304 458 259 458 l 259 458 q 232 458 216 450 q 199 442 191 430 q 183 417 183 402 l 183 402 q 183 388 187 379 q 191 370 198 365 l 198 365 q 208 357 225 354 q 242 350 265 350 l 265 350 l 269 350 q 316 350 354 340 q 391 329 419 308 l 419 308 q 449 286 466 254 q 482 221 482 177 l 482 177 q 482 124 457 81 q 432 38 378 13 q 324 -12 235 -12 l 235 -12 q 175 -12 117 0 q 59 12 9 37 l 9 37 l 76 149 q 105 136 131 128 q 156 119 182 115 q 207 111 233 111 l 233 111 q 266 111 285 119 q 304 126 313 139 q 321 152 321 169 l 321 169 q 321 184 316 195 q 311 206 302 212 l 302 212 q 291 220 277 223 q 263 226 237 226 l 237 226 l 235 226 q 183 226 139 240 q 94 253 65 281 l 65 281 q 45 301 34 330 q 22 359 22 396 l 22 396 q 22 450 48 492 q 74 533 127 557 q 180 581 260 581 z"},"ഠ":{"ha":594,"x_min":31,"x_max":563,"o":"m 296 581 l 296 581 q 383 581 443 546 q 502 511 533 445 q 563 378 563 284 l 563 284 q 563 189 532 123 q 501 57 442 23 q 383 -12 297 -12 l 297 -12 q 211 -12 152 23 q 92 58 62 125 q 31 191 31 284 l 31 284 q 31 380 62 446 q 93 512 152 547 q 211 581 296 581 z m 297 112 l 297 112 q 330 112 353 130 q 376 148 388 186 q 400 224 400 284 l 400 284 q 400 342 389 380 q 377 418 355 438 q 332 457 297 457 l 297 457 q 248 457 221 417 q 194 376 194 284 l 194 284 q 194 199 220 156 q 245 112 297 112 z"},"ഡ":{"ha":1069,"x_min":32,"x_max":1037,"o":"m 524 -12 l 524 -12 q 479 -12 443 2 q 407 15 381 38 l 381 38 q 360 58 347 84 q 333 110 326 148 q 319 185 319 237 l 319 237 l 319 363 q 319 400 315 418 q 310 435 300 445 l 300 445 q 294 452 286 455 q 277 458 266 458 l 266 458 q 247 458 230 444 q 213 430 203 398 q 192 365 192 307 l 192 307 q 192 257 202 215 q 211 172 227 133 q 243 93 264 51 l 264 51 l 131 -13 q 102 36 80 86 q 57 135 45 190 q 32 244 32 307 l 32 307 q 32 389 58 451 q 83 512 135 547 q 186 581 263 581 l 263 581 q 314 581 350 570 q 386 558 414 533 l 414 533 q 436 514 450 488 q 463 461 470 424 q 477 387 477 336 l 477 336 l 477 215 q 477 176 482 156 q 486 135 498 124 l 498 124 q 505 118 514 115 q 522 111 533 111 l 533 111 q 544 111 553 115 q 561 118 568 124 l 568 124 q 580 135 585 156 q 589 176 589 213 l 589 213 l 589 569 l 747 569 l 747 221 q 747 179 751 157 q 755 134 768 122 l 768 122 q 773 118 781 115 q 789 111 798 111 l 798 111 q 816 111 834 125 q 852 139 865 172 q 877 205 877 262 l 877 262 q 877 308 868 350 q 859 392 843 433 q 827 474 806 516 l 806 516 l 939 581 q 969 532 991 483 q 1013 433 1025 379 q 1037 325 1037 262 l 1037 262 q 1037 181 1011 119 q 984 57 935 23 q 886 -12 816 -12 l 816 -12 q 767 -12 730 5 q 693 21 657 60 l 657 60 l 685 69 q 653 27 615 8 q 577 -12 524 -12 z"},"ഢ":{"ha":1186,"x_min":32,"x_max":1154,"o":"m 524 -11 l 524 -11 q 479 -11 443 3 q 407 16 381 39 l 381 39 q 360 59 347 85 q 333 111 326 149 q 319 186 319 238 l 319 238 l 319 364 q 319 401 315 419 q 310 436 300 446 l 300 446 q 294 453 286 456 q 277 459 266 459 l 266 459 q 247 459 230 445 q 213 431 203 399 q 192 366 192 308 l 192 308 q 192 258 202 216 q 211 173 227 134 q 243 94 264 52 l 264 52 l 131 -12 q 102 37 80 87 q 57 136 45 191 q 32 245 32 308 l 32 308 q 32 390 58 452 q 83 513 134 548 q 185 582 263 582 l 263 582 q 314 582 350 571 q 386 559 414 534 l 414 534 q 436 515 450 489 q 463 462 470 425 q 477 388 477 337 l 477 337 l 477 216 q 477 177 482 157 q 486 136 498 125 l 498 125 q 505 119 514 116 q 522 112 533 112 l 533 112 q 544 112 553 116 q 561 119 568 125 l 568 125 q 580 136 585 157 q 589 177 589 214 l 589 214 l 589 570 l 747 570 l 747 271 l 685 70 q 653 28 615 9 q 577 -11 524 -11 z m 966 581 l 966 581 q 1021 581 1063 556 q 1105 531 1130 475 q 1154 418 1154 323 l 1154 323 q 1154 213 1115 138 q 1076 63 1008 26 q 940 -12 852 -12 l 852 -12 q 782 -12 733 10 q 684 32 643 87 l 643 87 l 617 195 l 616 529 l 747 529 l 747 269 q 747 211 754 181 q 761 150 780 133 l 780 133 q 792 122 810 117 q 828 111 853 111 l 853 111 q 895 111 932 134 q 968 156 991 205 q 1014 253 1014 329 l 1014 329 l 1014 335 q 1014 392 1008 419 q 1002 446 992 455 q 982 463 970 463 l 970 463 q 961 463 954 457 q 946 451 942 437 q 938 422 938 396 l 938 396 q 938 356 948 341 q 957 326 974 326 l 974 326 q 994 326 1012 344 q 1030 361 1060 405 l 1060 405 l 1086 291 q 1055 257 1016 235 q 977 213 930 213 l 930 213 q 882 213 850 235 q 818 257 803 296 q 787 335 787 385 l 787 385 q 787 448 807 492 q 827 536 867 559 q 907 581 966 581 z"},"ണ":{"ha":1194,"x_min":32,"x_max":1162,"o":"m 334 581 l 334 581 q 404 581 453 559 q 502 536 543 481 l 543 481 l 498 496 q 527 537 567 559 q 607 581 656 581 l 656 581 q 698 581 737 564 q 775 546 808 503 l 808 503 l 782 509 q 818 548 855 565 q 892 581 941 581 l 941 581 q 1011 581 1060 547 q 1109 512 1136 451 q 1162 389 1162 307 l 1162 307 q 1162 244 1150 190 q 1137 135 1115 86 q 1093 36 1063 -14 l 1063 -14 l 930 51 q 951 93 968 135 q 984 176 993 219 q 1002 262 1002 307 l 1002 307 q 1002 367 990 400 q 977 433 959 446 q 940 458 922 458 l 922 458 q 913 458 905 454 q 897 450 892 445 l 892 445 q 879 432 876 411 q 872 390 872 348 l 872 348 l 872 0 l 714 0 l 714 350 q 714 392 710 413 q 705 433 692 445 l 692 445 q 685 451 677 455 q 668 458 655 458 l 655 458 q 645 458 636 455 q 626 451 619 445 l 619 445 q 607 434 602 414 q 597 393 597 348 l 597 348 l 597 0 l 439 0 l 439 300 q 439 359 432 389 q 425 419 406 436 l 406 436 q 394 447 377 453 q 359 458 333 458 l 333 458 q 292 458 255 436 q 218 413 195 365 q 172 317 172 240 l 172 240 l 172 234 q 172 178 178 151 q 184 123 195 115 q 205 106 216 106 l 216 106 q 226 106 233 112 q 240 118 244 133 q 248 147 248 173 l 248 173 q 248 213 239 228 q 229 243 212 243 l 212 243 q 192 243 174 226 q 156 208 126 164 l 126 164 l 100 278 q 131 312 170 334 q 209 356 256 356 l 256 356 q 305 356 337 334 q 368 312 384 273 q 399 234 399 184 l 399 184 q 399 121 379 77 q 359 33 319 11 q 279 -12 220 -12 l 220 -12 q 166 -12 124 13 q 81 38 57 95 q 32 151 32 246 l 32 246 q 32 357 71 432 q 110 506 178 544 q 246 581 334 581 z"},"ത":{"ha":924,"x_min":32,"x_max":892,"o":"m 460 -12 l 460 -12 q 397 -12 353 16 q 309 43 286 95 q 263 147 263 220 l 263 220 q 263 285 279 334 q 294 382 326 421 q 357 459 404 493 l 404 493 l 418 524 q 462 553 510 567 q 557 581 610 581 l 610 581 q 694 581 749 556 q 804 530 836 488 q 867 446 880 396 q 892 345 892 296 l 892 296 q 892 232 877 176 q 862 120 838 74 q 813 27 783 -12 l 783 -12 l 655 52 q 676 88 693 126 q 710 163 721 203 q 731 243 731 284 l 731 284 q 731 338 718 378 q 705 418 677 441 q 648 463 600 463 l 600 463 q 582 463 565 460 q 548 457 534 450 l 534 450 l 511 441 q 483 424 463 390 q 442 356 431 311 q 420 266 420 216 l 420 216 q 420 175 425 152 q 430 129 439 120 q 448 110 460 110 l 460 110 q 473 110 482 119 q 491 128 497 152 q 502 175 502 218 l 502 218 q 502 269 491 314 q 480 359 461 393 q 441 426 417 442 l 417 442 l 396 451 q 383 457 367 460 q 350 463 336 463 l 336 463 q 283 463 252 440 q 220 417 207 378 q 193 339 193 291 l 193 291 q 193 248 203 208 q 212 168 229 130 q 245 91 266 53 l 266 53 l 139 -12 q 109 27 85 73 q 60 119 46 175 q 32 231 32 299 l 32 299 q 32 343 45 392 q 58 441 91 484 q 123 527 181 554 q 238 581 327 581 l 327 581 q 380 581 424 568 q 467 555 508 528 l 508 528 l 522 493 q 589 447 624 385 q 659 323 659 219 l 659 219 q 659 141 637 90 q 614 39 570 14 q 525 -12 460 -12 z"},"ഥ":{"ha":797,"x_min":48,"x_max":752,"o":"m 48 569 l 206 569 l 206 122 l 328 122 l 328 0 l 48 0 l 48 569 z m 523 581 l 523 581 q 580 581 620 567 q 660 552 688 524 l 688 524 q 725 487 739 438 q 752 389 752 310 l 752 310 l 752 0 l 291 0 l 291 310 q 291 363 297 402 q 303 440 317 470 q 331 500 355 524 l 355 524 q 383 552 424 567 q 464 581 523 581 z m 521 457 l 521 457 q 505 457 493 452 q 481 446 473 437 l 473 437 q 457 419 453 391 q 449 362 449 309 l 449 309 l 449 122 l 594 122 l 594 309 q 594 362 590 391 q 586 419 570 437 l 570 437 q 562 446 550 452 q 538 457 521 457 z"},"ദ":{"ha":579,"x_min":33,"x_max":551,"o":"m 335 581 l 335 581 q 406 581 452 559 q 498 537 521 500 q 543 462 543 414 l 543 414 q 543 362 523 331 q 502 299 458 278 l 458 278 l 464 287 q 504 271 528 235 q 551 198 551 148 l 551 148 q 551 70 506 29 q 460 -12 366 -12 l 366 -12 q 343 -12 317 -8 q 291 -5 266 2 l 266 2 l 289 118 q 303 114 316 112 q 328 110 341 110 l 341 110 q 367 110 380 123 q 393 136 393 162 l 393 162 q 393 178 388 190 q 382 201 372 208 l 372 208 q 362 216 348 219 q 333 222 307 222 l 307 222 l 286 222 l 286 341 l 303 341 q 327 341 342 345 q 356 349 363 354 l 363 354 q 375 362 380 374 q 385 385 385 401 l 385 401 q 385 427 370 443 q 355 459 327 459 l 327 459 q 283 459 253 429 q 223 398 208 345 q 193 292 193 225 l 193 225 q 193 170 199 121 q 205 71 215 29 l 215 29 l 64 -4 q 50 46 42 109 q 33 171 33 227 l 33 227 q 33 336 67 415 q 100 494 167 538 q 234 581 335 581 z"},"ധ":{"ha":805,"x_min":32,"x_max":773,"o":"m 546 -12 l 546 -12 q 517 -12 491 -5 q 465 2 442 17 q 419 32 397 55 l 397 55 l 414 60 q 378 21 341 5 q 303 -12 253 -12 l 253 -12 q 183 -12 134 23 q 84 57 58 119 q 32 181 32 262 l 32 262 q 32 325 45 380 q 57 434 80 484 q 102 534 131 583 l 131 583 l 264 518 q 243 476 227 437 q 211 397 202 355 q 192 312 192 262 l 192 262 q 192 206 204 173 q 216 140 235 126 q 254 111 273 111 l 273 111 q 283 111 291 114 q 298 116 303 121 l 303 121 q 315 132 320 153 q 324 174 324 221 l 324 221 l 324 569 l 482 569 l 482 221 q 482 175 486 154 q 490 132 502 121 l 502 121 q 507 116 515 114 q 522 111 532 111 l 532 111 q 551 111 570 126 q 588 140 601 174 q 613 207 613 264 l 613 264 q 613 309 604 353 q 595 396 580 438 q 564 479 542 518 l 542 518 l 675 583 q 706 532 728 481 q 749 430 761 376 q 773 322 773 262 l 773 262 q 773 185 748 123 q 723 61 673 25 q 622 -12 546 -12 z"},"ന":{"ha":805,"x_min":32,"x_max":773,"o":"m 259 581 l 259 581 q 289 581 315 574 q 340 567 363 553 q 386 538 408 514 l 408 514 l 391 509 q 427 548 465 565 q 502 581 552 581 l 552 581 q 622 581 672 547 q 721 512 747 451 q 773 389 773 307 l 773 307 q 773 244 761 190 q 748 135 726 86 q 704 36 674 -14 l 674 -14 l 541 51 q 562 93 579 133 q 595 172 604 215 q 613 257 613 307 l 613 307 q 613 363 601 396 q 589 429 571 444 q 552 458 532 458 l 532 458 q 523 458 516 456 q 508 453 502 448 l 502 448 q 490 438 486 417 q 481 395 481 348 l 481 348 l 481 0 l 323 0 l 323 348 q 323 395 319 416 q 315 437 303 448 l 303 448 q 298 453 290 456 q 282 458 273 458 l 273 458 q 254 458 236 444 q 217 429 205 396 q 192 362 192 305 l 192 305 q 192 260 201 217 q 210 173 226 132 q 242 91 263 51 l 263 51 l 130 -14 q 100 37 78 88 q 56 139 44 193 q 32 247 32 307 l 32 307 q 32 384 57 446 q 82 508 133 545 q 183 581 259 581 z"},"ഩ":{"ha":921,"x_min":32,"x_max":889,"o":"m 334 581 l 334 581 q 404 581 453 559 q 502 536 543 481 l 543 481 l 496 500 q 535 547 577 564 q 618 581 668 581 l 668 581 q 738 581 788 547 q 837 512 863 451 q 889 389 889 307 l 889 307 q 889 244 877 190 q 864 135 842 86 q 820 36 790 -14 l 790 -14 l 657 51 q 678 93 695 133 q 711 172 720 215 q 729 257 729 307 l 729 307 q 729 363 717 396 q 705 429 687 444 q 668 458 648 458 l 648 458 q 639 458 632 456 q 624 453 618 448 l 618 448 q 606 438 602 417 q 597 395 597 348 l 597 348 l 597 0 l 439 0 l 439 300 q 439 359 432 389 q 425 419 406 436 l 406 436 q 394 447 377 453 q 359 458 333 458 l 333 458 q 292 458 255 436 q 218 413 195 365 q 172 317 172 240 l 172 240 l 172 234 q 172 178 178 151 q 184 123 195 115 q 205 106 216 106 l 216 106 q 226 106 233 112 q 240 118 244 133 q 248 147 248 173 l 248 173 q 248 213 239 228 q 229 243 212 243 l 212 243 q 192 243 174 226 q 156 208 126 164 l 126 164 l 100 278 q 131 312 170 334 q 209 356 256 356 l 256 356 q 305 356 337 334 q 368 312 384 273 q 399 234 399 184 l 399 184 q 399 121 379 77 q 359 33 319 11 q 279 -12 220 -12 l 220 -12 q 166 -12 124 13 q 81 38 57 95 q 32 151 32 246 l 32 246 q 32 357 71 432 q 110 506 178 544 q 246 581 334 581 z"},"പ":{"ha":785,"x_min":26,"x_max":737,"o":"m 227 372 l 227 372 q 300 372 343 345 q 385 317 404 275 q 423 232 423 187 l 423 187 q 423 159 414 130 q 405 100 391 78 l 391 78 l 385 122 l 579 122 l 579 569 l 737 569 l 737 0 l 296 0 l 249 73 q 258 90 265 116 q 272 141 272 175 l 272 175 q 272 205 263 228 q 254 250 229 250 l 229 250 q 213 250 203 240 q 193 230 189 214 q 184 197 184 177 l 184 177 q 184 134 195 104 q 206 74 222 42 l 222 42 l 96 -13 q 66 28 46 74 q 26 120 26 181 l 26 181 q 26 239 50 282 q 74 324 120 348 q 165 372 227 372 z"},"ഫ":{"ha":989,"x_min":26,"x_max":944,"o":"m 227 372 l 227 372 q 300 372 343 345 q 385 317 404 275 q 423 232 423 187 l 423 187 q 423 159 414 130 q 405 100 391 78 l 391 78 l 385 122 l 532 122 l 532 0 l 296 0 l 249 73 q 258 90 265 116 q 272 141 272 175 l 272 175 q 272 205 263 228 q 254 250 229 250 l 229 250 q 213 250 203 240 q 193 230 189 214 q 184 197 184 177 l 184 177 q 184 134 195 104 q 206 74 222 42 l 222 42 l 96 -13 q 66 28 46 74 q 26 120 26 181 l 26 181 q 26 239 50 282 q 74 324 120 348 q 165 372 227 372 z m 715 581 l 715 581 q 772 581 812 567 q 852 552 880 524 l 880 524 q 917 487 931 438 q 944 389 944 310 l 944 310 l 944 0 l 483 0 l 483 310 q 483 363 489 402 q 495 440 509 470 q 523 500 547 524 l 547 524 q 575 552 616 567 q 656 581 715 581 z m 713 457 l 713 457 q 697 457 685 452 q 673 446 665 437 l 665 437 q 649 419 645 391 q 641 362 641 309 l 641 309 l 641 122 l 786 122 l 786 309 q 786 362 782 391 q 778 419 762 437 l 762 437 q 754 446 742 452 q 730 457 713 457 z"},"ബ":{"ha":1169,"x_min":32,"x_max":1121,"o":"m 334 581 l 334 581 q 404 581 453 559 q 502 536 544 480 l 544 480 l 571 404 l 597 317 l 597 0 l 439 0 l 439 300 q 439 359 432 389 q 425 419 406 436 l 406 436 q 394 447 377 453 q 359 458 333 458 l 333 458 q 292 458 255 436 q 218 413 195 365 q 172 317 172 240 l 172 240 l 172 234 q 172 178 178 151 q 184 123 195 115 q 205 106 216 106 l 216 106 q 226 106 233 112 q 240 118 244 133 q 248 148 248 173 l 248 173 q 248 213 239 228 q 229 243 212 243 l 212 243 q 192 243 174 226 q 156 208 126 164 l 126 164 l 100 278 q 131 312 170 334 q 209 356 256 356 l 256 356 q 305 356 337 334 q 368 312 384 273 q 399 234 399 184 l 399 184 q 399 121 379 77 q 359 33 319 11 q 279 -12 220 -12 l 220 -12 q 166 -12 124 13 q 81 38 57 95 q 32 151 32 246 l 32 246 q 32 357 71 432 q 110 506 178 544 q 246 581 334 581 z m 963 569 l 1121 569 l 1121 0 l 744 0 l 669 74 q 692 120 705 158 q 718 196 724 232 q 729 268 729 307 l 729 307 q 729 363 717 396 q 705 429 687 444 q 668 458 648 458 l 648 458 q 639 458 632 456 q 624 453 618 448 l 618 448 q 606 438 602 417 q 597 395 597 348 l 597 348 l 597 10 l 459 10 l 459 232 l 482 424 l 496 500 q 535 547 577 564 q 618 581 668 581 l 668 581 q 738 581 788 547 q 837 512 863 451 q 889 389 889 307 l 889 307 q 889 264 883 229 q 876 193 865 163 q 853 133 837 104 l 837 104 l 809 122 l 963 122 l 963 569 z"},"ഭ":{"ha":626,"x_min":33,"x_max":602,"o":"m 375 581 l 375 581 q 446 581 497 563 q 547 545 575 510 q 602 475 602 424 l 602 424 q 602 394 592 369 q 582 343 559 327 l 559 327 q 538 312 506 307 q 474 302 434 302 l 434 302 l 432 302 q 422 302 416 301 q 409 299 404 296 l 404 296 q 400 293 398 289 q 395 284 395 278 l 395 278 q 395 263 407 260 q 418 257 427 257 l 427 257 l 429 257 q 469 257 499 250 q 529 243 550 229 l 550 229 q 574 213 587 188 q 600 163 600 129 l 600 129 q 600 90 582 58 q 564 26 522 7 q 479 -12 407 -12 l 407 -12 q 378 -12 349 -8 q 320 -5 293 2 q 266 8 241 17 l 241 17 l 287 124 q 319 114 346 109 q 372 104 400 104 l 400 104 q 429 104 442 111 q 454 117 454 130 l 454 130 q 454 140 447 146 q 439 151 420 151 l 420 151 l 418 151 q 372 151 342 158 q 312 165 290 183 l 290 183 q 271 199 260 224 q 249 248 249 277 l 249 277 q 249 312 262 335 q 274 358 295 373 l 295 373 q 317 388 346 396 q 374 403 417 403 l 417 403 l 419 403 q 439 403 446 408 q 453 413 453 424 l 453 424 q 453 441 434 451 q 414 460 376 460 l 376 460 q 308 460 268 432 q 227 403 210 351 q 193 298 193 225 l 193 225 q 193 170 199 121 q 205 71 215 29 l 215 29 l 64 -4 q 50 46 42 109 q 33 171 33 227 l 33 227 q 33 335 67 415 q 100 494 176 538 q 251 581 375 581 z"},"മ":{"ha":684,"x_min":43,"x_max":641,"o":"m 336 581 l 336 581 q 419 581 474 562 q 529 542 565 506 l 565 506 q 590 481 607 449 q 624 416 633 370 q 641 323 641 254 l 641 254 l 641 0 l 43 0 l 43 252 q 43 326 53 374 q 62 422 81 455 q 99 487 125 511 l 125 511 q 160 545 214 563 q 267 581 336 581 z m 255 450 l 255 450 q 244 450 236 444 q 227 437 220 426 l 220 426 q 210 409 204 379 q 198 349 198 286 l 198 286 l 198 68 l 168 69 q 201 116 229 170 q 256 224 273 280 q 289 336 289 388 l 289 388 q 289 411 285 425 q 281 438 274 444 q 266 450 255 450 z m 444 352 l 444 352 q 444 310 435 271 q 425 232 407 194 q 388 155 361 112 l 361 112 l 356 118 q 371 120 392 121 q 412 121 433 121 l 433 121 l 486 121 l 486 280 q 486 341 476 379 q 465 416 445 438 q 425 459 395 470 l 395 470 l 394 475 q 419 453 432 421 q 444 389 444 352 z"},"യ":{"ha":932,"x_min":32,"x_max":898,"o":"m 597 -12 l 597 -12 q 544 -12 497 3 q 449 17 411 45 l 411 45 q 405 50 402 61 q 398 71 392 76 l 392 76 q 350 109 322 152 q 293 195 279 245 q 265 295 265 349 l 265 349 q 265 389 273 422 q 281 454 294 479 l 294 479 l 325 525 q 341 543 363 556 q 384 568 412 575 q 439 581 469 581 l 469 581 q 570 581 621 518 q 671 454 671 350 l 671 350 q 671 253 633 179 q 594 105 531 61 l 531 61 q 524 57 517 49 q 509 40 502 35 l 502 35 q 462 12 423 0 q 383 -12 334 -12 l 334 -12 q 253 -12 196 16 q 138 43 102 91 q 66 138 49 198 q 32 258 32 324 l 32 324 q 32 402 56 460 q 80 517 130 549 q 179 581 253 581 l 253 581 q 306 581 349 555 q 391 528 420 478 l 420 478 l 316 416 q 303 440 288 451 q 272 461 257 461 l 257 461 q 236 461 221 447 q 206 432 198 404 q 190 375 190 333 l 190 333 q 190 261 209 210 q 228 159 262 132 q 295 105 338 105 l 338 105 q 358 105 375 110 q 392 114 408 122 l 408 122 q 415 126 421 128 q 427 129 433 133 l 433 133 q 462 157 480 194 q 498 230 506 272 q 514 314 514 352 l 514 352 q 514 393 508 417 q 502 440 492 450 q 481 459 469 459 l 469 459 q 457 459 446 451 q 435 443 429 420 q 422 397 422 352 l 422 352 q 422 318 429 279 q 436 239 450 203 q 463 167 484 143 l 484 143 q 491 136 502 132 q 513 127 522 122 l 522 122 q 537 115 555 111 q 572 106 592 106 l 592 106 q 642 106 674 128 q 706 150 722 195 q 737 239 737 306 l 737 306 q 737 360 722 414 q 707 468 680 523 l 680 523 l 819 582 q 859 517 879 450 q 898 382 898 311 l 898 311 q 898 252 885 195 q 872 137 840 91 q 807 44 748 16 q 689 -12 597 -12 z"},"ര":{"ha":677,"x_min":32,"x_max":647,"o":"m 337 581 l 337 581 q 417 581 476 554 q 534 526 572 479 q 610 431 629 369 q 647 307 647 237 l 647 237 q 647 151 625 96 q 602 40 558 14 q 513 -12 445 -12 l 445 -12 q 378 -12 337 17 q 296 45 278 94 q 259 143 259 203 l 259 203 q 259 304 301 356 q 342 407 418 407 l 418 407 q 463 407 495 380 q 527 352 548 310 q 568 267 576 222 l 576 222 l 515 216 q 511 241 504 259 q 496 277 485 288 q 473 298 456 298 l 456 298 q 435 298 424 278 q 412 257 412 201 l 412 201 q 412 166 417 146 q 422 125 431 117 q 439 108 449 108 l 449 108 q 464 108 474 118 q 483 127 488 154 q 492 181 492 231 l 492 231 q 492 254 491 272 q 490 290 488 305 l 488 305 q 488 309 488 319 q 487 328 486 332 l 486 332 q 482 364 463 393 q 443 421 412 439 q 380 457 340 457 l 340 457 q 292 457 260 438 q 227 418 211 381 q 194 343 194 289 l 194 289 q 194 244 204 204 q 213 164 230 126 q 247 87 270 49 l 270 49 l 142 -14 q 110 25 85 71 q 60 117 46 173 q 32 229 32 298 l 32 298 q 32 353 50 404 q 67 454 104 494 q 141 534 199 558 q 257 581 337 581 z"},"റ":{"ha":604,"x_min":31,"x_max":573,"o":"m 303 581 l 303 581 q 380 581 432 557 q 484 533 515 492 q 546 451 560 401 q 573 350 573 296 l 573 296 q 573 231 558 175 q 543 119 518 72 q 492 25 461 -14 l 461 -14 l 332 51 q 356 88 374 127 q 391 166 401 208 q 410 249 410 295 l 410 295 q 410 343 399 380 q 388 416 365 437 q 342 457 306 457 l 306 457 q 272 457 247 438 q 221 419 208 383 q 194 346 194 295 l 194 295 q 194 247 204 206 q 213 165 230 127 q 247 89 270 51 l 270 51 l 141 -14 q 109 25 84 71 q 59 116 45 173 q 31 229 31 298 l 31 298 q 31 347 45 397 q 58 446 89 488 q 120 530 173 556 q 225 581 303 581 z"},"ല":{"ha":759,"x_min":45,"x_max":711,"o":"m 553 569 l 711 569 l 711 0 l 45 0 l 45 305 q 45 386 60 437 q 75 487 106 520 l 106 520 q 133 549 174 565 q 214 581 270 581 l 270 581 q 329 581 371 565 q 413 548 439 517 l 439 517 q 468 483 481 434 q 494 385 494 307 l 494 307 l 494 210 l 202 210 l 202 122 l 553 122 l 553 569 z m 270 459 l 270 459 q 233 459 218 433 q 202 406 202 350 l 202 350 l 202 331 l 337 331 l 337 349 q 337 405 321 432 q 304 459 270 459 z"},"ള":{"ha":662,"x_min":29,"x_max":635,"o":"m 351 461 l 351 461 q 315 461 285 455 q 254 448 230 438 q 205 427 189 415 q 172 402 165 389 l 165 389 q 160 379 162 372 q 163 365 161 354 l 161 354 q 161 347 160 332 q 158 317 158 303 l 158 303 q 158 269 167 255 q 175 241 189 241 l 189 241 q 204 241 212 254 q 219 266 219 288 l 219 288 q 219 304 215 314 q 211 324 204 329 q 196 333 187 333 l 187 333 q 175 333 163 327 q 151 320 134 303 l 134 303 l 87 350 q 107 372 130 389 q 152 406 178 416 q 204 426 232 426 l 232 426 q 274 426 303 409 q 332 392 347 361 q 361 329 361 284 l 361 284 q 361 245 347 210 q 333 175 298 153 q 262 131 199 131 l 199 131 q 148 131 110 152 q 71 172 50 214 q 29 256 29 319 l 29 319 q 29 370 47 417 q 64 464 103 501 q 142 538 206 560 q 269 581 361 581 l 361 581 q 442 581 502 560 q 561 538 594 499 q 627 459 627 405 l 627 405 q 627 356 604 324 q 581 292 536 276 q 491 259 425 258 l 425 258 l 394 319 l 394 341 l 396 341 q 413 341 428 345 q 442 348 452 355 l 452 355 q 460 361 465 371 q 469 380 469 393 l 469 393 q 469 416 452 431 q 435 446 408 454 q 381 461 351 461 z m 635 157 l 635 157 q 635 113 617 83 q 599 52 573 34 l 573 34 q 553 21 529 14 q 504 6 474 3 q 443 0 406 0 l 406 0 l 284 0 q 250 0 235 -2 q 219 -4 210 -9 l 210 -9 q 200 -14 195 -21 q 190 -29 190 -40 l 190 -40 q 190 -50 195 -58 q 199 -66 207 -71 l 207 -71 q 216 -77 233 -80 q 249 -83 284 -83 l 284 -83 l 621 -83 l 621 -206 l 294 -206 q 218 -206 178 -199 q 138 -192 109 -177 l 109 -177 q 74 -159 53 -126 q 31 -94 31 -45 l 31 -45 q 31 -2 47 29 q 63 60 91 80 l 91 80 q 114 96 141 105 q 167 114 204 118 q 241 122 296 122 l 296 122 l 391 122 q 420 122 436 124 q 451 126 461 134 l 461 134 q 469 140 473 150 q 477 159 477 172 l 477 172 q 477 187 470 198 q 463 208 452 214 l 452 214 q 442 219 430 221 q 417 223 396 223 l 396 223 l 394 223 l 394 333 l 548 288 q 589 272 612 238 q 635 204 635 157 z"},"ഴ":{"ha":626,"x_min":27,"x_max":599,"o":"m 230 418 l 230 418 q 230 491 276 536 q 321 581 409 581 l 409 581 q 477 581 519 554 q 560 527 580 486 q 599 444 599 402 l 599 402 q 599 328 571 274 q 543 220 487 191 q 431 161 347 161 l 347 161 l 308 161 q 225 161 162 189 q 98 217 63 272 q 27 326 27 404 l 27 404 q 27 448 41 493 q 54 538 76 581 l 76 581 l 216 529 q 203 499 195 469 q 187 439 187 409 l 187 409 q 187 361 203 330 q 218 298 248 283 q 278 267 321 267 l 321 267 l 338 267 q 376 267 399 286 q 422 305 433 337 q 444 369 444 407 l 444 407 q 444 442 435 455 q 425 468 411 468 l 411 468 q 403 468 396 463 q 389 457 385 446 q 381 435 381 418 l 381 418 q 381 390 392 359 q 403 327 417 292 q 431 257 442 219 q 453 180 453 137 l 453 137 q 453 100 439 66 q 424 31 388 10 q 351 -12 285 -12 l 285 -12 q 248 -12 210 -5 q 172 1 134 17 l 134 17 l 182 128 q 204 118 222 115 q 240 111 256 111 l 256 111 q 282 111 292 127 q 302 143 302 161 l 302 161 q 302 191 291 223 q 280 254 266 287 q 252 319 241 352 q 230 385 230 418 z"},"വ":{"ha":851,"x_min":31,"x_max":803,"o":"m 303 581 l 303 581 q 380 581 432 557 q 484 533 515 493 q 545 453 558 404 q 571 354 571 303 l 571 303 q 571 249 559 204 q 547 159 524 118 q 501 76 468 35 l 468 35 l 517 122 l 645 122 l 645 569 l 803 569 l 803 0 l 420 0 l 345 74 q 362 102 377 136 q 391 170 401 210 q 410 250 410 295 l 410 295 q 410 343 399 380 q 388 416 365 437 q 342 457 306 457 l 306 457 q 272 457 247 438 q 221 419 208 383 q 194 346 194 295 l 194 295 q 194 247 204 206 q 213 165 230 127 q 247 88 270 50 l 270 50 l 141 -15 q 109 24 84 70 q 59 116 45 173 q 31 229 31 298 l 31 298 q 31 347 45 397 q 58 446 89 488 q 120 530 173 556 q 225 581 303 581 z"},"ശ":{"ha":933,"x_min":32,"x_max":903,"o":"m 586 581 l 586 581 q 667 581 727 554 q 787 526 826 479 q 865 431 884 369 q 903 307 903 237 l 903 237 q 903 151 881 96 q 858 40 814 14 q 769 -12 701 -12 l 701 -12 q 634 -12 593 17 q 552 45 534 94 q 515 143 515 203 l 515 203 q 515 304 557 356 q 598 407 674 407 l 674 407 q 719 407 751 380 q 783 352 804 310 q 824 267 832 222 l 832 222 l 771 216 q 767 241 760 259 q 752 277 741 288 q 729 298 712 298 l 712 298 q 691 298 680 278 q 668 257 668 201 l 668 201 q 668 166 673 146 q 678 125 687 117 q 695 108 705 108 l 705 108 q 720 108 730 118 q 739 127 744 154 q 748 181 748 231 l 748 231 q 748 254 747 272 q 746 290 744 305 l 744 305 q 744 309 744 319 q 743 328 742 332 l 742 332 q 738 364 718 393 q 698 421 668 439 q 637 457 598 457 l 598 457 q 573 457 554 452 q 534 447 518 435 l 518 435 q 496 417 486 386 q 476 354 476 286 l 476 286 l 476 233 q 476 157 462 112 q 447 66 415 37 l 415 37 q 387 12 350 0 q 313 -12 263 -12 l 263 -12 q 185 -12 134 23 q 83 57 58 119 q 32 181 32 262 l 32 262 q 32 325 45 380 q 57 434 80 484 q 102 533 131 582 l 131 582 l 264 518 q 243 476 227 437 q 211 397 202 355 q 192 312 192 262 l 192 262 q 192 205 203 172 q 213 139 230 125 q 247 111 266 111 l 266 111 q 277 111 286 115 q 294 118 300 125 l 300 125 q 310 136 313 153 q 316 169 316 206 l 316 206 l 316 308 q 316 396 343 453 q 369 509 419 540 l 419 540 q 451 560 493 571 q 535 581 586 581 z"},"ഷ":{"ha":1059,"x_min":26,"x_max":1011,"o":"m 227 372 l 227 372 q 300 372 343 345 q 385 317 404 275 q 423 232 423 187 l 423 187 q 423 159 414 130 q 405 100 391 78 l 391 78 l 385 122 l 616 122 l 617 0 l 296 0 l 249 73 q 258 90 265 116 q 272 141 272 175 l 272 175 q 272 205 263 228 q 254 250 229 250 l 229 250 q 213 250 203 240 q 193 230 189 214 q 184 197 184 177 l 184 177 q 184 134 195 104 q 206 74 222 42 l 222 42 l 96 -13 q 66 28 46 74 q 26 120 26 181 l 26 181 q 26 239 50 282 q 74 324 120 348 q 165 372 227 372 z m 1011 0 l 593 0 l 593 415 q 593 428 592 439 q 591 449 586 455 l 586 455 q 583 459 579 461 q 575 462 570 462 l 570 462 q 557 462 550 450 q 542 438 542 415 l 542 415 q 542 391 548 374 q 554 357 572 348 q 589 338 622 338 l 622 338 l 659 338 q 699 338 731 361 q 763 383 788 419 q 812 454 830 494 q 847 534 858 569 l 858 569 l 1011 569 l 1011 0 z m 579 581 l 579 581 q 620 581 648 572 q 676 562 696 545 l 696 545 q 722 523 734 486 q 745 449 745 397 l 745 397 l 745 122 l 857 122 l 857 268 q 857 290 858 310 q 859 329 861 347 q 862 364 864 379 l 864 379 l 867 366 q 852 326 821 294 q 790 261 750 243 q 710 224 666 224 l 666 224 l 614 224 q 539 224 493 250 q 446 276 424 319 q 402 362 402 412 l 402 412 q 402 457 422 496 q 442 534 482 558 q 521 581 579 581 z"},"സ":{"ha":1069,"x_min":32,"x_max":1037,"o":"m 545 581 l 545 581 q 590 581 627 568 q 663 554 688 531 l 688 531 q 709 512 723 486 q 737 459 744 422 q 750 385 750 332 l 750 332 l 750 206 q 750 169 755 152 q 759 134 769 124 l 769 124 q 775 117 784 114 q 793 111 803 111 l 803 111 q 823 111 840 125 q 856 139 867 172 q 877 205 877 262 l 877 262 q 877 312 868 355 q 859 397 843 437 q 826 476 805 518 l 805 518 l 938 582 q 968 533 990 484 q 1012 434 1025 380 q 1037 325 1037 262 l 1037 262 q 1037 181 1012 119 q 986 57 935 23 q 883 -12 806 -12 l 806 -12 q 755 -12 720 0 q 684 11 655 36 l 655 36 q 634 55 620 82 q 606 108 599 146 q 592 183 592 233 l 592 233 l 592 354 q 592 393 588 414 q 583 434 571 445 l 571 445 q 564 451 556 455 q 547 458 536 458 l 536 458 q 525 458 517 455 q 508 451 501 445 l 501 445 q 489 434 485 414 q 480 394 480 356 l 480 356 l 480 0 l 322 0 l 322 348 q 322 390 319 413 q 315 435 301 447 l 301 447 q 296 452 288 455 q 280 458 271 458 l 271 458 q 253 458 235 444 q 217 430 205 397 q 192 364 192 307 l 192 307 q 192 262 201 220 q 210 177 226 136 q 242 95 263 53 l 263 53 l 130 -12 q 101 38 79 87 q 56 136 44 190 q 32 244 32 307 l 32 307 q 32 389 59 451 q 85 512 135 547 q 184 581 253 581 l 253 581 q 302 581 339 565 q 376 548 412 509 l 412 509 l 384 500 q 416 542 455 562 q 493 581 545 581 z"},"ഹ":{"ha":1049,"x_min":26,"x_max":1018,"o":"m 227 372 l 227 372 q 300 372 343 345 q 385 317 404 275 q 423 232 423 187 l 423 187 q 423 159 414 130 q 405 100 391 78 l 391 78 l 385 122 l 579 122 l 618 0 l 296 0 l 249 73 q 258 90 265 116 q 272 141 272 175 l 272 175 q 272 205 263 228 q 254 250 229 250 l 229 250 q 213 250 203 240 q 193 230 189 214 q 184 197 184 177 l 184 177 q 184 134 195 104 q 206 74 222 42 l 222 42 l 96 -13 q 66 28 46 74 q 26 120 26 181 l 26 181 q 26 239 50 282 q 74 324 120 348 q 165 372 227 372 z m 748 581 l 748 581 q 825 581 877 557 q 929 533 960 492 q 991 451 1005 401 q 1018 350 1018 296 l 1018 296 q 1018 230 1003 174 q 988 118 963 71 q 937 24 906 -15 l 906 -15 l 777 50 q 801 87 819 126 q 836 165 846 207 q 855 249 855 295 l 855 295 q 855 343 844 380 q 833 416 810 437 q 787 457 751 457 l 751 457 q 717 457 692 438 q 666 419 653 383 q 639 346 639 295 l 639 295 q 639 249 648 211 q 657 172 672 139 q 686 105 702 74 l 702 74 l 629 0 l 576 0 l 559 65 q 537 95 518 130 q 499 164 488 207 q 476 250 476 305 l 476 305 q 476 351 489 400 q 502 448 533 489 q 564 530 617 556 q 669 581 748 581 z"},"ഺ":{"ha":603,"x_min":14,"x_max":584,"o":"m 193 122 l 584 122 l 584 0 l 402 0 l 402 -202 l 245 -202 l 245 0 l 97 0 l 14 105 l 190 580 l 347 530 l 193 122 z"},"഻":{"ha":0,"x_min":-332,"x_max":-227,"o":"m -332 603 l -332 864 l -227 864 l -227 603 l -332 603 z"},"഼":{"ha":0,"x_min":-258,"x_max":13,"o":"m -258 729 l -258 729 q -258 788 -224 826 q -190 864 -123 864 l -123 864 q -56 864 -21 826 q 13 788 13 729 l 13 729 q 13 669 -21 631 q -55 593 -123 593 l -123 593 q -191 593 -224 631 q -258 668 -258 729 z m -155 729 l -155 729 q -155 705 -147 693 q -139 681 -123 681 l -123 681 q -106 681 -98 693 q -90 705 -90 729 l -90 729 q -90 752 -98 764 q -106 776 -123 776 l -123 776 q -139 776 -147 764 q -155 752 -155 729 z"},"ഽ":{"ha":443,"x_min":-54,"x_max":497,"o":"m 328 805 l 328 805 q 382 805 415 783 q 448 760 467 724 q 486 688 497 647 l 497 647 l 363 619 q 359 643 355 657 q 350 671 344 677 q 338 683 330 683 l 330 683 q 324 683 320 681 q 315 679 312 675 l 312 675 q 306 668 304 654 q 301 640 301 611 l 301 611 l 301 -8 q 301 -70 289 -122 q 277 -174 233 -208 l 233 -208 q 211 -224 183 -234 q 154 -244 115 -244 l 115 -244 q 61 -244 28 -221 q -5 -199 -23 -163 q -42 -127 -54 -86 l -54 -86 l 80 -58 q 84 -82 89 -96 q 93 -110 99 -116 q 105 -122 113 -122 l 113 -122 q 119 -122 124 -120 q 128 -118 131 -114 l 131 -114 q 137 -107 140 -92 q 142 -78 142 -50 l 142 -50 l 142 569 q 142 631 154 683 q 166 735 210 769 l 210 769 q 232 786 261 796 q 289 805 328 805 z"},"ാ":{"ha":478,"x_min":12,"x_max":445,"o":"m 445 287 l 445 287 q 445 214 434 158 q 423 102 398 65 q 372 27 330 8 q 288 -12 226 -12 l 226 -12 q 166 -12 128 5 q 89 21 66 49 q 43 77 31 113 q 19 148 12 186 l 12 186 l 171 215 q 177 180 185 157 q 192 133 203 122 q 214 110 231 110 l 231 110 q 250 110 262 129 q 273 147 279 187 q 284 226 284 290 l 284 290 q 284 349 279 386 q 273 423 262 441 q 250 459 231 459 l 231 459 q 216 459 205 448 q 194 436 187 413 q 179 390 173 354 l 173 354 l 14 384 q 24 423 39 459 q 54 494 79 522 q 103 549 141 565 q 178 581 234 581 l 234 581 q 295 581 336 560 q 377 538 401 499 q 425 459 435 406 q 445 352 445 287 z"},"ി":{"ha":254,"x_min":-217,"x_max":206,"o":"m -11 853 l -11 853 q 34 853 71 841 q 108 828 133 805 l 133 805 q 162 781 178 747 q 193 713 200 670 q 206 626 206 571 l 206 571 l 206 0 l 48 0 l 48 551 q 48 591 46 624 q 44 657 38 682 q 31 706 19 718 l 19 718 q 12 725 4 728 q -4 731 -15 731 l -15 731 q -31 731 -41 724 q -51 716 -55 705 q -60 693 -60 679 l -60 679 q -60 666 -58 655 q -57 644 -55 637 l -55 637 l -210 618 q -213 631 -215 648 q -217 664 -217 682 l -217 682 q -217 739 -192 777 q -167 815 -121 834 q -75 853 -11 853 z"},"ീ":{"ha":254,"x_min":-263,"x_max":206,"o":"m -72 853 l -72 853 q -14 853 32 838 q 78 823 115 794 l 115 794 q 168 752 187 690 q 206 627 206 531 l 206 531 l 206 0 l 48 0 l 48 515 q 48 582 43 624 q 38 666 28 691 q 17 716 -1 731 l -1 731 q -22 745 -47 751 q -72 757 -98 757 l -98 757 q -112 757 -123 753 q -134 748 -139 739 q -145 729 -145 714 l -145 714 q -145 698 -138 690 q -131 682 -119 682 l -119 682 q -105 682 -99 692 q -93 701 -93 716 l -93 716 q -93 742 -107 761 q -121 780 -140 794 l -140 794 l -19 780 q -8 770 0 748 q 8 725 8 700 l 8 700 q 8 669 -6 643 q -20 616 -48 600 q -77 583 -122 583 l -122 583 q -166 583 -198 598 q -230 613 -246 642 q -263 670 -263 712 l -263 712 q -263 752 -243 784 q -223 815 -181 834 q -139 853 -72 853 z"},"ു":{"ha":337,"x_min":-21,"x_max":344,"o":"m 161 -241 l 161 -241 q 69 -241 24 -188 q -21 -135 -21 -53 l -21 -53 q -21 3 -2 46 q 16 88 56 112 q 96 136 160 136 l 160 136 q 223 136 264 113 q 304 89 324 46 q 344 3 344 -55 l 344 -55 q 344 -111 324 -153 q 303 -195 263 -218 q 222 -241 161 -241 z m 162 -125 l 162 -125 q 181 -125 192 -108 q 203 -92 203 -53 l 203 -53 q 203 -15 193 3 q 183 20 163 20 l 163 20 q 141 20 131 3 q 120 -15 120 -53 l 120 -53 q 120 -90 131 -107 q 141 -125 162 -125 z m 133 581 l 133 581 q 190 581 226 557 q 262 532 279 492 q 295 451 295 403 l 295 403 q 295 329 281 260 q 267 190 241 104 l 241 104 l 95 119 q 112 191 124 257 q 135 322 135 389 l 135 389 q 135 418 125 438 q 114 457 86 457 l 86 457 q 77 457 67 456 q 56 454 46 452 l 46 452 l 22 567 q 45 572 72 577 q 99 581 133 581 z"},"ൂ":{"ha":337,"x_min":-21,"x_max":344,"o":"m 162 -241 l 162 -241 q 69 -241 24 -188 q -21 -135 -21 -53 l -21 -53 q -21 3 -2 46 q 16 88 56 112 q 96 136 160 136 l 160 136 q 223 136 264 113 q 304 89 324 46 q 344 3 344 -55 l 344 -55 q 344 -111 324 -153 q 303 -195 263 -218 q 222 -241 162 -241 z m 161 39 l 161 39 q 134 39 111 19 q 87 -2 87 -53 l 87 -53 q 87 -105 109 -125 q 131 -146 162 -146 l 162 -146 q 192 -146 214 -127 q 236 -108 236 -53 l 236 -53 q 236 -3 215 18 q 193 39 161 39 z m 163 -101 l 163 -101 q 117 -101 92 -71 q 67 -42 67 16 l 67 16 q 67 34 77 56 q 86 77 103 102 l 103 102 l 152 76 q 140 64 127 53 q 113 42 113 25 l 113 25 q 113 9 121 0 q 128 -9 140 -13 q 151 -17 162 -17 l 162 -17 q 180 -17 191 -11 q 202 -5 207 5 q 212 14 212 23 l 212 23 q 212 36 203 50 q 194 63 177 73 l 177 73 l 224 102 q 243 78 251 58 q 258 37 258 15 l 258 15 q 258 -18 248 -44 q 238 -70 217 -85 q 196 -101 163 -101 z m 133 581 l 133 581 q 190 581 226 557 q 262 532 279 492 q 295 451 295 403 l 295 403 q 295 329 281 260 q 267 190 241 104 l 241 104 l 95 119 q 112 191 124 257 q 135 322 135 389 l 135 389 q 135 418 125 438 q 114 457 86 457 l 86 457 q 77 457 67 456 q 56 454 46 452 l 46 452 l 22 567 q 45 572 72 577 q 99 581 133 581 z"},"ൃ":{"ha":276,"x_min":-136,"x_max":275,"o":"m 60 -336 l 60 -336 q 0 -336 -44 -318 q -88 -301 -112 -264 q -136 -227 -136 -171 l -136 -171 q -136 -106 -91 -64 q -47 -22 37 -22 l 37 -22 q 84 -22 123 -39 q 161 -57 189 -85 l 189 -85 l 142 -173 q 121 -155 100 -145 q 79 -135 56 -135 l 56 -135 q 35 -135 23 -146 q 11 -157 11 -176 l 11 -176 q 11 -195 23 -205 q 35 -216 56 -216 l 56 -216 q 79 -216 93 -205 q 107 -194 114 -173 q 121 -153 121 -123 l 121 -123 q 121 -103 119 -80 q 116 -57 107 -19 q 97 19 77 82 l 77 82 q 58 142 47 196 q 35 250 35 311 l 35 311 q 35 388 54 452 q 72 515 98 569 l 98 569 l 261 569 q 239 520 224 479 q 209 437 202 399 q 194 361 194 319 l 194 319 q 194 273 203 229 q 211 185 227 132 l 227 132 q 245 74 256 30 q 266 -14 271 -49 q 275 -84 275 -118 l 275 -118 q 275 -196 247 -244 q 219 -292 171 -314 q 122 -336 60 -336 z"},"ൄ":{"ha":276,"x_min":-242,"x_max":275,"o":"m -7 -336 l -7 -336 q -82 -336 -134 -314 q -187 -292 -214 -251 q -242 -211 -242 -154 l -242 -154 q -242 -96 -209 -59 q -176 -22 -120 -22 l -120 -22 q -89 -22 -71 -35 q -53 -48 -38 -71 l -38 -71 l -61 -64 q -47 -44 -27 -33 q -8 -22 14 -22 l 14 -22 q 43 -22 61 -32 q 78 -43 87 -60 q 96 -77 99 -96 q 102 -116 102 -134 l 102 -134 l 102 -173 l 24 -173 l 24 -154 q 24 -137 19 -130 q 13 -124 5 -124 l 5 -124 q -3 -124 -8 -130 q -14 -137 -14 -153 l -14 -153 l -14 -173 l -90 -173 l -90 -153 q -90 -137 -94 -130 q -99 -124 -107 -124 l -107 -124 q -117 -124 -122 -131 q -127 -138 -127 -152 l -127 -152 q -127 -185 -96 -202 q -66 -219 -9 -219 l -9 -219 q 52 -219 85 -197 q 117 -176 117 -119 l 117 -119 q 117 -99 115 -75 q 113 -51 105 -14 q 96 23 77 82 l 77 82 q 58 142 47 196 q 35 250 35 311 l 35 311 q 35 388 54 452 q 72 515 98 569 l 98 569 l 261 569 q 239 520 224 479 q 209 437 202 399 q 194 361 194 319 l 194 319 q 194 273 203 229 q 211 185 227 132 l 227 132 q 245 74 256 31 q 266 -12 271 -47 q 275 -82 275 -118 l 275 -118 q 275 -181 246 -230 q 217 -279 155 -307 q 93 -336 -7 -336 z"},"െ":{"ha":660,"x_min":32,"x_max":628,"o":"m 221 -12 l 221 -12 q 167 -12 124 13 q 81 37 57 92 q 32 146 32 236 l 32 236 q 32 309 52 372 q 72 435 111 482 q 150 529 209 555 q 267 581 343 581 l 343 581 q 427 581 483 555 q 538 529 570 487 q 601 444 615 394 q 628 343 628 293 l 628 293 q 628 230 613 174 q 597 118 572 71 q 547 24 516 -15 l 516 -15 l 387 50 q 411 87 429 125 q 446 163 456 204 q 465 244 465 289 l 465 289 q 465 340 452 378 q 438 416 410 437 q 381 458 334 458 l 334 458 q 287 458 250 431 q 213 403 193 353 q 172 302 172 234 l 172 234 q 172 178 178 151 q 184 123 195 115 q 205 106 216 106 l 216 106 q 226 106 233 112 q 240 118 244 133 q 248 147 248 173 l 248 173 q 248 213 239 228 q 229 243 212 243 l 212 243 q 192 243 174 226 q 156 208 126 164 l 126 164 l 100 278 q 131 312 170 334 q 209 356 256 356 l 256 356 q 305 356 337 334 q 368 312 384 273 q 399 234 399 184 l 399 184 q 399 123 379 80 q 359 36 320 12 q 280 -12 221 -12 z"},"േ":{"ha":561,"x_min":32,"x_max":535,"o":"m 321 -12 l 321 -12 q 255 -12 202 5 q 149 21 111 57 q 73 93 53 150 q 32 207 32 288 l 32 288 q 32 361 53 416 q 74 470 114 507 q 153 544 209 563 q 265 581 335 581 l 335 581 q 411 581 455 560 q 498 538 517 503 q 535 468 535 427 l 535 427 q 535 382 516 352 q 497 321 464 306 q 431 291 388 291 l 388 291 q 332 291 300 309 q 268 327 255 357 q 242 387 242 422 l 242 422 q 242 443 250 467 q 257 490 264 502 l 264 502 l 380 509 q 367 492 359 472 q 350 452 350 431 l 350 431 q 350 410 359 401 q 367 392 379 392 l 379 392 q 393 392 400 401 q 406 410 406 426 l 406 426 q 406 443 395 460 q 384 476 355 476 l 355 476 q 344 476 329 476 q 314 475 303 475 l 303 475 q 267 470 241 446 q 215 422 201 382 q 187 342 187 287 l 187 287 q 187 231 197 191 q 206 150 230 126 q 254 102 296 94 l 296 94 q 306 94 321 94 q 335 93 347 93 l 347 93 q 368 93 380 101 q 391 108 396 119 q 400 130 400 142 l 400 142 q 400 159 394 169 q 387 178 373 178 l 373 178 q 360 178 352 169 q 344 159 344 138 l 344 138 q 344 115 351 97 q 357 79 373 59 l 373 59 l 248 79 q 244 90 240 109 q 236 127 236 142 l 236 142 q 236 176 249 207 q 262 238 294 259 q 325 279 380 279 l 380 279 q 424 279 458 263 q 491 247 510 216 q 529 185 529 141 l 529 141 q 529 100 510 65 q 491 30 446 9 q 400 -12 321 -12 z"},"ൈ":{"ha":1320,"x_min":32,"x_max":1288,"o":"m 221 -12 l 221 -12 q 167 -12 124 13 q 81 37 57 92 q 32 146 32 236 l 32 236 q 32 309 52 372 q 72 435 111 482 q 150 529 209 555 q 267 581 343 581 l 343 581 q 427 581 483 555 q 538 529 570 487 q 601 444 615 394 q 628 343 628 293 l 628 293 q 628 230 613 174 q 597 118 572 71 q 547 24 516 -15 l 516 -15 l 387 50 q 411 87 429 125 q 446 163 456 204 q 465 244 465 289 l 465 289 q 465 340 452 378 q 438 416 410 437 q 381 458 334 458 l 334 458 q 287 458 250 431 q 213 403 193 353 q 172 302 172 234 l 172 234 q 172 178 178 151 q 184 123 195 115 q 205 106 216 106 l 216 106 q 226 106 233 112 q 240 118 244 133 q 248 147 248 173 l 248 173 q 248 213 239 228 q 229 243 212 243 l 212 243 q 192 243 174 226 q 156 208 126 164 l 126 164 l 100 278 q 131 312 170 334 q 209 356 256 356 l 256 356 q 305 356 337 334 q 368 312 384 273 q 399 234 399 184 l 399 184 q 399 123 379 80 q 359 36 320 12 q 280 -12 221 -12 z m 881 -12 l 881 -12 q 827 -12 784 13 q 741 37 717 92 q 692 146 692 236 l 692 236 q 692 309 712 372 q 732 435 771 482 q 810 529 869 555 q 927 581 1003 581 l 1003 581 q 1087 581 1143 555 q 1198 529 1230 487 q 1261 444 1275 394 q 1288 343 1288 293 l 1288 293 q 1288 230 1273 174 q 1257 118 1232 71 q 1207 24 1176 -15 l 1176 -15 l 1047 50 q 1071 87 1089 125 q 1106 163 1116 204 q 1125 244 1125 289 l 1125 289 q 1125 340 1112 378 q 1098 416 1070 437 q 1041 458 994 458 l 994 458 q 947 458 910 431 q 873 403 853 353 q 832 302 832 234 l 832 234 q 832 178 838 151 q 844 123 855 115 q 865 106 876 106 l 876 106 q 886 106 893 112 q 900 118 904 133 q 908 147 908 173 l 908 173 q 908 213 899 228 q 889 243 872 243 l 872 243 q 852 243 834 226 q 816 208 786 164 l 786 164 l 760 278 q 791 312 830 334 q 869 356 916 356 l 916 356 q 965 356 997 334 q 1028 312 1044 273 q 1059 234 1059 184 l 1059 184 q 1059 123 1039 80 q 1019 36 980 12 q 940 -12 881 -12 z"},"ൊ":{"ha":1334,"x_min":32,"x_max":1301,"o":"m 221 -12 l 221 -12 q 167 -12 124 13 q 81 37 57 92 q 32 146 32 236 l 32 236 q 32 309 52 372 q 72 435 111 482 q 150 529 209 555 q 267 581 343 581 l 343 581 q 427 581 483 555 q 538 529 570 487 q 601 444 615 394 q 628 343 628 293 l 628 293 q 628 230 613 174 q 597 118 572 71 q 547 24 516 -15 l 516 -15 l 387 50 q 411 87 429 125 q 446 163 456 204 q 465 244 465 289 l 465 289 q 465 340 452 378 q 438 416 410 437 q 381 458 334 458 l 334 458 q 287 458 250 431 q 213 403 193 353 q 172 302 172 234 l 172 234 q 172 178 178 151 q 184 123 195 115 q 205 106 216 106 l 216 106 q 226 106 233 112 q 240 118 244 133 q 248 147 248 173 l 248 173 q 248 213 239 228 q 229 243 212 243 l 212 243 q 192 243 174 226 q 156 208 126 164 l 126 164 l 100 278 q 131 312 170 334 q 209 356 256 356 l 256 356 q 305 356 337 334 q 368 312 384 273 q 399 234 399 184 l 399 184 q 399 123 379 80 q 359 36 320 12 q 280 -12 221 -12 z m 768 202 l 768 202 q 725 202 700 227 q 675 251 675 295 l 675 295 q 675 340 699 365 q 723 390 768 390 l 768 390 q 812 390 836 365 q 859 340 859 295 l 859 295 q 859 251 835 227 q 811 202 768 202 z m 1301 287 l 1301 287 q 1301 214 1290 158 q 1279 102 1254 65 q 1228 27 1186 8 q 1144 -12 1082 -12 l 1082 -12 q 1022 -12 984 5 q 945 21 922 49 q 899 77 887 113 q 875 148 868 186 l 868 186 l 1027 215 q 1033 180 1041 157 q 1048 133 1059 122 q 1070 110 1087 110 l 1087 110 q 1106 110 1118 129 q 1129 147 1135 187 q 1140 226 1140 290 l 1140 290 q 1140 349 1135 386 q 1129 423 1118 441 q 1106 459 1087 459 l 1087 459 q 1072 459 1061 448 q 1050 436 1043 413 q 1035 390 1029 354 l 1029 354 l 870 384 q 880 423 895 459 q 910 494 935 522 q 959 549 997 565 q 1034 581 1090 581 l 1090 581 q 1151 581 1192 560 q 1233 538 1257 499 q 1281 459 1291 406 q 1301 352 1301 287 z"},"ോ":{"ha":1207,"x_min":32,"x_max":1174,"o":"m 321 -12 l 321 -12 q 255 -12 202 5 q 149 21 111 57 q 73 93 53 150 q 32 207 32 288 l 32 288 q 32 361 53 416 q 74 470 114 507 q 153 544 209 563 q 265 581 335 581 l 335 581 q 411 581 455 560 q 498 538 517 503 q 535 468 535 427 l 535 427 q 535 382 516 352 q 497 321 464 306 q 431 291 388 291 l 388 291 q 332 291 300 309 q 268 327 255 357 q 242 387 242 422 l 242 422 q 242 443 250 467 q 257 490 264 502 l 264 502 l 380 509 q 367 492 359 472 q 350 452 350 431 l 350 431 q 350 410 359 401 q 367 392 379 392 l 379 392 q 393 392 400 401 q 406 410 406 426 l 406 426 q 406 443 395 460 q 384 476 355 476 l 355 476 q 344 476 329 476 q 314 475 303 475 l 303 475 q 267 470 241 446 q 215 422 201 382 q 187 342 187 287 l 187 287 q 187 231 197 191 q 206 150 230 126 q 254 102 296 94 l 296 94 q 306 94 321 94 q 335 93 347 93 l 347 93 q 368 93 380 101 q 391 108 396 119 q 400 130 400 142 l 400 142 q 400 159 394 169 q 387 178 373 178 l 373 178 q 360 178 352 169 q 344 159 344 138 l 344 138 q 344 115 351 97 q 357 79 373 59 l 373 59 l 248 79 q 244 90 240 109 q 236 127 236 142 l 236 142 q 236 176 249 207 q 262 238 294 259 q 325 279 380 279 l 380 279 q 424 279 458 263 q 491 247 510 216 q 529 185 529 141 l 529 141 q 529 100 510 65 q 491 30 446 9 q 400 -12 321 -12 z m 641 202 l 641 202 q 598 202 573 227 q 548 251 548 295 l 548 295 q 548 340 572 365 q 596 390 641 390 l 641 390 q 685 390 709 365 q 732 340 732 295 l 732 295 q 732 251 708 227 q 684 202 641 202 z m 1174 287 l 1174 287 q 1174 214 1163 158 q 1152 102 1127 65 q 1101 27 1059 8 q 1017 -12 955 -12 l 955 -12 q 895 -12 857 5 q 818 21 795 49 q 772 77 760 113 q 748 148 741 186 l 741 186 l 900 215 q 906 180 914 157 q 921 133 932 122 q 943 110 960 110 l 960 110 q 979 110 991 129 q 1002 147 1008 187 q 1013 226 1013 290 l 1013 290 q 1013 349 1008 386 q 1002 423 991 441 q 979 459 960 459 l 960 459 q 945 459 934 448 q 923 436 916 413 q 908 390 902 354 l 902 354 l 743 384 q 753 423 768 459 q 783 494 808 522 q 832 549 870 565 q 907 581 963 581 l 963 581 q 1024 581 1065 560 q 1106 538 1130 499 q 1154 459 1164 406 q 1174 352 1174 287 z"},"ൌ":{"ha":1554,"x_min":32,"x_max":1522,"o":"m 221 -12 l 221 -12 q 167 -12 124 13 q 81 37 57 92 q 32 146 32 236 l 32 236 q 32 309 52 372 q 72 435 111 482 q 150 529 209 555 q 267 581 343 581 l 343 581 q 427 581 483 555 q 538 529 570 487 q 601 444 615 394 q 628 343 628 293 l 628 293 q 628 230 613 174 q 597 118 572 71 q 547 24 516 -15 l 516 -15 l 387 50 q 411 87 429 125 q 446 163 456 204 q 465 244 465 289 l 465 289 q 465 340 452 378 q 438 416 410 437 q 381 458 334 458 l 334 458 q 287 458 250 431 q 213 403 193 353 q 172 302 172 234 l 172 234 q 172 178 178 151 q 184 123 195 115 q 205 106 216 106 l 216 106 q 226 106 233 112 q 240 118 244 133 q 248 147 248 173 l 248 173 q 248 213 239 228 q 229 243 212 243 l 212 243 q 192 243 174 226 q 156 208 126 164 l 126 164 l 100 278 q 131 312 170 334 q 209 356 256 356 l 256 356 q 305 356 337 334 q 368 312 384 273 q 399 234 399 184 l 399 184 q 399 123 379 80 q 359 36 320 12 q 280 -12 221 -12 z m 769 202 l 769 202 q 726 202 701 227 q 676 251 676 295 l 676 295 q 676 340 700 365 q 724 390 769 390 l 769 390 q 813 390 837 365 q 860 340 860 295 l 860 295 q 860 251 836 227 q 812 202 769 202 z m 1325 581 l 1325 581 q 1387 581 1431 549 q 1475 517 1499 457 q 1522 397 1522 313 l 1522 313 q 1522 208 1495 136 q 1467 63 1408 26 q 1349 -12 1254 -12 l 1254 -12 q 1190 -12 1146 -1 q 1102 9 1054 30 l 1054 30 l 1115 140 q 1143 127 1174 120 q 1205 112 1236 112 l 1236 112 q 1283 112 1311 134 q 1338 155 1350 200 q 1362 244 1362 313 l 1362 313 q 1362 394 1347 427 q 1332 459 1312 459 l 1312 459 q 1306 459 1302 457 q 1297 455 1293 450 l 1293 450 q 1287 442 1285 429 q 1283 416 1283 386 l 1283 386 l 1283 272 l 1127 272 l 1127 368 q 1127 399 1125 417 q 1123 435 1117 445 l 1117 445 q 1113 452 1107 456 q 1101 459 1093 459 l 1093 459 q 1079 459 1068 441 q 1056 423 1056 382 l 1056 382 q 1056 357 1060 333 q 1063 308 1068 288 l 1068 288 l 917 257 q 909 286 904 321 q 898 355 898 390 l 898 390 q 898 439 917 483 q 935 526 975 554 q 1015 581 1080 581 l 1080 581 q 1128 581 1160 565 q 1191 549 1218 515 l 1218 515 l 1188 514 q 1215 549 1246 565 q 1276 581 1325 581 z"},"്":{"ha":0,"x_min":-293,"x_max":67,"o":"m -114 599 l -114 599 q -180 599 -219 620 q -258 641 -275 678 q -293 715 -293 762 l -293 762 q -293 788 -287 808 q -282 827 -277 840 l -277 840 l -143 818 q -146 808 -148 795 q -151 781 -151 769 l -151 769 q -151 751 -147 738 q -143 725 -134 719 q -125 712 -110 712 l -110 712 q -96 712 -87 719 q -78 725 -73 738 q -69 750 -69 768 l -69 768 q -69 782 -71 795 q -73 808 -75 818 l -75 818 l 54 840 q 58 828 63 808 q 67 788 67 763 l 67 763 q 67 715 51 678 q 34 641 -5 620 q -45 599 -114 599 z"},"ൎ":{"ha":0,"x_min":-363,"x_max":-195,"o":"m -363 844 l -195 844 l -204 638 l -355 638 l -363 844 z"},"൏":{"ha":1137,"x_min":40,"x_max":1100,"o":"m 544 581 l 544 581 q 614 581 663 559 q 712 536 753 481 l 753 481 l 706 500 q 745 547 787 564 q 828 581 878 581 l 878 581 q 948 581 998 542 q 1047 502 1074 427 q 1100 352 1100 247 l 1100 247 q 1100 86 1046 -25 q 991 -137 875 -194 q 758 -252 570 -252 l 570 -252 q 451 -252 362 -227 q 273 -202 212 -156 q 150 -110 112 -48 q 74 13 57 87 q 40 160 40 241 l 40 241 q 40 319 59 403 q 77 486 108 564 l 108 564 l 241 517 q 216 451 201 380 q 185 309 185 241 l 185 241 q 185 177 197 122 q 209 66 236 21 q 262 -24 307 -56 q 351 -88 417 -105 q 482 -122 571 -122 l 571 -122 q 690 -122 763 -93 q 836 -65 874 -14 q 912 36 925 103 q 938 170 938 247 l 938 247 q 938 330 926 376 q 914 422 896 440 q 878 458 858 458 l 858 458 q 849 458 842 456 q 834 453 828 448 l 828 448 q 816 438 812 417 q 807 395 807 348 l 807 348 l 807 0 l 649 0 l 649 300 q 649 359 642 389 q 635 419 616 436 l 616 436 q 604 447 587 453 q 569 458 543 458 l 543 458 q 502 458 465 436 q 428 413 405 365 q 382 317 382 240 l 382 240 l 382 234 q 382 178 388 151 q 394 123 405 115 q 415 106 426 106 l 426 106 q 436 106 443 112 q 450 118 454 133 q 458 147 458 173 l 458 173 q 458 213 449 228 q 439 243 422 243 l 422 243 q 402 243 384 226 q 366 208 336 164 l 336 164 l 310 278 q 341 312 380 334 q 419 356 466 356 l 466 356 q 515 356 547 334 q 578 312 594 273 q 609 234 609 184 l 609 184 q 609 121 589 77 q 569 33 529 11 q 489 -12 430 -12 l 430 -12 q 376 -12 334 13 q 291 38 267 95 q 242 151 242 246 l 242 246 q 242 357 281 432 q 320 506 388 544 q 456 581 544 581 z"},"ൔ":{"ha":600,"x_min":43,"x_max":594,"o":"m 186 803 l 186 803 q 220 803 246 795 q 272 787 287 775 l 287 775 q 316 753 326 720 q 336 686 336 630 l 336 630 l 336 472 q 336 443 341 414 q 346 385 360 356 q 374 326 400 296 l 400 296 l 425 279 q 454 245 500 197 q 545 149 594 102 l 594 102 l 544 0 l 43 0 l 43 252 q 43 325 53 374 q 62 422 80 455 q 98 487 124 511 l 124 511 q 159 544 210 562 q 260 579 318 579 l 318 579 q 383 579 432 557 q 481 535 509 493 q 536 450 536 388 l 536 388 q 536 328 509 288 q 482 247 444 212 l 444 212 l 418 198 q 402 179 381 158 q 360 136 337 116 q 314 95 291 78 l 291 78 l 299 111 q 316 115 337 116 q 358 117 367 117 l 367 117 l 372 117 q 382 117 404 116 q 426 115 449 114 q 471 113 481 111 l 481 111 l 464 59 q 423 99 396 125 q 369 151 346 182 l 346 182 l 310 214 q 269 253 243 295 q 216 336 204 387 q 191 437 191 501 l 191 501 l 191 619 q 191 644 187 656 q 183 667 173 674 l 173 674 q 169 677 162 679 q 154 681 144 681 l 144 681 q 134 681 124 680 q 114 679 103 676 l 103 676 l 78 789 q 104 797 132 800 q 160 803 186 803 z m 198 246 l 198 68 l 155 73 q 184 102 213 134 q 242 166 269 200 q 296 233 317 264 l 317 264 l 350 296 q 364 313 377 338 q 389 363 389 387 l 389 387 q 389 410 381 428 q 372 446 354 457 q 336 467 307 467 l 307 467 q 279 467 254 455 q 229 442 218 419 l 218 419 q 211 404 207 388 q 202 372 200 340 q 198 308 198 246 l 198 246 z"},"ൕ":{"ha":932,"x_min":32,"x_max":905,"o":"m 619 -12 l 619 -12 q 575 -12 537 -5 q 499 1 468 14 q 437 26 411 45 l 411 45 q 405 50 401 61 q 397 71 391 76 l 391 76 q 349 109 321 152 q 293 195 279 245 q 265 295 265 349 l 265 349 q 265 389 273 422 q 281 454 294 479 l 294 479 l 325 525 q 341 543 363 556 q 384 568 412 575 q 439 581 469 581 l 469 581 q 570 581 621 518 q 671 454 671 350 l 671 350 q 671 285 654 231 q 636 176 605 134 q 573 91 531 61 l 531 61 q 524 57 517 49 q 509 40 502 35 l 502 35 q 462 12 423 0 q 383 -12 334 -12 l 334 -12 q 253 -12 196 16 q 138 43 102 91 q 66 138 49 198 q 32 258 32 324 l 32 324 q 32 402 56 460 q 80 517 130 549 q 179 581 253 581 l 253 581 q 306 581 349 555 q 391 528 420 478 l 420 478 l 316 416 q 303 440 288 451 q 272 461 257 461 l 257 461 q 236 461 221 447 q 206 432 198 404 q 190 375 190 333 l 190 333 q 190 261 209 210 q 228 159 262 132 q 295 105 338 105 l 338 105 q 358 105 375 110 q 392 114 408 122 l 408 122 q 415 126 421 128 q 427 129 433 133 l 433 133 q 462 157 480 194 q 498 230 506 272 q 514 314 514 352 l 514 352 q 514 393 508 417 q 502 440 492 450 q 481 459 469 459 l 469 459 q 457 459 446 451 q 435 443 429 420 q 422 397 422 352 l 422 352 q 422 318 429 279 q 436 239 450 204 q 463 168 484 144 l 484 144 q 491 137 502 132 q 513 127 522 122 l 522 122 q 537 115 556 111 q 575 106 603 106 l 603 106 q 652 106 683 125 q 714 144 729 177 q 744 210 744 251 l 744 251 q 744 281 739 311 q 733 341 721 375 q 708 408 687 449 l 687 449 q 660 503 643 539 q 626 574 619 603 q 611 631 611 662 l 611 662 q 611 704 631 736 q 650 767 687 785 q 724 803 778 803 l 778 803 q 811 803 838 799 q 865 794 885 788 l 885 788 l 863 673 q 852 676 839 679 q 825 681 811 681 l 811 681 q 789 681 779 669 q 769 656 769 639 l 769 639 q 769 626 774 611 q 779 595 791 571 q 803 546 823 507 l 823 507 q 857 442 875 397 q 892 351 899 314 q 905 276 905 236 l 905 236 q 905 200 896 165 q 887 129 867 98 q 847 66 814 41 q 780 16 732 2 q 684 -12 619 -12 z"},"ൖ":{"ha":715,"x_min":27,"x_max":688,"o":"m 276 190 l 276 190 q 276 168 283 150 q 290 132 304 122 q 318 111 340 111 l 340 111 q 365 111 380 125 q 394 138 394 161 l 394 161 q 394 194 386 221 q 378 248 367 276 q 356 304 348 337 q 340 370 340 415 l 340 415 q 340 463 360 501 q 380 538 417 560 q 454 581 503 581 l 503 581 q 569 581 610 554 q 650 527 669 486 q 688 444 688 402 l 688 402 q 688 331 660 277 q 631 222 571 192 q 511 162 417 162 l 417 162 l 355 162 q 318 162 290 166 q 262 169 234 175 l 234 175 l 186 186 q 146 202 110 230 q 73 257 50 300 q 27 342 27 404 l 27 404 q 27 448 40 493 q 52 538 76 581 l 76 581 l 211 531 q 198 503 190 472 q 181 440 181 411 l 181 411 q 181 374 191 357 q 200 340 209 320 l 209 320 l 261 283 q 282 276 309 272 q 336 267 362 267 l 362 267 l 404 267 q 450 267 479 285 q 507 302 520 334 q 533 366 533 407 l 533 407 q 533 442 524 455 q 515 468 501 468 l 501 468 q 493 468 487 463 q 480 457 476 446 q 472 435 472 418 l 472 418 q 472 390 483 358 q 494 326 508 291 q 522 256 533 220 q 544 183 544 146 l 544 146 q 544 119 535 91 q 526 63 504 40 q 482 17 444 3 q 405 -12 346 -12 l 346 -12 q 288 -12 242 9 q 196 29 169 72 q 142 115 142 185 l 142 185 q 142 227 152 268 q 161 308 180 356 q 199 403 225 466 l 225 466 q 244 510 256 543 q 268 575 275 599 q 281 622 281 639 l 281 639 q 281 656 271 669 q 260 681 238 681 l 238 681 q 228 681 218 680 q 207 678 194 675 l 194 675 l 169 788 q 195 796 225 800 q 254 803 280 803 l 280 803 q 344 803 377 782 q 409 760 421 727 q 433 694 433 659 l 433 659 q 433 637 428 613 q 422 588 412 559 q 401 530 385 494 q 368 457 346 410 l 346 410 q 326 368 313 336 q 299 303 291 277 q 283 251 280 230 q 276 209 276 190 z"},"ൗ":{"ha":681,"x_min":25,"x_max":649,"o":"m 452 581 l 452 581 q 514 581 558 549 q 602 517 626 457 q 649 397 649 313 l 649 313 q 649 208 622 136 q 594 63 535 26 q 476 -12 381 -12 l 381 -12 q 317 -12 273 -1 q 229 9 181 30 l 181 30 l 242 140 q 270 127 301 120 q 332 112 363 112 l 363 112 q 410 112 438 134 q 465 155 477 200 q 489 244 489 313 l 489 313 q 489 394 474 427 q 459 459 439 459 l 439 459 q 433 459 429 457 q 424 455 420 450 l 420 450 q 414 442 412 429 q 410 416 410 386 l 410 386 l 410 272 l 254 272 l 254 368 q 254 399 252 417 q 250 435 244 445 l 244 445 q 240 452 234 456 q 228 459 220 459 l 220 459 q 206 459 195 441 q 183 423 183 382 l 183 382 q 183 357 187 333 q 190 308 195 288 l 195 288 l 44 257 q 36 286 31 321 q 25 355 25 390 l 25 390 q 25 439 44 483 q 62 526 102 554 q 142 581 207 581 l 207 581 q 255 581 287 565 q 318 549 345 515 l 345 515 l 315 514 q 342 549 373 565 q 403 581 452 581 z"},"൘":{"ha":1064,"x_min":32,"x_max":1025,"o":"m 529 -12 l 529 -12 q 481 -12 442 10 q 403 32 374 73 l 374 73 l 402 55 q 370 20 334 4 q 298 -12 253 -12 l 253 -12 q 180 -12 131 25 q 81 61 57 123 q 32 185 32 262 l 32 262 q 32 322 44 376 q 55 429 77 480 q 99 530 129 581 l 129 581 l 262 516 q 241 477 225 436 q 209 395 201 352 q 192 309 192 264 l 192 264 q 192 207 204 174 q 215 140 233 126 q 250 111 268 111 l 268 111 q 279 111 286 114 q 293 117 298 122 l 298 122 q 309 134 312 155 q 314 175 314 216 l 314 216 l 314 569 l 472 569 l 472 221 q 472 176 478 156 q 483 135 494 124 l 494 124 q 500 118 510 115 q 519 111 529 111 l 529 111 q 541 111 550 115 q 558 118 564 124 l 564 124 q 576 136 581 158 q 585 179 585 219 l 585 219 l 585 569 l 743 569 l 743 257 l 679 66 q 647 23 609 6 q 571 -12 529 -12 z m 810 -12 l 810 -12 q 761 -12 725 6 q 689 24 654 63 l 654 63 l 594 260 l 594 559 l 743 559 l 743 223 q 743 183 747 159 q 751 134 764 122 l 764 122 q 770 117 777 114 q 784 111 794 111 l 794 111 q 822 111 837 142 q 852 172 859 220 q 865 267 865 318 l 865 318 q 865 376 859 434 q 852 491 834 543 q 816 595 782 636 q 747 676 692 699 q 637 722 555 722 l 555 722 q 501 722 447 715 q 392 708 348 698 l 348 698 l 326 821 q 361 830 399 836 q 436 842 480 846 q 523 849 574 849 l 574 849 q 668 849 742 826 q 815 802 869 758 q 922 713 957 649 q 992 585 1009 504 q 1025 423 1025 328 l 1025 328 q 1025 217 1003 141 q 981 65 934 27 q 886 -12 810 -12 z"},"൙":{"ha":1020,"x_min":32,"x_max":1002,"o":"m 335 581 l 335 581 q 418 581 477 552 q 536 523 573 474 q 610 424 628 362 q 646 299 646 231 l 646 231 q 646 144 623 91 q 600 37 556 13 q 512 -12 448 -12 l 448 -12 q 380 -12 340 14 q 300 39 283 79 q 266 118 266 161 l 266 161 q 266 214 289 255 q 311 295 354 320 l 354 320 q 376 333 403 341 q 429 349 462 353 q 495 357 535 357 l 535 357 l 592 357 l 592 235 l 538 235 q 494 235 474 230 q 454 225 442 216 l 442 216 q 428 206 423 191 q 418 175 418 157 l 418 157 q 418 137 426 125 q 434 112 447 112 l 447 112 q 459 112 469 121 q 478 129 484 153 q 489 176 489 221 l 489 221 q 489 236 489 252 q 488 267 486 281 l 486 281 l 486 300 q 479 345 462 381 q 444 416 414 437 q 384 457 338 457 l 338 457 q 291 457 259 438 q 226 418 210 381 q 194 343 194 289 l 194 289 q 194 244 204 204 q 213 164 230 126 q 247 87 270 49 l 270 49 l 142 -14 q 110 25 85 71 q 60 117 46 173 q 32 229 32 298 l 32 298 q 32 353 50 404 q 67 454 104 494 q 141 534 199 558 q 256 581 335 581 z m 837 569 l 837 569 q 899 569 935 546 q 971 523 987 487 q 1002 451 1002 411 l 1002 411 q 1002 367 987 333 q 971 298 944 278 l 944 278 q 920 260 896 251 q 871 242 840 239 q 808 235 762 235 l 762 235 l 570 235 l 570 357 l 782 357 q 810 357 826 360 q 841 363 849 370 l 849 370 q 856 376 859 386 q 862 395 862 410 l 862 410 q 862 429 854 440 q 846 450 835 450 l 835 450 q 819 450 812 437 q 805 424 805 404 l 805 404 q 805 373 816 350 q 827 327 840 310 l 840 310 l 704 302 q 691 322 681 352 q 671 382 671 412 l 671 412 q 671 464 694 499 q 717 533 755 551 q 792 569 837 569 z"},"൚":{"ha":965,"x_min":32,"x_max":922,"o":"m 617 581 l 617 581 q 700 581 755 562 q 810 542 846 506 l 846 506 q 871 481 888 449 q 905 416 914 369 q 922 322 922 254 l 922 254 l 922 0 l 476 0 l 476 110 q 497 145 519 190 q 541 234 556 285 q 570 336 570 388 l 570 388 q 570 411 566 425 q 562 438 555 444 q 547 450 536 450 l 536 450 q 525 450 517 444 q 508 437 501 426 l 501 426 q 491 409 485 379 q 479 349 479 286 l 479 286 l 479 230 l 323 230 l 323 348 q 323 395 319 416 q 315 437 303 448 l 303 448 q 298 453 290 456 q 282 458 273 458 l 273 458 q 254 458 236 444 q 217 429 205 396 q 192 362 192 305 l 192 305 q 192 260 201 217 q 210 173 226 132 q 242 91 263 51 l 263 51 l 130 -14 q 100 37 78 88 q 56 139 44 193 q 32 247 32 307 l 32 307 q 32 384 57 446 q 82 508 133 545 q 184 581 262 581 l 262 581 q 294 581 321 574 q 348 566 374 549 q 400 532 426 503 l 426 503 l 393 494 q 419 523 452 542 q 485 561 526 571 q 567 581 617 581 z m 725 352 l 725 352 q 725 310 716 271 q 706 232 688 194 q 669 155 642 112 l 642 112 l 637 118 q 652 120 673 121 q 693 121 714 121 l 714 121 l 767 121 l 767 280 q 767 341 757 379 q 746 416 726 438 q 706 459 676 470 l 676 470 l 675 475 q 700 453 713 421 q 725 389 725 352 z"},"൛":{"ha":852,"x_min":48,"x_max":820,"o":"m 548 -12 l 548 -12 q 471 -12 419 12 q 367 36 337 76 q 306 116 293 166 q 280 215 280 266 l 280 266 q 280 320 292 365 q 304 410 327 452 q 350 493 383 534 l 383 534 l 334 447 l 206 447 l 206 0 l 48 0 l 48 569 l 431 569 l 506 495 q 490 468 475 434 q 460 399 451 359 q 441 319 441 274 l 441 274 q 441 227 452 190 q 463 153 487 133 q 510 112 545 112 l 545 112 q 580 112 605 132 q 630 151 644 187 q 657 223 657 274 l 657 274 q 657 322 648 363 q 638 404 621 443 q 604 481 581 519 l 581 519 l 710 584 q 742 546 767 500 q 792 453 806 397 q 820 341 820 271 l 820 271 q 820 222 807 173 q 793 123 762 81 q 731 39 679 14 q 626 -12 548 -12 z"},"൜":{"ha":1330,"x_min":32,"x_max":1298,"o":"m 797 581 l 797 581 q 849 581 887 568 q 924 554 949 531 l 949 531 q 970 512 984 486 q 998 459 1005 422 q 1011 385 1011 332 l 1011 332 l 1011 205 q 1011 169 1016 152 q 1020 134 1030 124 l 1030 124 q 1036 117 1045 114 q 1054 111 1064 111 l 1064 111 q 1084 111 1101 125 q 1117 139 1128 172 q 1138 205 1138 262 l 1138 262 q 1138 312 1129 355 q 1120 397 1104 437 q 1087 476 1066 518 l 1066 518 l 1199 582 q 1229 533 1251 484 q 1273 434 1286 380 q 1298 325 1298 262 l 1298 262 q 1298 181 1273 119 q 1247 57 1196 23 q 1144 -12 1067 -12 l 1067 -12 q 1016 -12 981 0 q 945 11 916 36 l 916 36 q 895 55 881 82 q 867 108 860 146 q 853 183 853 233 l 853 233 l 853 358 q 853 390 850 412 q 846 433 834 445 l 834 445 q 828 451 820 455 q 811 458 799 458 l 799 458 q 787 458 779 455 q 770 451 764 445 l 764 445 q 752 433 749 412 q 745 390 745 360 l 745 360 l 745 237 q 745 185 739 148 q 732 110 718 84 q 704 58 683 38 l 683 38 q 658 15 621 2 q 583 -12 534 -12 l 534 -12 q 482 -12 445 2 q 407 15 381 38 l 381 38 q 360 58 347 84 q 333 110 326 148 q 319 185 319 237 l 319 237 l 319 364 q 319 400 315 418 q 310 435 300 445 l 300 445 q 294 452 286 455 q 277 458 266 458 l 266 458 q 247 458 230 444 q 213 430 203 398 q 192 365 192 307 l 192 307 q 192 257 202 215 q 211 172 227 133 q 243 93 264 51 l 264 51 l 131 -13 q 102 36 80 86 q 57 135 45 190 q 32 244 32 307 l 32 307 q 32 389 58 451 q 83 512 135 547 q 186 581 263 581 l 263 581 q 314 581 351 570 q 387 558 415 533 l 415 533 q 437 514 451 488 q 464 461 471 424 q 478 387 478 336 l 478 336 l 478 211 q 478 179 482 158 q 485 136 497 124 l 497 124 q 503 118 512 115 q 520 111 532 111 l 532 111 q 544 111 553 115 q 561 118 567 124 l 567 124 q 579 136 583 158 q 586 179 586 209 l 586 209 l 586 332 q 586 385 593 422 q 600 459 614 486 q 627 512 648 531 l 648 531 q 674 554 711 568 q 748 581 797 581 z"},"൝":{"ha":1748,"x_min":8,"x_max":1716,"o":"m 681 581 l 681 581 q 733 581 771 568 q 808 554 833 531 l 833 531 q 854 512 868 486 q 882 459 889 422 q 896 385 896 332 l 896 332 l 896 211 q 896 179 900 158 q 903 136 915 124 l 915 124 q 921 118 930 115 q 938 111 950 111 l 950 111 q 962 111 971 115 q 979 118 985 124 l 985 124 q 997 136 1001 158 q 1004 179 1004 209 l 1004 209 l 1004 332 q 1004 385 1011 422 q 1017 459 1031 486 q 1045 512 1066 531 l 1066 531 q 1092 554 1129 568 q 1166 581 1215 581 l 1215 581 q 1267 581 1305 568 q 1342 554 1367 531 l 1367 531 q 1388 512 1402 486 q 1416 459 1423 422 q 1429 385 1429 332 l 1429 332 l 1429 205 q 1429 169 1434 152 q 1438 134 1448 124 l 1448 124 q 1454 117 1463 114 q 1472 111 1482 111 l 1482 111 q 1502 111 1519 125 q 1535 139 1546 172 q 1556 205 1556 262 l 1556 262 q 1556 312 1547 355 q 1538 397 1522 437 q 1505 476 1484 518 l 1484 518 l 1617 582 q 1647 533 1669 484 q 1691 434 1704 380 q 1716 325 1716 262 l 1716 262 q 1716 181 1691 119 q 1665 57 1614 23 q 1562 -12 1485 -12 l 1485 -12 q 1434 -12 1399 0 q 1363 11 1334 36 l 1334 36 q 1313 55 1299 82 q 1285 108 1278 146 q 1271 183 1271 233 l 1271 233 l 1271 358 q 1271 390 1268 412 q 1264 433 1252 445 l 1252 445 q 1246 451 1238 455 q 1229 458 1217 458 l 1217 458 q 1205 458 1197 455 q 1188 451 1182 445 l 1182 445 q 1170 433 1167 412 q 1163 390 1163 360 l 1163 360 l 1163 237 q 1163 185 1157 148 q 1150 110 1136 84 q 1122 58 1101 38 l 1101 38 q 1076 15 1039 2 q 1001 -12 952 -12 l 952 -12 q 900 -12 863 2 q 825 15 799 38 l 799 38 q 778 58 764 84 q 750 110 744 148 q 737 185 737 237 l 737 237 l 737 358 q 737 390 734 412 q 730 433 718 445 l 718 445 q 712 451 704 455 q 695 458 683 458 l 683 458 q 671 458 663 455 q 654 451 648 445 l 648 445 q 636 433 633 412 q 629 390 629 360 l 629 360 l 629 237 q 629 161 614 114 q 598 67 566 38 l 566 38 q 541 15 505 2 q 468 -12 423 -12 l 423 -12 q 371 -12 329 8 q 287 28 262 69 l 262 69 l 290 60 q 266 34 242 18 q 218 2 191 -5 q 164 -12 131 -12 l 131 -12 q 96 -12 67 -5 q 38 2 8 18 l 8 18 l 55 128 q 75 120 94 116 q 112 111 130 111 l 130 111 q 148 111 159 114 q 170 116 179 123 l 179 123 q 193 135 197 157 q 200 179 200 221 l 200 221 l 200 569 l 358 569 l 358 213 q 358 176 363 156 q 367 135 379 124 l 379 124 q 386 118 395 115 q 403 111 414 111 l 414 111 q 425 111 434 115 q 442 118 449 124 l 449 124 q 461 135 466 156 q 470 176 470 215 l 470 215 l 470 332 q 470 385 477 422 q 484 459 498 486 q 511 512 532 531 l 532 531 q 558 554 595 568 q 632 581 681 581 z"},"൞":{"ha":1253,"x_min":32,"x_max":1227,"o":"m 335 581 l 335 581 q 418 581 477 552 q 536 523 573 474 q 610 424 628 362 q 646 299 646 231 l 646 231 q 646 144 623 91 q 600 37 556 13 q 512 -12 448 -12 l 448 -12 q 380 -12 340 14 q 300 39 283 79 q 266 118 266 161 l 266 161 q 266 214 289 255 q 311 295 354 320 l 354 320 q 376 333 403 341 q 429 349 462 353 q 495 357 535 357 l 535 357 l 592 357 l 592 235 l 538 235 q 494 235 474 230 q 454 225 442 216 l 442 216 q 428 206 423 191 q 418 175 418 157 l 418 157 q 418 137 426 125 q 434 112 447 112 l 447 112 q 459 112 469 121 q 478 129 484 153 q 489 176 489 221 l 489 221 q 489 237 489 252 q 488 267 486 281 l 486 281 l 486 300 q 479 345 462 381 q 444 416 415 437 q 385 457 338 457 l 338 457 q 291 457 259 438 q 226 418 210 381 q 194 343 194 289 l 194 289 q 194 244 204 204 q 213 164 230 126 q 247 87 270 49 l 270 49 l 142 -14 q 110 25 85 71 q 60 117 46 173 q 32 229 32 298 l 32 298 q 32 353 50 404 q 67 454 104 494 q 141 534 199 558 q 256 581 335 581 z m 1026 197 l 1026 197 q 954 197 911 225 q 868 253 849 296 q 830 338 830 383 l 830 383 q 830 410 840 440 q 849 469 862 491 l 862 491 l 868 447 l 747 447 l 757 496 q 768 480 780 454 q 791 427 791 396 l 791 396 q 791 344 771 308 q 751 272 710 254 q 668 235 601 235 l 601 235 l 582 235 l 582 357 l 612 357 q 635 357 647 364 q 658 370 662 381 q 666 392 666 405 l 666 405 q 666 422 660 437 q 654 452 649 459 l 649 459 l 688 569 l 957 569 l 1004 496 q 995 480 988 455 q 981 429 981 394 l 981 394 q 981 364 990 342 q 999 319 1024 319 l 1024 319 q 1040 319 1050 329 q 1060 339 1065 356 q 1069 372 1069 392 l 1069 392 q 1069 435 1059 465 q 1048 495 1031 527 l 1031 527 l 1157 582 q 1187 542 1207 496 q 1227 449 1227 388 l 1227 388 q 1227 331 1203 288 q 1179 245 1134 221 q 1089 197 1026 197 z"},"ൟ":{"ha":1251,"x_min":20,"x_max":1231,"o":"m 20 273 l 20 273 q 20 335 54 375 q 88 415 155 415 l 155 415 q 220 415 256 375 q 291 335 291 273 l 291 273 q 291 211 257 171 q 223 131 155 131 l 155 131 q 87 131 54 171 q 20 210 20 273 z m 123 273 l 123 273 q 123 248 131 236 q 139 223 155 223 l 155 223 q 172 223 180 236 q 188 248 188 273 l 188 273 q 188 298 180 311 q 172 323 155 323 l 155 323 q 139 323 131 311 q 123 298 123 273 z m 960 273 l 960 273 q 960 335 994 375 q 1028 415 1095 415 l 1095 415 q 1160 415 1196 375 q 1231 335 1231 273 l 1231 273 q 1231 211 1197 171 q 1163 131 1095 131 l 1095 131 q 1027 131 994 171 q 960 210 960 273 z m 1063 273 l 1063 273 q 1063 248 1071 236 q 1079 223 1095 223 l 1095 223 q 1112 223 1120 236 q 1128 248 1128 273 l 1128 273 q 1128 298 1120 311 q 1112 323 1095 323 l 1095 323 q 1079 323 1071 311 q 1063 298 1063 273 z m 623 581 l 623 581 q 703 581 762 554 q 820 526 858 479 q 896 431 915 369 q 933 307 933 237 l 933 237 q 933 151 911 96 q 888 40 844 14 q 799 -12 731 -12 l 731 -12 q 664 -12 623 17 q 582 45 564 94 q 545 143 545 203 l 545 203 q 545 304 587 356 q 628 407 704 407 l 704 407 q 749 407 781 380 q 813 352 834 310 q 854 267 862 222 l 862 222 l 801 216 q 797 241 790 259 q 782 277 771 288 q 759 298 742 298 l 742 298 q 721 298 710 278 q 698 257 698 201 l 698 201 q 698 166 703 146 q 708 125 717 117 q 725 108 735 108 l 735 108 q 750 108 760 118 q 769 127 774 154 q 778 181 778 231 l 778 231 q 778 254 777 272 q 776 290 774 305 l 774 305 q 774 309 774 319 q 773 328 772 332 l 772 332 q 768 364 749 393 q 729 421 698 439 q 666 457 626 457 l 626 457 q 578 457 546 438 q 513 418 497 381 q 480 343 480 289 l 480 289 q 480 244 490 204 q 499 164 516 126 q 533 87 556 49 l 556 49 l 428 -14 q 396 25 371 71 q 346 117 332 173 q 318 229 318 298 l 318 298 q 318 353 336 404 q 353 454 390 494 q 427 534 485 558 q 543 581 623 581 z"},"ൠ":{"ha":835,"x_min":27,"x_max":808,"o":"m 617 581 l 617 581 q 706 581 757 520 q 808 458 808 355 l 808 355 q 808 286 792 241 q 775 195 746 163 l 746 163 q 700 111 637 89 q 574 67 478 67 l 478 67 l 436 67 l 393 67 l 361 67 q 261 67 198 89 q 134 111 89 163 l 89 163 q 60 197 44 244 q 27 290 27 360 l 27 360 q 27 423 50 473 q 73 523 118 552 q 162 581 225 581 l 225 581 q 280 581 321 559 q 361 536 383 496 q 405 455 405 402 l 405 402 q 405 336 384 297 q 363 258 327 241 q 291 224 245 224 l 245 224 q 216 224 184 239 q 152 254 125 278 q 97 302 78 328 l 78 328 l 122 415 q 141 385 155 367 q 169 349 182 341 q 195 333 211 333 l 211 333 q 231 333 243 349 q 254 364 254 408 l 254 408 q 254 437 245 452 q 235 466 221 466 l 221 466 q 207 466 196 457 q 184 448 178 426 q 172 404 172 363 l 172 363 q 172 345 174 329 q 175 313 178 299 l 178 299 l 184 258 q 199 232 222 215 q 245 198 275 188 q 304 178 339 174 q 373 170 411 170 l 411 170 l 424 170 q 462 170 497 174 q 531 178 561 188 q 590 198 613 215 q 636 232 651 258 l 651 258 l 657 299 q 660 313 662 329 q 663 345 663 363 l 663 363 q 663 404 657 426 q 651 448 641 457 q 631 466 618 466 l 618 466 q 602 466 592 451 q 581 435 581 400 l 581 400 q 581 362 593 348 q 604 333 621 333 l 621 333 q 639 333 652 340 q 665 347 679 365 q 693 383 713 415 l 713 415 l 757 328 q 739 302 712 278 q 684 254 652 239 q 619 224 585 224 l 585 224 q 542 224 507 241 q 471 257 451 295 q 430 332 430 394 l 430 394 q 430 455 455 497 q 479 538 521 560 q 563 581 617 581 z m 418 -261 l 418 -261 q 317 -261 243 -241 q 168 -222 128 -177 q 87 -133 87 -59 l 87 -59 q 87 -7 112 29 q 136 64 177 86 q 218 107 267 117 q 316 126 365 126 l 365 126 l 470 126 q 519 126 568 117 q 617 107 658 86 q 699 64 724 29 q 748 -7 748 -59 l 748 -59 q 748 -133 708 -177 q 667 -222 593 -241 q 519 -261 418 -261 z m 418 -141 l 418 -141 q 481 -141 522 -131 q 563 -121 584 -99 q 604 -78 604 -44 l 604 -44 q 604 -16 591 3 q 578 22 554 33 q 530 44 496 49 q 461 54 419 54 l 419 54 l 416 54 q 360 54 318 45 q 276 36 254 15 q 231 -6 231 -44 l 231 -44 q 231 -78 252 -99 q 272 -121 314 -131 q 355 -141 418 -141 z m 481 36 l 481 36 q 507 36 524 26 q 541 16 551 0 q 560 -16 564 -34 q 568 -52 568 -68 l 568 -68 l 568 -107 l 488 -107 l 488 -92 q 488 -75 485 -65 q 482 -55 472 -55 l 472 -55 q 462 -55 459 -64 q 456 -73 456 -91 l 456 -91 l 456 -107 l 378 -107 l 378 -91 q 378 -74 375 -64 q 372 -55 362 -55 l 362 -55 q 352 -55 349 -65 q 346 -75 346 -92 l 346 -92 l 346 -107 l 266 -107 l 266 -70 q 266 -53 270 -34 q 273 -16 282 0 q 291 16 308 26 q 325 36 352 36 l 352 36 q 375 36 390 28 q 404 20 417 6 l 417 6 q 432 23 447 30 q 462 36 481 36 z"},"ൡ":{"ha":1199,"x_min":32,"x_max":1181,"o":"m 334 581 l 334 581 q 404 581 453 559 q 502 537 543 482 l 543 482 l 569 374 l 597 218 l 597 0 l 439 0 l 439 300 q 439 359 432 389 q 425 419 406 436 l 406 436 q 394 447 377 453 q 359 458 333 458 l 333 458 q 292 458 255 436 q 218 413 195 365 q 172 317 172 240 l 172 240 l 172 234 q 172 178 178 151 q 184 124 195 116 q 205 108 216 108 l 216 108 q 226 108 233 114 q 240 120 244 135 q 248 149 248 174 l 248 174 q 248 213 239 228 q 229 243 212 243 l 212 243 q 192 243 174 226 q 156 208 126 164 l 126 164 l 100 278 q 131 312 170 334 q 209 356 256 356 l 256 356 q 305 356 337 334 q 368 312 384 273 q 399 234 399 184 l 399 184 q 399 121 379 77 q 359 33 319 11 q 279 -12 220 -12 l 220 -12 q 166 -12 124 13 q 81 38 57 95 q 32 151 32 246 l 32 246 q 32 357 71 432 q 110 506 178 544 q 246 581 334 581 z m 713 581 l 713 581 q 803 581 863 549 q 923 516 958 461 q 992 405 1006 335 l 1006 335 q 1009 311 1010 286 q 1011 261 1011 236 l 1011 236 q 1011 155 991 100 q 971 44 929 16 q 887 -12 820 -12 l 820 -12 q 759 -12 718 13 q 677 38 657 83 q 636 128 636 189 l 636 189 q 636 296 704 353 q 771 409 889 409 l 889 409 q 900 409 910 409 q 919 408 927 407 l 927 407 l 959 406 q 1022 393 1072 355 q 1122 317 1152 254 q 1181 191 1181 101 l 1181 101 q 1181 44 1169 -10 q 1156 -64 1125 -107 q 1093 -150 1037 -175 q 980 -201 893 -201 l 893 -201 q 859 -201 830 -195 q 801 -190 770 -180 l 770 -180 l 811 -63 q 834 -70 854 -73 q 874 -76 893 -76 l 893 -76 q 939 -76 967 -58 q 995 -41 1009 -13 q 1023 15 1028 47 q 1032 78 1032 105 l 1032 105 q 1032 151 1027 186 q 1022 220 1008 245 q 994 269 967 284 l 967 284 l 918 292 q 910 294 901 295 q 891 295 881 295 l 881 295 q 845 295 825 280 q 805 265 797 241 q 789 217 789 188 l 789 188 q 789 160 794 144 q 798 127 806 120 q 814 112 825 112 l 825 112 q 844 112 855 135 q 865 158 865 231 l 865 231 q 865 263 862 289 q 859 315 853 337 l 853 337 l 842 371 q 829 400 810 419 q 790 438 767 448 q 743 457 716 457 l 716 457 q 693 457 674 452 q 655 447 640 436 l 640 436 q 624 424 615 407 q 605 389 601 362 q 597 334 597 293 l 597 293 l 597 212 l 468 440 q 500 490 536 521 q 571 552 615 567 q 658 581 713 581 z"},"ൢ":{"ha":0,"x_min":-737,"x_max":-18,"o":"m -521 28 l -521 28 q -463 28 -415 4 q -367 -20 -336 -74 l -336 -74 l -314 -168 l -314 -334 l -440 -334 l -440 -177 q -440 -146 -444 -122 q -448 -99 -461 -85 l -461 -85 q -472 -72 -488 -65 q -504 -59 -525 -59 l -525 -59 q -550 -59 -569 -68 q -589 -77 -602 -94 q -616 -112 -623 -137 l -623 -137 q -625 -146 -626 -157 q -627 -169 -627 -189 l -627 -189 q -627 -224 -619 -238 q -612 -252 -597 -252 l -597 -252 q -584 -252 -578 -242 q -572 -232 -572 -209 l -572 -209 q -572 -189 -579 -179 q -586 -170 -600 -170 l -600 -170 q -617 -170 -633 -183 q -650 -197 -671 -228 l -671 -228 l -697 -160 q -673 -130 -639 -108 q -605 -87 -573 -87 l -573 -87 q -519 -87 -491 -120 q -464 -154 -464 -211 l -464 -211 q -464 -266 -493 -301 q -523 -337 -588 -337 l -588 -337 q -660 -337 -698 -292 q -737 -248 -737 -170 l -737 -170 q -737 -105 -709 -61 q -681 -17 -632 6 q -583 28 -521 28 z m -219 28 l -219 28 q -162 28 -116 6 q -71 -16 -44 -61 q -18 -106 -18 -175 l -18 -175 q -18 -251 -52 -294 q -86 -337 -156 -337 l -156 -337 q -204 -337 -233 -319 q -262 -301 -275 -270 q -288 -239 -288 -200 l -288 -200 q -288 -155 -271 -127 q -255 -99 -229 -86 q -203 -74 -174 -74 l -174 -74 q -143 -74 -119 -86 q -96 -99 -78 -124 q -61 -150 -50 -190 l -50 -190 l -104 -196 q -111 -176 -121 -161 q -132 -146 -149 -146 l -149 -146 q -160 -146 -170 -157 q -180 -168 -180 -200 l -180 -200 q -180 -228 -172 -240 q -165 -252 -154 -252 l -154 -252 q -140 -252 -134 -237 q -128 -222 -128 -182 l -128 -182 q -128 -171 -129 -158 q -130 -146 -132 -134 l -132 -134 l -135 -118 q -146 -93 -161 -80 q -177 -68 -194 -63 q -211 -59 -227 -59 l -227 -59 q -241 -59 -254 -63 q -267 -67 -278 -75 l -278 -75 q -294 -88 -304 -114 q -314 -140 -314 -190 l -314 -190 l -425 -160 q -417 -85 -386 -44 q -355 -4 -310 12 q -265 28 -219 28 z"},"ൣ":{"ha":0,"x_min":-737,"x_max":95,"o":"m -521 28 l -521 28 q -463 28 -415 4 q -367 -20 -336 -74 l -336 -74 l -314 -168 l -314 -334 l -440 -334 l -440 -177 q -440 -146 -444 -122 q -448 -99 -461 -85 l -461 -85 q -472 -72 -488 -65 q -504 -59 -525 -59 l -525 -59 q -550 -59 -569 -68 q -589 -77 -602 -94 q -616 -112 -623 -137 l -623 -137 q -625 -146 -626 -157 q -627 -169 -627 -189 l -627 -189 q -627 -224 -619 -238 q -612 -252 -597 -252 l -597 -252 q -584 -252 -578 -242 q -572 -232 -572 -209 l -572 -209 q -572 -189 -579 -179 q -586 -170 -600 -170 l -600 -170 q -617 -170 -633 -183 q -650 -197 -671 -228 l -671 -228 l -697 -160 q -673 -130 -639 -108 q -605 -87 -573 -87 l -573 -87 q -519 -87 -491 -120 q -464 -154 -464 -211 l -464 -211 q -464 -266 -493 -301 q -523 -337 -588 -337 l -588 -337 q -660 -337 -698 -292 q -737 -248 -737 -170 l -737 -170 q -737 -105 -709 -61 q -681 -17 -632 6 q -583 28 -521 28 z m -219 28 l -219 28 q -164 28 -119 6 q -75 -17 -49 -62 q -23 -107 -23 -175 l -23 -175 q -23 -230 -38 -266 q -53 -302 -82 -319 q -112 -337 -156 -337 l -156 -337 q -205 -337 -234 -319 q -263 -301 -275 -271 q -288 -241 -288 -205 l -288 -205 q -288 -131 -239 -98 q -191 -65 -115 -65 l -115 -65 q -104 -65 -92 -65 q -81 -66 -71 -67 l -71 -67 q -26 -71 12 -90 q 49 -110 72 -148 q 95 -187 95 -249 l 95 -249 q 95 -283 87 -313 q 79 -343 68 -365 l 68 -365 l -32 -329 q -26 -315 -21 -296 q -16 -278 -16 -247 l -16 -247 q -16 -206 -28 -181 q -41 -157 -67 -145 l -67 -145 l -87 -138 q -93 -136 -99 -135 q -105 -135 -110 -135 l -110 -135 q -137 -135 -158 -149 q -180 -163 -180 -205 l -180 -205 q -180 -230 -172 -241 q -165 -252 -154 -252 l -154 -252 q -140 -252 -134 -237 q -128 -223 -128 -188 l -128 -188 q -128 -165 -129 -154 q -130 -144 -132 -134 l -132 -134 l -135 -118 q -146 -93 -161 -80 q -177 -68 -194 -63 q -211 -59 -227 -59 l -227 -59 q -243 -59 -255 -63 q -267 -67 -278 -75 l -278 -75 q -294 -88 -304 -114 q -314 -140 -314 -190 l -314 -190 l -421 -160 q -414 -102 -392 -65 q -370 -29 -340 -8 q -310 12 -278 20 q -246 28 -219 28 z"},"൦":{"ha":514,"x_min":34,"x_max":480,"o":"m 258 33 l 258 33 q 188 33 138 60 q 88 87 61 142 q 34 197 34 281 l 34 281 q 34 364 61 420 q 87 476 137 504 q 187 532 257 532 l 257 532 q 333 532 383 502 q 432 472 456 416 q 480 360 480 281 l 480 281 q 480 201 454 146 q 427 90 378 62 q 328 33 258 33 z m 256 154 l 256 154 q 278 154 293 167 q 308 180 316 209 q 324 237 324 282 l 324 282 q 324 351 307 381 q 289 411 257 411 l 257 411 q 226 411 208 381 q 190 351 190 282 l 190 282 q 190 215 208 185 q 225 154 256 154 z"},"൧":{"ha":798,"x_min":11,"x_max":753,"o":"m 348 -83 l 348 -206 l 274 -206 q 198 -206 158 -199 q 118 -192 89 -177 l 89 -177 q 54 -159 33 -126 q 11 -94 11 -45 l 11 -45 q 11 -2 27 29 q 43 60 71 80 l 71 80 q 94 96 121 105 q 147 114 184 118 q 221 122 276 122 l 276 122 l 377 122 l 449 0 l 264 0 q 230 0 215 -2 q 199 -4 190 -9 l 190 -9 q 180 -14 175 -21 q 170 -29 170 -40 l 170 -40 q 170 -60 187 -71 l 187 -71 q 196 -77 213 -80 q 229 -83 264 -83 l 264 -83 l 348 -83 z m 524 581 l 524 581 q 581 581 621 567 q 661 552 689 524 l 689 524 q 726 487 740 438 q 753 389 753 310 l 753 310 l 753 0 l 292 0 l 292 310 q 292 363 298 402 q 304 440 318 470 q 332 500 356 524 l 356 524 q 384 552 425 567 q 465 581 524 581 z m 522 457 l 522 457 q 506 457 494 452 q 482 446 474 437 l 474 437 q 458 419 454 391 q 450 362 450 309 l 450 309 l 450 122 l 595 122 l 595 309 q 595 362 591 391 q 587 419 571 437 l 571 437 q 563 446 551 452 q 539 457 522 457 z"},"൨":{"ha":733,"x_min":31,"x_max":714,"o":"m 303 581 l 303 581 q 380 581 432 557 q 484 533 515 493 q 545 453 558 404 q 571 354 571 303 l 571 303 q 571 249 559 204 q 547 159 524 118 q 501 76 468 35 l 468 35 l 517 122 l 714 122 l 714 0 l 420 0 l 345 74 q 362 102 377 136 q 391 170 401 210 q 410 250 410 295 l 410 295 q 410 343 399 380 q 388 416 365 437 q 342 457 306 457 l 306 457 q 272 457 247 438 q 221 419 208 383 q 194 346 194 295 l 194 295 q 194 247 204 206 q 213 165 230 127 q 247 88 270 50 l 270 50 l 141 -15 q 109 24 84 70 q 59 116 45 173 q 31 229 31 298 l 31 298 q 31 347 45 397 q 58 446 89 488 q 120 530 173 556 q 225 581 303 581 z"},"൩":{"ha":924,"x_min":32,"x_max":905,"o":"m 259 581 l 259 581 q 289 581 315 574 q 340 567 363 553 q 386 538 408 514 l 408 514 l 391 509 q 427 548 465 565 q 502 581 552 581 l 552 581 q 622 581 672 547 q 721 512 747 451 q 773 389 773 307 l 773 307 q 773 264 767 229 q 760 193 749 163 q 737 133 721 104 l 721 104 l 695 0 l 628 0 l 553 74 q 576 120 589 158 q 602 196 608 232 q 613 268 613 307 l 613 307 q 613 363 601 396 q 589 429 571 444 q 552 458 532 458 l 532 458 q 523 458 516 456 q 508 453 502 448 l 502 448 q 490 438 486 417 q 481 395 481 348 l 481 348 l 481 0 l 323 0 l 323 348 q 323 395 319 416 q 315 437 303 448 l 303 448 q 298 453 290 456 q 282 458 273 458 l 273 458 q 254 458 236 444 q 217 429 205 396 q 192 362 192 305 l 192 305 q 192 260 201 217 q 210 173 226 132 q 242 91 263 51 l 263 51 l 130 -14 q 100 37 78 88 q 56 139 44 193 q 32 247 32 307 l 32 307 q 32 384 57 446 q 82 508 133 545 q 183 581 259 581 z m 657 0 l 700 122 l 905 122 l 905 0 l 657 0 z"},"൪":{"ha":717,"x_min":32,"x_max":713,"o":"m 337 581 l 337 581 q 409 581 462 557 q 514 533 556 492 l 556 492 q 606 444 634 379 q 661 314 661 231 l 661 231 q 661 154 639 100 q 617 45 571 17 q 524 -12 451 -12 l 451 -12 q 384 -12 341 15 q 298 42 277 87 q 256 132 256 186 l 256 186 q 256 248 279 297 q 302 346 348 392 q 394 438 464 489 l 464 489 q 499 516 519 535 q 539 553 548 572 q 556 591 556 618 l 556 618 q 556 641 550 661 q 543 681 535 691 l 535 691 l 676 753 q 693 725 703 695 q 713 664 713 629 l 713 629 q 713 584 697 547 q 680 509 644 473 q 607 436 546 393 l 546 393 q 496 355 467 320 q 437 285 425 251 q 412 217 412 181 l 412 181 q 412 153 421 131 q 430 108 456 108 l 456 108 q 475 108 485 120 q 494 131 498 154 q 502 176 502 207 l 502 207 q 502 263 490 317 q 478 371 449 407 l 449 407 q 430 430 404 446 q 378 461 343 461 l 343 461 q 298 461 265 442 q 231 423 213 386 q 194 349 194 295 l 194 295 q 194 247 203 206 q 212 165 229 127 q 246 88 269 50 l 269 50 l 142 -15 q 110 24 85 70 q 60 116 46 173 q 32 229 32 298 l 32 298 q 32 349 48 400 q 64 450 100 491 q 136 532 195 557 q 253 581 337 581 z"},"൫":{"ha":929,"x_min":36,"x_max":893,"o":"m 473 732 l 473 732 q 580 732 659 699 q 738 666 790 606 q 842 546 868 466 q 893 386 893 291 l 893 291 q 893 221 884 143 q 874 65 848 -12 l 848 -12 l 711 32 q 723 71 730 113 q 736 154 739 197 q 741 240 741 284 l 741 284 q 741 361 723 422 q 705 482 671 524 q 637 566 587 588 q 537 609 473 609 l 473 609 q 396 609 331 574 q 266 538 227 461 q 187 384 187 259 l 187 259 q 187 190 200 133 q 212 76 238 34 q 263 -9 302 -32 q 341 -55 393 -55 l 393 -55 q 464 -55 498 -19 q 532 17 532 77 l 532 77 q 532 110 522 134 q 512 158 494 171 q 475 184 451 184 l 451 184 l 446 184 l 446 303 l 448 303 q 472 303 487 307 q 501 311 508 316 l 508 316 q 520 324 525 336 q 530 348 530 366 l 530 366 q 530 392 517 406 q 503 420 480 420 l 480 420 q 455 420 437 403 q 419 385 409 350 q 399 315 399 262 l 399 262 q 399 205 414 152 q 428 98 448 45 l 448 45 l 309 -3 q 278 60 259 126 q 240 192 240 268 l 240 268 q 240 352 271 414 q 302 475 358 509 q 414 543 487 543 l 487 543 q 554 543 599 521 q 643 498 666 461 q 688 423 688 376 l 688 376 q 688 348 680 321 q 671 293 648 270 q 624 247 579 230 l 579 230 l 576 254 q 622 238 656 189 q 690 139 690 70 l 690 70 q 690 -12 654 -67 q 618 -122 554 -150 q 489 -178 405 -178 l 405 -178 q 287 -178 205 -126 q 122 -75 79 22 q 36 119 36 255 l 36 255 q 36 376 70 466 q 104 556 165 615 q 225 674 304 703 q 383 732 473 732 z"},"൬":{"ha":1064,"x_min":32,"x_max":1025,"o":"m 529 581 l 529 581 q 571 581 609 564 q 647 546 679 503 l 679 503 l 743 312 l 743 0 l 585 0 l 585 350 q 585 390 581 412 q 576 433 564 445 l 564 445 q 558 451 550 455 q 541 458 529 458 l 529 458 q 519 458 510 455 q 500 451 494 445 l 494 445 q 483 434 478 414 q 472 393 472 348 l 472 348 l 472 0 l 314 0 l 314 353 q 314 394 312 415 q 309 435 298 447 l 298 447 q 293 452 286 455 q 279 458 268 458 l 268 458 q 250 458 233 444 q 215 429 204 396 q 192 362 192 305 l 192 305 q 192 260 201 217 q 209 174 225 134 q 241 93 262 53 l 262 53 l 129 -12 q 99 39 77 90 q 55 140 44 194 q 32 247 32 307 l 32 307 q 32 384 57 446 q 81 508 131 545 q 180 581 253 581 l 253 581 q 298 581 334 565 q 370 549 402 514 l 402 514 l 374 496 q 403 537 442 559 q 481 581 529 581 z m 810 581 l 810 581 q 922 581 974 493 q 1025 404 1025 237 l 1025 237 q 1025 87 997 -10 q 968 -107 898 -154 q 827 -201 702 -201 l 702 -201 q 683 -201 659 -199 q 635 -197 611 -193 l 611 -193 l 622 -71 q 638 -74 658 -75 q 677 -77 696 -77 l 696 -77 q 751 -77 785 -53 q 818 -30 836 12 q 853 53 859 110 q 865 166 865 232 l 865 232 q 865 293 859 345 q 852 396 837 427 q 822 458 794 458 l 794 458 q 784 458 777 455 q 770 452 764 447 l 764 447 q 751 435 747 411 q 743 386 743 346 l 743 346 l 743 10 l 594 10 l 594 309 l 654 506 q 689 545 725 563 q 761 581 810 581 z"},"൭":{"ha":676,"x_min":32,"x_max":640,"o":"m 342 581 l 342 581 q 425 581 482 552 q 539 522 574 471 q 609 419 625 353 q 640 287 640 214 l 640 214 q 640 108 619 30 q 597 -48 555 -99 q 513 -151 450 -176 q 387 -201 303 -201 l 303 -201 q 275 -201 249 -199 q 222 -197 198 -192 l 198 -192 l 211 -70 q 231 -74 251 -75 q 270 -77 286 -77 l 286 -77 q 339 -77 376 -56 q 413 -36 436 3 q 458 41 468 95 q 478 148 478 213 l 478 213 q 478 335 439 397 q 399 458 328 458 l 328 458 q 283 458 248 431 q 212 403 192 354 q 172 304 172 237 l 172 237 l 172 230 q 172 176 178 150 q 184 123 195 115 q 205 106 216 106 l 216 106 q 226 106 233 112 q 240 118 244 133 q 248 147 248 173 l 248 173 q 248 213 239 228 q 229 243 212 243 l 212 243 q 192 243 174 226 q 156 208 126 164 l 126 164 l 100 278 q 131 312 170 334 q 209 356 256 356 l 256 356 q 305 356 337 334 q 368 312 384 273 q 399 234 399 184 l 399 184 q 399 123 379 80 q 359 36 320 12 q 280 -12 221 -12 l 221 -12 q 167 -12 124 13 q 81 37 57 91 q 32 144 32 232 l 32 232 q 32 333 67 412 q 102 491 171 536 q 240 581 342 581 z"},"൮":{"ha":851,"x_min":31,"x_max":803,"o":"m 303 581 l 303 581 q 380 581 432 557 q 484 533 515 493 q 545 453 558 404 q 571 354 571 303 l 571 303 q 571 249 559 204 q 547 159 524 118 q 501 76 468 35 l 468 35 l 517 122 l 645 122 l 645 569 l 803 569 l 803 157 l 740 0 l 420 0 l 345 74 q 362 102 377 136 q 391 170 401 210 q 410 250 410 295 l 410 295 q 410 343 399 380 q 388 416 365 437 q 342 457 306 457 l 306 457 q 272 457 247 438 q 221 419 208 383 q 194 346 194 295 l 194 295 q 194 247 204 206 q 213 165 230 127 q 247 88 270 50 l 270 50 l 141 -15 q 109 24 84 70 q 59 116 45 173 q 31 229 31 298 l 31 298 q 31 347 45 397 q 58 446 89 488 q 120 530 173 556 q 225 581 303 581 z m 515 -201 l 515 -201 q 490 -201 462 -198 q 434 -195 410 -189 l 410 -189 l 426 -68 q 443 -72 465 -74 q 486 -77 507 -77 l 507 -77 q 552 -77 580 -65 q 607 -53 622 -32 q 636 -12 642 14 q 647 39 648 66 l 648 66 l 803 295 l 803 117 q 803 53 795 4 q 787 -45 768 -81 q 748 -117 715 -144 l 715 -144 q 681 -172 632 -186 q 583 -201 515 -201 z"},"൯":{"ha":992,"x_min":32,"x_max":988,"o":"m 262 581 l 262 581 q 292 581 319 574 q 345 567 372 550 q 398 533 427 503 l 427 503 l 481 218 l 481 0 l 323 0 l 323 348 q 323 395 319 416 q 315 437 303 448 l 303 448 q 298 453 290 456 q 282 458 273 458 l 273 458 q 254 458 236 444 q 217 429 205 396 q 192 362 192 305 l 192 305 q 192 260 201 217 q 210 173 226 132 q 242 91 263 51 l 263 51 l 130 -14 q 100 37 78 88 q 56 139 44 193 q 32 247 32 307 l 32 307 q 32 384 57 446 q 82 508 134 545 q 185 581 262 581 z m 594 581 l 594 581 q 680 581 735 556 q 789 531 832 488 l 832 488 q 880 440 908 377 q 936 314 936 231 l 936 231 q 936 154 914 100 q 892 45 846 17 q 799 -12 726 -12 l 726 -12 q 659 -12 616 15 q 573 42 552 87 q 531 132 531 186 l 531 186 q 531 248 554 297 q 577 346 623 392 q 669 438 739 489 l 739 489 q 774 516 794 535 q 814 553 823 572 q 831 591 831 618 l 831 618 q 831 641 825 661 q 818 681 810 691 l 810 691 l 951 753 q 968 725 978 695 q 988 664 988 629 l 988 629 q 988 584 972 547 q 955 509 919 473 q 882 436 821 393 l 821 393 q 771 355 742 320 q 712 285 700 251 q 687 217 687 181 l 687 181 q 687 153 696 131 q 705 108 731 108 l 731 108 q 750 108 760 120 q 769 131 773 154 q 777 176 777 207 l 777 207 q 777 268 763 319 q 749 370 720 406 l 720 406 q 701 429 673 445 q 645 461 596 461 l 596 461 q 574 461 555 456 q 536 450 523 439 l 523 439 q 506 425 497 406 q 487 386 484 358 q 481 330 481 290 l 481 290 l 481 29 l 330 29 l 330 312 l 363 467 q 389 499 420 525 q 450 551 492 566 q 534 581 594 581 z"},"൰":{"ha":898,"x_min":-22,"x_max":866,"o":"m 143 569 l 301 569 l 301 168 l 295 128 q 295 43 284 -16 q 273 -76 244 -119 l 244 -119 q 219 -157 174 -179 q 128 -201 60 -201 l 60 -201 q 38 -201 18 -199 q -3 -197 -22 -192 l -22 -192 l -10 -71 q -1 -73 14 -75 q 28 -77 41 -77 l 41 -77 q 68 -77 84 -71 q 99 -66 111 -54 l 111 -54 q 132 -33 138 5 q 143 43 143 109 l 143 109 l 143 569 z m 641 -12 l 641 -12 q 595 -12 559 4 q 523 20 490 55 l 490 55 l 518 73 q 486 28 454 8 q 421 -12 377 -12 l 377 -12 q 342 -12 317 -1 q 291 10 272 29 q 252 47 235 71 l 235 71 l 163 258 l 165 551 l 301 513 l 301 219 q 301 177 306 157 q 311 136 324 124 l 324 124 q 331 118 340 115 q 348 111 361 111 l 361 111 q 372 111 381 115 q 390 118 397 124 l 397 124 q 409 135 415 156 q 420 176 420 221 l 420 221 l 420 569 l 578 569 l 578 220 q 578 177 581 155 q 583 133 595 122 l 595 122 q 600 117 608 114 q 615 111 626 111 l 626 111 q 645 111 663 126 q 681 140 694 174 q 706 207 706 264 l 706 264 q 706 309 698 352 q 689 395 674 436 q 658 477 636 516 l 636 516 l 768 581 q 799 530 821 480 q 843 429 855 376 q 866 322 866 262 l 866 262 q 866 185 841 123 q 816 61 766 25 q 716 -12 641 -12 z"},"൱":{"ha":810,"x_min":32,"x_max":771,"o":"m 262 581 l 262 581 q 292 581 319 574 q 345 567 372 550 q 398 533 427 503 l 427 503 l 481 218 l 481 0 l 323 0 l 323 348 q 323 395 319 416 q 315 437 303 448 l 303 448 q 298 453 290 456 q 282 458 273 458 l 273 458 q 254 458 236 444 q 217 429 205 396 q 192 362 192 305 l 192 305 q 192 260 201 217 q 210 173 226 132 q 242 91 263 51 l 263 51 l 130 -14 q 100 37 78 88 q 56 139 44 193 q 32 247 32 307 l 32 307 q 32 384 57 446 q 82 508 134 545 q 185 581 262 581 z m 551 581 l 551 581 q 628 581 677 542 q 725 502 748 425 q 771 348 771 237 l 771 237 q 771 87 743 -10 q 714 -107 644 -154 q 573 -201 448 -201 l 448 -201 q 429 -201 405 -199 q 381 -197 357 -193 l 357 -193 l 368 -71 q 384 -74 404 -75 q 423 -77 442 -77 l 442 -77 q 497 -77 531 -53 q 564 -30 582 12 q 599 53 605 110 q 611 166 611 232 l 611 232 q 611 293 605 345 q 598 396 582 427 q 565 458 535 458 l 535 458 q 525 458 517 455 q 509 452 503 447 l 503 447 q 489 434 485 410 q 481 386 481 346 l 481 346 l 481 10 l 332 10 l 332 309 l 392 506 q 428 545 465 563 q 502 581 551 581 z"},"൲":{"ha":1271,"x_min":32,"x_max":1253,"o":"m 1088 569 l 1088 569 q 1150 569 1186 546 q 1222 523 1238 487 q 1253 451 1253 411 l 1253 411 q 1253 367 1238 333 q 1222 298 1195 278 l 1195 278 q 1171 260 1147 251 q 1122 242 1091 239 q 1059 235 1013 235 l 1013 235 l 853 235 l 853 357 l 1033 357 q 1061 357 1077 360 q 1092 363 1100 370 l 1100 370 q 1107 376 1110 386 q 1113 395 1113 410 l 1113 410 q 1113 429 1105 440 q 1097 450 1086 450 l 1086 450 q 1070 450 1063 437 q 1056 424 1056 404 l 1056 404 q 1056 373 1067 350 q 1078 327 1091 310 l 1091 310 l 955 302 q 942 322 932 352 q 922 382 922 412 l 922 412 q 922 464 945 499 q 968 533 1006 551 q 1043 569 1088 569 z m 262 581 l 262 581 q 292 581 319 574 q 345 567 372 550 q 398 533 427 503 l 427 503 l 481 218 l 481 0 l 323 0 l 323 348 q 323 395 319 416 q 315 437 303 448 l 303 448 q 298 453 290 456 q 282 458 273 458 l 273 458 q 254 458 236 444 q 217 429 205 396 q 192 362 192 305 l 192 305 q 192 260 201 217 q 210 173 226 132 q 242 91 263 51 l 263 51 l 130 -14 q 100 37 78 88 q 56 139 44 193 q 32 247 32 307 l 32 307 q 32 384 57 446 q 82 508 134 545 q 185 581 262 581 z m 592 581 l 592 581 q 671 581 729 552 q 786 523 824 474 q 861 424 879 362 q 897 299 897 231 l 897 231 q 897 144 874 91 q 851 37 807 13 q 763 -12 699 -12 l 699 -12 q 631 -12 591 14 q 551 39 534 79 q 517 118 517 161 l 517 161 q 517 214 540 255 q 562 295 605 320 l 605 320 q 627 333 654 341 q 680 349 713 353 q 746 357 786 357 l 786 357 l 987 357 l 987 235 l 789 235 q 745 235 725 230 q 705 225 693 216 l 693 216 q 679 206 674 191 q 669 175 669 157 l 669 157 q 669 137 677 125 q 685 112 698 112 l 698 112 q 710 112 720 121 q 729 129 735 153 q 740 176 740 221 l 740 221 q 740 235 740 249 q 740 262 738 275 l 738 275 l 733 311 q 726 353 709 386 q 692 419 665 438 q 637 457 595 457 l 595 457 q 576 457 558 454 q 540 450 523 437 l 523 437 q 507 425 498 408 q 489 390 485 363 q 481 336 481 297 l 481 297 l 481 183 l 394 241 l 386 489 q 408 516 437 537 q 466 558 505 570 q 543 581 592 581 z"},"൳":{"ha":630,"x_min":31,"x_max":608,"o":"m 220 -12 l 220 -12 q 165 -12 123 13 q 80 37 56 91 q 31 145 31 234 l 31 234 q 31 311 57 369 q 82 427 131 463 l 131 463 q 167 490 209 506 q 251 521 306 528 q 360 534 434 534 l 434 534 l 608 534 l 608 409 l 424 409 q 382 409 349 407 q 316 404 292 399 q 267 393 248 384 l 248 384 q 220 371 203 351 q 185 331 176 309 l 176 309 l 173 266 q 172 258 172 249 q 171 240 171 230 l 171 230 q 171 176 177 150 q 183 123 194 115 q 204 106 215 106 l 215 106 q 225 106 232 112 q 239 118 243 133 q 247 147 247 173 l 247 173 q 247 213 238 228 q 228 243 211 243 l 211 243 q 191 243 173 226 q 155 208 125 164 l 125 164 l 99 278 q 130 312 169 334 q 208 356 255 356 l 255 356 q 304 356 336 334 q 367 312 383 273 q 398 234 398 184 l 398 184 q 398 121 378 77 q 358 33 319 11 q 279 -12 220 -12 z"},"൴":{"ha":846,"x_min":31,"x_max":814,"o":"m 413 789 l 571 789 l 571 197 q 571 176 572 161 q 573 146 577 136 q 580 126 585 119 l 585 119 q 590 114 596 111 q 602 108 611 108 l 611 108 q 623 108 633 118 q 642 127 648 151 q 654 175 654 218 l 654 218 q 654 260 644 299 q 634 338 615 371 q 596 403 570 427 q 543 450 509 460 l 509 460 l 461 458 q 452 459 443 460 q 434 460 424 460 l 424 460 q 371 460 325 447 q 279 433 245 406 q 210 378 191 336 q 171 293 171 234 l 171 234 l 171 222 q 171 172 177 147 q 183 122 194 114 q 204 106 215 106 l 215 106 q 225 106 232 112 q 239 118 243 133 q 247 147 247 173 l 247 173 q 247 213 238 228 q 228 243 211 243 l 211 243 q 191 243 173 226 q 155 208 125 164 l 125 164 l 99 278 q 130 312 169 334 q 208 356 255 356 l 255 356 q 304 356 336 334 q 367 312 383 274 q 398 235 398 184 l 398 184 q 398 123 378 80 q 358 36 318 12 q 278 -12 219 -12 l 219 -12 q 165 -12 123 13 q 80 37 56 90 q 31 142 31 227 l 31 227 q 31 316 61 383 q 90 449 144 493 q 197 537 271 559 q 344 581 432 581 l 432 581 q 447 581 459 581 q 471 581 483 579 l 483 579 l 526 575 q 573 568 624 544 q 674 519 717 476 q 760 432 787 369 q 814 306 814 222 l 814 222 q 814 153 791 101 q 767 48 722 18 q 677 -12 610 -12 l 610 -12 q 564 -12 532 0 q 499 11 476 32 l 476 32 q 452 54 438 84 q 424 113 419 153 q 413 192 413 245 l 413 245 l 413 789 z"},"൵":{"ha":1108,"x_min":32,"x_max":1104,"o":"m 334 581 l 334 581 q 404 581 453 559 q 502 537 543 482 l 543 482 l 569 374 l 597 218 l 597 0 l 439 0 l 439 300 q 439 359 432 389 q 425 419 406 436 l 406 436 q 394 447 377 453 q 359 458 333 458 l 333 458 q 292 458 255 436 q 218 413 195 365 q 172 317 172 240 l 172 240 l 172 234 q 172 178 178 151 q 184 123 195 115 q 205 106 216 106 l 216 106 q 226 106 233 112 q 240 118 244 133 q 248 147 248 173 l 248 173 q 248 213 239 228 q 229 243 212 243 l 212 243 q 192 243 174 226 q 156 208 126 164 l 126 164 l 100 278 q 131 312 170 334 q 209 356 256 356 l 256 356 q 305 356 337 334 q 368 312 384 273 q 399 234 399 184 l 399 184 q 399 121 379 77 q 359 33 319 11 q 279 -12 220 -12 l 220 -12 q 166 -12 124 13 q 81 38 57 95 q 32 151 32 246 l 32 246 q 32 357 71 432 q 110 506 178 544 q 246 581 334 581 z m 710 581 l 710 581 q 796 581 851 556 q 905 531 948 488 l 948 488 q 996 440 1024 377 q 1052 314 1052 231 l 1052 231 q 1052 154 1030 100 q 1008 45 962 17 q 915 -12 842 -12 l 842 -12 q 775 -12 732 15 q 689 42 668 87 q 647 132 647 186 l 647 186 q 647 248 670 297 q 693 346 739 392 q 785 438 855 489 l 855 489 q 890 516 910 535 q 930 553 939 572 q 947 591 947 618 l 947 618 q 947 641 941 661 q 934 681 926 691 l 926 691 l 1067 753 q 1084 725 1094 695 q 1104 664 1104 629 l 1104 629 q 1104 584 1088 547 q 1071 509 1035 473 q 998 436 937 393 l 937 393 q 887 355 858 320 q 828 285 816 251 q 803 217 803 181 l 803 181 q 803 153 812 131 q 821 108 847 108 l 847 108 q 866 108 876 120 q 885 131 889 154 q 893 176 893 207 l 893 207 q 893 268 879 319 q 865 370 836 406 l 836 406 q 817 429 789 445 q 761 461 712 461 l 712 461 q 690 461 671 456 q 652 450 639 439 l 639 439 q 622 425 613 406 q 603 386 600 358 q 597 330 597 290 l 597 290 l 597 29 l 446 29 l 446 312 l 479 467 q 505 499 536 525 q 566 551 608 566 q 650 581 710 581 z"},"൶":{"ha":1193,"x_min":26,"x_max":1150,"o":"m 227 372 l 227 372 q 300 372 343 345 q 385 317 404 275 q 423 232 423 187 l 423 187 q 423 159 414 130 q 405 100 391 78 l 391 78 l 385 122 l 579 122 l 618 0 l 296 0 l 249 73 q 258 90 265 116 q 272 141 272 175 l 272 175 q 272 205 263 228 q 254 250 229 250 l 229 250 q 213 250 203 240 q 193 230 189 214 q 184 197 184 177 l 184 177 q 184 134 195 104 q 206 74 222 42 l 222 42 l 96 -13 q 66 28 46 74 q 26 120 26 181 l 26 181 q 26 239 50 282 q 74 324 120 348 q 165 372 227 372 z m 845 581 l 845 581 q 928 581 983 562 q 1038 542 1074 506 l 1074 506 q 1099 481 1116 449 q 1133 416 1142 370 q 1150 323 1150 254 l 1150 254 l 1150 0 l 552 0 l 552 252 q 552 326 562 374 q 571 422 590 455 q 608 487 634 511 l 634 511 q 669 545 723 563 q 776 581 845 581 z m 764 450 l 764 450 q 753 450 745 444 q 736 437 729 426 l 729 426 q 719 409 713 379 q 707 349 707 286 l 707 286 l 707 68 l 677 69 q 710 116 738 170 q 765 224 782 280 q 798 336 798 388 l 798 388 q 798 411 794 425 q 790 438 783 444 q 775 450 764 450 z m 953 352 l 953 352 q 953 310 944 271 q 934 232 916 194 q 897 155 870 112 l 870 112 l 865 118 q 880 120 901 121 q 921 121 942 121 l 942 121 l 995 121 l 995 280 q 995 341 985 379 q 974 416 954 438 q 934 459 904 470 l 904 470 l 903 475 q 928 453 941 421 q 953 389 953 352 z"},"൷":{"ha":1549,"x_min":26,"x_max":1529,"o":"m 227 372 l 227 372 q 300 372 343 345 q 385 317 404 275 q 423 232 423 187 l 423 187 q 423 159 414 130 q 405 100 391 78 l 391 78 l 385 122 l 579 122 l 618 0 l 296 0 l 249 73 q 258 90 265 116 q 272 141 272 175 l 272 175 q 272 205 263 228 q 254 250 229 250 l 229 250 q 213 250 203 240 q 193 230 189 214 q 184 197 184 177 l 184 177 q 184 134 195 104 q 206 74 222 42 l 222 42 l 96 -13 q 66 28 46 74 q 26 120 26 181 l 26 181 q 26 239 50 282 q 74 324 120 348 q 165 372 227 372 z m 706 581 l 706 581 q 736 581 763 574 q 789 567 816 550 q 842 533 871 503 l 871 503 l 925 348 l 925 231 l 767 231 l 767 348 q 767 395 763 416 q 759 437 747 448 l 747 448 q 742 453 734 456 q 726 458 717 458 l 717 458 q 698 458 680 444 q 661 429 649 396 q 636 362 636 305 l 636 305 q 636 244 652 186 q 668 128 695 74 l 695 74 l 622 0 l 562 0 l 532 98 q 514 130 502 162 q 489 193 483 229 q 476 264 476 307 l 476 307 q 476 384 501 446 q 526 508 578 545 q 629 581 706 581 z m 1036 581 l 1036 581 q 1115 581 1173 552 q 1230 523 1268 474 q 1305 424 1323 362 q 1341 299 1341 231 l 1341 231 q 1341 144 1318 91 q 1295 37 1251 13 q 1207 -12 1143 -12 l 1143 -12 q 1075 -12 1035 14 q 995 39 978 79 q 961 118 961 161 l 961 161 q 961 214 984 255 q 1006 295 1049 320 l 1049 320 q 1071 333 1098 341 q 1124 349 1157 353 q 1190 357 1230 357 l 1230 357 l 1274 357 l 1274 235 l 1233 235 q 1189 235 1169 230 q 1149 225 1137 216 l 1137 216 q 1123 206 1118 191 q 1113 175 1113 157 l 1113 157 q 1113 137 1121 125 q 1129 112 1142 112 l 1142 112 q 1154 112 1164 121 q 1173 129 1179 153 q 1184 176 1184 221 l 1184 221 q 1184 235 1184 249 q 1184 262 1182 275 l 1182 275 l 1177 311 q 1170 353 1153 386 q 1136 419 1109 438 q 1081 457 1039 457 l 1039 457 q 1020 457 1002 454 q 984 450 967 437 l 967 437 q 951 425 942 408 q 933 390 929 363 q 925 336 925 297 l 925 297 l 925 261 l 838 241 l 830 489 q 852 516 881 537 q 910 558 949 570 q 987 581 1036 581 z m 1368 448 l 1517 479 q 1522 464 1526 445 q 1529 425 1529 402 l 1529 402 q 1529 360 1518 331 q 1506 301 1485 282 l 1485 282 q 1455 255 1411 245 q 1366 235 1301 235 l 1301 235 l 1248 235 l 1248 357 l 1288 357 q 1313 357 1331 362 q 1348 366 1358 376 l 1358 376 q 1366 384 1370 394 q 1373 404 1373 418 l 1373 418 q 1373 425 1372 433 q 1370 441 1368 448 l 1368 448 z"},"൸":{"ha":1913,"x_min":8,"x_max":1870,"o":"m 1211 581 l 1211 581 q 1237 581 1259 577 q 1280 573 1299 564 q 1318 555 1337 540 q 1355 525 1375 503 l 1375 503 l 1341 494 q 1367 523 1400 542 q 1433 561 1474 571 q 1515 581 1565 581 l 1565 581 q 1648 581 1703 562 q 1758 542 1794 506 l 1794 506 q 1819 481 1836 449 q 1853 416 1862 369 q 1870 322 1870 254 l 1870 254 l 1870 0 l 1424 0 l 1424 110 q 1445 145 1467 190 q 1488 234 1503 285 q 1518 336 1518 388 l 1518 388 q 1518 411 1514 425 q 1510 438 1503 444 q 1495 450 1484 450 l 1484 450 q 1473 450 1465 444 q 1456 437 1449 426 l 1449 426 q 1439 409 1433 379 q 1427 349 1427 286 l 1427 286 l 1427 230 l 1271 230 l 1271 358 q 1271 390 1268 412 q 1264 433 1252 445 l 1252 445 q 1246 451 1238 455 q 1229 458 1217 458 l 1217 458 q 1205 458 1197 455 q 1188 451 1182 445 l 1182 445 q 1170 433 1167 412 q 1163 390 1163 360 l 1163 360 l 1163 237 q 1163 185 1157 148 q 1150 110 1136 84 q 1122 58 1101 38 l 1101 38 q 1076 15 1039 2 q 1001 -12 952 -12 l 952 -12 q 900 -12 863 2 q 825 15 799 38 l 799 38 q 778 58 764 84 q 750 110 744 148 q 737 185 737 237 l 737 237 l 737 358 q 737 390 734 412 q 730 433 718 445 l 718 445 q 712 451 704 455 q 695 458 683 458 l 683 458 q 671 458 663 455 q 654 451 648 445 l 648 445 q 636 433 633 412 q 629 390 629 360 l 629 360 l 629 237 q 629 161 614 114 q 598 67 566 38 l 566 38 q 541 15 505 2 q 468 -12 423 -12 l 423 -12 q 371 -12 329 8 q 287 28 262 69 l 262 69 l 290 60 q 266 34 242 18 q 218 2 191 -5 q 164 -12 131 -12 l 131 -12 q 96 -12 67 -5 q 38 2 8 18 l 8 18 l 55 128 q 75 120 94 116 q 112 111 130 111 l 130 111 q 148 111 159 114 q 170 116 179 123 l 179 123 q 193 135 197 157 q 200 179 200 221 l 200 221 l 200 569 l 358 569 l 358 213 q 358 176 363 156 q 367 135 379 124 l 379 124 q 386 118 395 115 q 403 111 414 111 l 414 111 q 425 111 434 115 q 442 118 449 124 l 449 124 q 461 135 466 156 q 470 176 470 215 l 470 215 l 470 332 q 470 385 477 422 q 484 459 498 486 q 511 512 532 531 l 532 531 q 558 554 595 568 q 632 581 681 581 l 681 581 q 733 581 771 568 q 808 554 833 531 l 833 531 q 854 512 868 486 q 882 459 889 422 q 896 385 896 332 l 896 332 l 896 211 q 896 179 900 158 q 903 136 915 124 l 915 124 q 921 118 930 115 q 938 111 950 111 l 950 111 q 962 111 971 115 q 979 118 985 124 l 985 124 q 997 136 1001 158 q 1004 179 1004 209 l 1004 209 l 1004 332 q 1004 385 1011 422 q 1017 459 1031 486 q 1045 512 1066 531 l 1066 531 q 1092 554 1129 568 q 1165 581 1211 581 z m 1673 352 l 1673 352 q 1673 310 1664 271 q 1654 232 1636 194 q 1617 155 1590 112 l 1590 112 l 1585 118 q 1600 120 1621 121 q 1641 121 1662 121 l 1662 121 l 1715 121 l 1715 280 q 1715 341 1705 379 q 1694 416 1674 438 q 1654 459 1624 470 l 1624 470 l 1623 475 q 1648 453 1661 421 q 1673 389 1673 352 z"},"൹":{"ha":1009,"x_min":32,"x_max":987,"o":"m 262 581 l 262 581 q 292 581 319 574 q 345 567 372 550 q 398 533 427 503 l 427 503 l 481 218 l 481 0 l 323 0 l 323 348 q 323 395 319 416 q 315 437 303 448 l 303 448 q 298 453 290 456 q 282 458 273 458 l 273 458 q 254 458 236 444 q 217 429 205 396 q 192 362 192 305 l 192 305 q 192 260 201 217 q 210 173 226 132 q 242 91 263 51 l 263 51 l 130 -14 q 100 37 78 88 q 56 139 44 193 q 32 247 32 307 l 32 307 q 32 384 57 446 q 82 508 134 545 q 185 581 262 581 z m 592 581 l 592 581 q 671 581 729 552 q 786 523 824 474 q 861 424 879 362 q 897 299 897 231 l 897 231 q 897 144 874 91 q 851 37 807 13 q 763 -12 699 -12 l 699 -12 q 631 -12 591 14 q 551 39 534 79 q 517 118 517 161 l 517 161 q 517 214 540 255 q 562 295 605 320 l 605 320 q 627 333 654 341 q 680 349 713 353 q 746 357 786 357 l 786 357 l 987 357 l 987 235 l 789 235 q 745 235 725 230 q 705 225 693 216 l 693 216 q 679 206 674 191 q 669 175 669 157 l 669 157 q 669 137 677 125 q 685 112 698 112 l 698 112 q 710 112 720 121 q 729 129 735 153 q 740 176 740 221 l 740 221 q 740 235 740 249 q 740 262 738 275 l 738 275 l 733 311 q 726 353 709 386 q 692 419 665 438 q 637 457 595 457 l 595 457 q 576 457 558 454 q 540 450 523 437 l 523 437 q 507 425 498 408 q 489 390 485 363 q 481 336 481 297 l 481 297 l 481 183 l 394 241 l 386 489 q 408 516 437 537 q 466 558 505 570 q 543 581 592 581 z"},"ൺ":{"ha":1347,"x_min":32,"x_max":1317,"o":"m 334 581 l 334 581 q 404 581 453 559 q 502 536 543 481 l 543 481 l 498 496 q 527 537 567 559 q 607 581 656 581 l 656 581 q 699 581 738 564 q 776 547 809 504 l 809 504 l 821 439 l 872 232 l 872 0 l 714 0 l 714 350 q 714 392 710 413 q 705 433 692 445 l 692 445 q 685 451 677 455 q 668 458 655 458 l 655 458 q 645 458 636 455 q 626 451 619 445 l 619 445 q 607 434 602 414 q 597 393 597 348 l 597 348 l 597 0 l 439 0 l 439 300 q 439 359 432 389 q 425 419 406 436 l 406 436 q 394 447 377 453 q 359 458 333 458 l 333 458 q 292 458 255 436 q 218 413 195 365 q 172 317 172 240 l 172 240 l 172 234 q 172 178 178 151 q 184 123 195 115 q 205 106 216 106 l 216 106 q 226 106 233 112 q 240 118 244 133 q 248 147 248 173 l 248 173 q 248 213 239 228 q 229 243 212 243 l 212 243 q 192 243 174 226 q 156 208 126 164 l 126 164 l 100 278 q 131 312 170 334 q 209 356 256 356 l 256 356 q 305 356 337 334 q 368 312 384 273 q 399 234 399 184 l 399 184 q 399 121 379 77 q 359 33 319 11 q 279 -12 220 -12 l 220 -12 q 166 -12 124 13 q 81 38 57 95 q 32 151 32 246 l 32 246 q 32 357 71 432 q 110 506 178 544 q 246 581 334 581 z m 1119 -12 l 1119 -12 q 1052 -12 1009 15 q 965 41 944 92 q 923 142 923 212 l 923 212 q 923 267 936 314 q 949 360 975 403 q 1001 445 1039 487 l 1039 487 l 1066 537 q 1086 561 1102 586 q 1117 610 1117 639 l 1117 639 q 1117 656 1107 669 q 1096 681 1074 681 l 1074 681 q 1064 681 1054 680 q 1043 678 1030 675 l 1030 675 l 1005 788 q 1031 796 1061 800 q 1090 803 1116 803 l 1116 803 q 1180 803 1214 782 q 1247 760 1260 727 q 1273 694 1273 659 l 1273 659 q 1273 607 1248 562 q 1223 516 1182 466 l 1182 466 l 1155 436 q 1136 412 1119 377 q 1101 342 1091 299 q 1080 255 1080 207 l 1080 207 q 1080 175 1083 153 q 1086 131 1095 120 q 1104 108 1120 108 l 1120 108 q 1138 108 1148 129 q 1158 149 1158 207 l 1158 207 q 1158 259 1150 303 q 1142 347 1127 381 q 1112 414 1089 432 l 1089 432 q 1069 446 1049 454 q 1028 462 993 462 l 993 462 q 968 462 949 456 q 929 450 914 438 l 914 438 q 899 426 890 409 q 881 391 877 366 q 872 341 872 306 l 872 306 l 872 20 l 731 20 l 731 232 l 758 467 q 782 499 813 525 q 844 551 889 566 q 934 581 996 581 l 996 581 q 1036 581 1069 574 q 1102 566 1133 551 l 1133 551 q 1143 547 1154 542 q 1165 537 1175 530 l 1175 530 q 1217 502 1249 456 q 1281 410 1299 350 q 1317 290 1317 221 l 1317 221 q 1317 108 1271 48 q 1224 -12 1119 -12 z"},"ൻ":{"ha":956,"x_min":32,"x_max":926,"o":"m 259 581 l 259 581 q 289 581 315 575 q 341 569 366 554 q 390 538 416 511 l 416 511 l 481 272 l 481 0 l 323 0 l 323 348 q 323 395 319 416 q 315 437 303 448 l 303 448 q 298 453 290 456 q 282 458 273 458 l 273 458 q 254 458 236 444 q 217 429 205 396 q 192 362 192 305 l 192 305 q 192 260 201 217 q 210 173 226 132 q 242 91 263 51 l 263 51 l 130 -14 q 100 37 78 88 q 56 139 44 193 q 32 247 32 307 l 32 307 q 32 384 57 446 q 82 508 133 545 q 183 581 259 581 z m 728 -12 l 728 -12 q 661 -12 618 15 q 574 41 553 92 q 532 142 532 212 l 532 212 q 532 267 545 314 q 558 360 584 403 q 610 445 648 487 l 648 487 l 675 537 q 695 561 711 586 q 726 610 726 639 l 726 639 q 726 656 716 669 q 705 681 683 681 l 683 681 q 673 681 663 680 q 652 678 639 675 l 639 675 l 614 788 q 640 796 670 800 q 699 803 725 803 l 725 803 q 789 803 823 782 q 856 760 869 727 q 882 694 882 659 l 882 659 q 882 607 857 562 q 832 516 791 466 l 791 466 l 764 436 q 745 412 728 377 q 710 342 700 299 q 689 255 689 207 l 689 207 q 689 175 692 153 q 695 131 704 120 q 713 108 729 108 l 729 108 q 747 108 757 129 q 767 149 767 207 l 767 207 q 767 259 759 303 q 751 347 736 381 q 721 414 698 432 l 698 432 q 678 446 658 454 q 637 462 602 462 l 602 462 q 577 462 558 456 q 538 450 523 438 l 523 438 q 508 426 499 409 q 490 391 486 366 q 481 341 481 306 l 481 306 l 481 20 l 340 20 l 340 232 l 367 467 q 391 499 423 525 q 454 551 499 566 q 543 581 605 581 l 605 581 q 645 581 678 574 q 711 566 742 551 l 742 551 q 752 547 763 542 q 774 537 784 530 l 784 530 q 826 502 858 456 q 890 410 908 350 q 926 290 926 221 l 926 221 q 926 108 880 48 q 833 -12 728 -12 z"},"ർ":{"ha":681,"x_min":32,"x_max":651,"o":"m 453 -12 l 453 -12 q 386 -12 343 15 q 299 41 278 92 q 257 142 257 212 l 257 212 q 257 267 270 314 q 283 360 309 403 q 335 445 373 487 l 373 487 l 400 537 q 420 561 436 586 q 451 610 451 639 l 451 639 q 451 656 441 669 q 430 681 408 681 l 408 681 q 398 681 388 680 q 377 678 364 675 l 364 675 l 339 788 q 365 796 395 800 q 424 803 450 803 l 450 803 q 514 803 548 782 q 581 760 594 727 q 607 694 607 659 l 607 659 q 607 607 582 562 q 557 516 516 466 l 516 466 l 489 436 q 470 412 453 377 q 435 342 425 299 q 414 255 414 207 l 414 207 q 414 175 417 153 q 420 131 429 120 q 438 108 454 108 l 454 108 q 472 108 482 129 q 492 149 492 207 l 492 207 q 492 246 488 281 q 483 315 475 345 q 466 374 453 397 q 440 419 423 432 l 423 432 q 403 446 386 454 q 368 461 336 461 l 336 461 q 292 461 260 442 q 228 423 211 386 q 194 349 194 295 l 194 295 q 194 247 203 206 q 212 165 229 127 q 246 88 269 50 l 269 50 l 142 -15 q 110 24 85 70 q 60 116 46 173 q 32 229 32 298 l 32 298 q 32 348 47 398 q 61 448 95 490 q 129 531 187 556 q 244 581 329 581 l 329 581 q 370 581 403 574 q 436 566 467 551 l 467 551 q 477 547 488 542 q 499 537 509 530 l 509 530 q 551 502 583 456 q 615 410 633 350 q 651 290 651 221 l 651 221 q 651 108 605 48 q 558 -12 453 -12 z"},"ൽ":{"ha":1107,"x_min":32,"x_max":1077,"o":"m 673 581 l 673 581 q 714 581 749 577 q 784 572 816 564 q 847 555 875 541 l 875 541 l 916 526 q 996 477 1037 400 q 1077 322 1077 221 l 1077 221 q 1077 108 1031 48 q 984 -12 879 -12 l 879 -12 q 812 -12 769 15 q 725 41 704 92 q 683 142 683 212 l 683 212 q 683 267 696 314 q 709 360 735 403 q 761 445 799 487 l 799 487 l 826 537 q 846 561 862 586 q 877 610 877 639 l 877 639 q 877 656 867 669 q 856 681 834 681 l 834 681 q 824 681 814 680 q 803 678 790 675 l 790 675 l 765 788 q 791 796 821 800 q 850 803 876 803 l 876 803 q 940 803 974 782 q 1007 760 1020 727 q 1033 694 1033 659 l 1033 659 q 1033 607 1008 562 q 983 516 942 466 l 942 466 l 915 436 q 896 412 879 377 q 861 342 851 299 q 840 255 840 207 l 840 207 q 840 175 843 153 q 846 131 855 120 q 864 108 880 108 l 880 108 q 898 108 908 129 q 918 149 918 207 l 918 207 q 918 250 911 290 q 903 330 887 363 q 870 395 842 417 l 842 417 l 810 430 q 783 444 751 451 q 718 458 677 458 l 677 458 q 636 458 602 451 q 568 444 542 433 l 542 433 l 518 430 q 467 398 444 340 q 420 281 420 216 l 420 216 q 420 175 425 152 q 430 129 439 120 q 448 110 460 110 l 460 110 q 473 110 482 119 q 491 128 497 152 q 502 175 502 218 l 502 218 q 502 269 491 314 q 479 359 460 393 q 440 426 416 442 l 416 442 l 396 451 q 383 457 367 460 q 350 463 336 463 l 336 463 q 283 463 252 440 q 220 417 207 378 q 193 339 193 291 l 193 291 q 193 248 202 208 q 211 168 228 130 q 244 91 266 53 l 266 53 l 139 -12 q 109 27 85 73 q 60 119 46 175 q 32 231 32 299 l 32 299 q 32 343 45 392 q 58 441 91 484 q 123 527 181 554 q 238 581 327 581 l 327 581 q 380 581 426 568 q 471 555 512 528 l 512 528 l 526 493 q 593 447 626 385 q 659 323 659 219 l 659 219 q 659 141 636 90 q 613 39 569 14 q 525 -12 460 -12 l 460 -12 q 397 -12 353 16 q 309 43 286 95 q 263 147 263 220 l 263 220 q 263 273 276 321 q 289 368 319 408 q 348 448 396 477 l 396 477 l 443 530 q 490 558 549 570 q 608 581 673 581 z"},"ൾ":{"ha":943,"x_min":32,"x_max":913,"o":"m 716 803 l 716 803 q 780 803 813 782 q 845 760 857 727 q 869 694 869 659 l 869 659 q 869 607 844 562 q 819 516 778 466 l 778 466 l 751 436 q 732 412 715 377 q 697 342 687 299 q 676 255 676 207 l 676 207 q 676 175 679 153 q 682 131 691 120 q 700 108 716 108 l 716 108 q 734 108 744 129 q 754 149 754 207 l 754 207 q 754 246 750 281 q 745 315 737 345 q 728 374 715 397 q 702 419 685 432 l 685 432 q 665 446 646 454 q 627 461 597 461 l 597 461 q 572 461 552 455 q 532 448 517 437 l 517 437 q 495 420 485 388 q 475 355 475 287 l 475 287 l 475 233 q 475 183 469 146 q 463 109 450 83 q 437 57 415 37 l 415 37 q 387 12 350 0 q 313 -12 263 -12 l 263 -12 q 185 -12 134 23 q 83 57 58 119 q 32 181 32 262 l 32 262 q 32 325 45 380 q 57 434 80 484 q 102 533 131 582 l 131 582 l 264 518 q 243 476 227 437 q 211 397 202 355 q 192 312 192 262 l 192 262 q 192 205 203 172 q 213 139 230 125 q 247 111 266 111 l 266 111 q 277 111 286 115 q 294 118 300 125 l 300 125 q 310 136 314 153 q 317 169 317 206 l 317 206 l 317 314 q 317 400 343 455 q 369 510 420 541 l 420 541 q 452 561 493 571 q 534 581 586 581 l 586 581 q 636 581 667 574 q 698 566 729 551 l 729 551 l 771 530 q 813 502 845 456 q 877 410 895 350 q 913 290 913 221 l 913 221 q 913 108 867 48 q 820 -12 715 -12 l 715 -12 q 648 -12 605 15 q 561 41 540 92 q 519 142 519 212 l 519 212 q 519 267 532 314 q 545 360 571 403 q 597 445 635 487 l 635 487 l 662 537 q 682 561 698 586 q 713 610 713 639 l 713 639 q 713 656 703 669 q 692 681 670 681 l 670 681 q 660 681 650 680 q 639 678 626 675 l 626 675 l 601 788 q 627 796 659 800 q 690 803 716 803 z"},"ൿ":{"ha":1113,"x_min":26,"x_max":1087,"o":"m 470 581 l 470 581 q 553 581 603 546 q 653 511 676 446 q 699 380 699 287 l 699 287 q 699 185 674 119 q 648 52 597 20 q 546 -12 471 -12 l 471 -12 q 408 -12 366 10 q 324 31 298 71 l 298 71 q 268 111 255 167 q 241 223 241 294 l 241 294 q 241 435 299 508 q 357 581 470 581 z m 470 459 l 470 459 q 430 459 414 421 q 398 383 398 283 l 398 283 q 398 220 405 182 q 412 144 428 127 q 444 110 471 110 l 471 110 q 496 110 512 127 q 527 143 535 182 q 542 220 542 286 l 542 286 q 542 351 535 389 q 528 426 512 443 q 496 459 470 459 z m 208 -12 l 208 -12 q 120 -12 73 35 q 26 81 26 163 l 26 163 q 26 222 51 260 q 75 298 117 320 l 117 320 q 142 333 172 341 q 201 349 239 353 q 276 356 324 356 l 324 356 l 833 356 q 895 356 942 344 q 989 332 1023 305 l 1023 305 q 1052 282 1070 247 q 1087 211 1087 161 l 1087 161 q 1087 85 1045 37 q 1003 -12 911 -12 l 911 -12 q 817 -12 774 38 q 730 88 730 162 l 730 162 q 730 192 737 220 q 743 248 754 279 l 754 279 q 759 291 762 304 q 764 317 769 330 l 769 330 q 780 359 795 393 q 810 427 829 468 l 829 468 q 851 517 864 549 q 876 580 882 601 q 887 622 887 639 l 887 639 q 887 656 877 669 q 866 681 844 681 l 844 681 q 834 681 824 680 q 813 678 800 675 l 800 675 l 775 788 q 801 796 831 800 q 860 803 886 803 l 886 803 q 950 803 984 782 q 1017 760 1030 727 q 1043 694 1043 659 l 1043 659 q 1043 637 1039 613 q 1034 589 1025 561 q 1016 533 1002 500 q 988 466 969 425 l 969 425 q 950 383 938 356 q 926 329 916 306 l 916 306 q 911 293 908 282 q 904 270 900 259 l 900 259 q 888 228 882 206 q 876 184 876 161 l 876 161 q 876 149 879 137 q 882 125 890 118 q 897 110 909 110 l 909 110 q 925 110 932 122 q 939 133 939 155 l 939 155 q 939 176 933 191 q 926 205 915 214 l 915 214 q 901 225 878 230 q 854 234 815 234 l 815 234 l 282 234 q 251 234 232 230 q 212 225 199 217 l 199 217 q 186 208 180 196 q 173 184 173 167 l 173 167 q 173 150 179 137 q 184 123 196 116 q 208 109 227 109 l 227 109 q 250 109 269 119 q 287 129 303 146 l 303 146 l 371 37 q 345 19 319 8 q 293 -3 266 -7 q 239 -12 208 -12 z"},"!":{"ha":293,"x_min":52,"x_max":240,"o":"m 217 253 l 76 253 l 52 714 l 240 714 l 217 253 z m 146 -12 l 146 -12 q 103 -12 78 13 q 53 37 53 81 l 53 81 q 53 126 77 151 q 100 176 146 176 l 146 176 q 190 176 214 151 q 237 126 237 81 l 237 81 q 237 37 213 13 q 188 -12 146 -12 z"},"\"":{"ha":499,"x_min":55,"x_max":444,"o":"m 204 542 l 75 542 l 55 800 l 224 800 l 204 542 z m 424 542 l 295 542 l 275 800 l 444 800 l 424 542 z"},"#":{"ha":570,"x_min":30,"x_max":540,"o":"m 180 0 l 63 0 l 99 192 l 30 192 l 30 305 l 121 305 l 141 409 l 53 409 l 53 522 l 162 522 l 199 714 l 316 714 l 279 522 l 353 522 l 390 714 l 507 714 l 470 522 l 540 522 l 540 409 l 449 409 l 429 305 l 517 305 l 517 192 l 407 192 l 371 0 l 254 0 l 290 192 l 216 192 l 180 0 z m 258 409 l 238 305 l 312 305 l 332 409 l 258 409 z"},"%":{"ha":832,"x_min":28,"x_max":804,"o":"m 329 0 l 209 0 l 503 714 l 623 714 l 329 0 z m 183 276 l 183 276 q 107 276 68 337 q 28 398 28 499 l 28 499 q 28 606 68 665 q 107 724 187 724 l 187 724 q 263 724 303 664 q 342 604 342 501 l 342 501 q 342 394 303 335 q 263 276 183 276 z m 185 387 l 185 387 q 202 387 210 412 q 217 436 217 500 l 217 500 q 217 563 210 588 q 202 613 185 613 l 185 613 q 169 613 161 588 q 153 563 153 501 l 153 501 q 153 437 161 412 q 169 387 185 387 z m 645 -8 l 645 -8 q 569 -8 530 53 q 490 114 490 215 l 490 215 q 490 322 530 381 q 569 440 649 440 l 649 440 q 725 440 765 380 q 804 319 804 217 l 804 217 q 804 110 765 51 q 725 -8 645 -8 z m 653 103 l 653 103 q 670 103 678 128 q 685 153 685 216 l 685 216 q 685 279 678 304 q 670 329 653 329 l 653 329 q 637 329 629 304 q 621 279 621 217 l 621 217 q 621 155 629 129 q 637 103 653 103 z"},"'":{"ha":279,"x_min":55,"x_max":224,"o":"m 204 542 l 75 542 l 55 800 l 224 800 l 204 542 z"},"(":{"ha":372,"x_min":46,"x_max":346,"o":"m 46 279 l 46 279 q 46 377 63 469 q 79 560 112 644 q 145 727 193 800 l 193 800 l 346 800 q 301 718 271 635 q 240 551 224 463 q 208 375 208 279 l 208 279 q 208 183 224 94 q 240 5 271 -78 q 301 -162 346 -244 l 346 -244 l 193 -244 q 145 -170 112 -86 q 79 -3 63 89 q 46 181 46 279 z"},")":{"ha":372,"x_min":26,"x_max":326,"o":"m 326 277 l 326 277 q 326 180 310 89 q 293 -3 261 -86 q 228 -170 179 -244 l 179 -244 l 26 -244 q 71 -162 102 -78 q 132 5 148 94 q 164 182 164 277 l 164 277 q 164 374 148 463 q 132 551 102 635 q 71 718 26 800 l 26 800 l 179 800 q 228 727 261 643 q 293 559 310 468 q 326 376 326 277 z"},"*":{"ha":544,"x_min":35,"x_max":509,"o":"m 201 800 l 343 800 l 325 635 l 492 682 l 509 544 l 362 534 l 459 404 l 337 340 l 270 472 l 212 341 l 85 404 l 182 534 l 35 546 l 56 682 l 219 635 l 201 800 z"},"+":{"ha":496,"x_min":34,"x_max":462,"o":"m 314 111 l 181 111 l 181 288 l 34 288 l 34 417 l 181 417 l 181 597 l 314 597 l 314 417 l 462 417 l 462 288 l 314 288 l 314 111 z"},",":{"ha":288,"x_min":34,"x_max":234,"o":"m 70 146 l 229 146 l 234 135 q 227 80 217 32 q 207 -17 196 -59 q 184 -102 169 -139 l 169 -139 l 34 -139 q 41 -100 49 -48 q 56 4 62 57 q 68 109 70 146 l 70 146 z"},"-":{"ha":338,"x_min":36,"x_max":302,"o":"m 302 196 l 36 196 l 36 341 l 302 341 l 302 196 z"},".":{"ha":288,"x_min":52,"x_max":236,"o":"m 145 -12 l 145 -12 q 102 -12 77 13 q 52 37 52 81 l 52 81 q 52 126 76 151 q 100 176 145 176 l 145 176 q 189 176 213 151 q 236 126 236 81 l 236 81 q 236 37 212 13 q 188 -12 145 -12 z"},"/":{"ha":450,"x_min":17,"x_max":433,"o":"m 170 -244 l 17 -244 l 280 800 l 433 800 l 170 -244 z"},":":{"ha":288,"x_min":53,"x_max":236,"o":"m 146 -12 l 146 -12 q 103 -12 78 13 q 53 37 53 81 l 53 81 q 53 126 77 151 q 100 176 146 176 l 146 176 q 190 176 213 151 q 236 126 236 81 l 236 81 q 236 37 213 13 q 189 -12 146 -12 z m 146 376 l 146 376 q 103 376 78 401 q 53 425 53 469 l 53 469 q 53 514 77 539 q 100 563 146 563 l 146 563 q 190 563 213 539 q 236 514 236 469 l 236 469 q 236 425 213 401 q 189 376 146 376 z"},";":{"ha":288,"x_min":34,"x_max":236,"o":"m 71 146 l 230 146 l 235 135 q 228 80 218 32 q 208 -17 196 -59 q 184 -102 170 -139 l 170 -139 l 34 -139 q 42 -99 50 -47 q 57 4 63 56 q 68 108 71 146 l 71 146 z m 146 376 l 146 376 q 103 376 78 401 q 53 425 53 469 l 53 469 q 53 514 77 539 q 100 563 146 563 l 146 563 q 190 563 213 539 q 236 514 236 469 l 236 469 q 236 425 213 401 q 189 376 146 376 z"},"<":{"ha":496,"x_min":34,"x_max":462,"o":"m 462 260 l 462 115 l 34 315 l 34 405 l 462 606 l 462 462 l 221 360 l 462 260 z"},"=":{"ha":496,"x_min":34,"x_max":462,"o":"m 462 177 l 34 177 l 34 306 l 462 306 l 462 177 z m 462 399 l 34 399 l 34 528 l 462 528 l 462 399 z"},">":{"ha":496,"x_min":34,"x_max":462,"o":"m 462 316 l 34 115 l 34 259 l 275 361 l 34 461 l 34 606 l 462 406 l 462 316 z"},"?":{"ha":431,"x_min":30,"x_max":408,"o":"m 208 724 l 208 724 q 306 724 357 677 q 408 629 408 551 l 408 551 q 408 510 398 476 q 387 441 365 410 q 342 378 306 345 l 306 345 q 288 328 279 315 q 269 301 266 289 q 263 277 263 263 l 263 263 l 263 253 l 126 253 l 126 276 q 126 312 133 338 q 139 364 153 385 q 167 406 190 428 l 190 428 q 209 446 222 461 q 235 476 242 492 q 249 507 249 526 l 249 526 q 249 552 232 566 q 215 579 185 579 l 185 579 q 163 579 137 570 q 110 561 90 550 l 90 550 l 30 673 q 76 698 119 711 q 162 724 208 724 z m 195 -12 l 195 -12 q 152 -12 127 13 q 102 37 102 81 l 102 81 q 102 126 126 151 q 150 176 195 176 l 195 176 q 239 176 263 151 q 286 126 286 81 l 286 81 q 286 37 263 13 q 239 -12 195 -12 z"},"[":{"ha":348,"x_min":62,"x_max":313,"o":"m 313 -244 l 62 -244 l 62 800 l 313 800 l 313 676 l 212 676 l 212 -120 l 313 -120 l 313 -244 z"},"\\":{"ha":450,"x_min":17,"x_max":433,"o":"m 433 -244 l 280 -244 l 17 800 l 170 800 l 433 -244 z"},"]":{"ha":348,"x_min":35,"x_max":286,"o":"m 286 -244 l 35 -244 l 35 -120 l 136 -120 l 136 676 l 35 676 l 35 800 l 286 800 l 286 -244 z"},"^":{"ha":496,"x_min":11,"x_max":485,"o":"m 158 301 l 11 301 l 206 714 l 290 714 l 485 301 l 338 301 l 249 504 l 158 301 z"},"_":{"ha":394,"x_min":-2,"x_max":396,"o":"m 396 -162 l -2 -162 l -2 -90 l 396 -90 l 396 -162 z"},"{":{"ha":425,"x_min":24,"x_max":390,"o":"m 390 -110 l 390 -244 q 290 -244 237 -226 q 184 -209 164 -171 q 144 -134 144 -76 l 144 -76 l 144 123 q 144 168 117 186 q 90 203 24 206 l 24 206 l 24 352 q 90 355 117 373 q 144 390 144 435 l 144 435 l 144 632 q 144 691 164 728 q 184 765 237 783 q 290 800 390 800 l 390 800 l 390 666 q 337 666 317 654 q 297 641 297 606 l 297 606 l 297 406 q 297 349 267 320 q 237 291 180 282 l 180 282 l 180 276 q 237 267 267 238 q 297 209 297 152 l 297 152 l 297 -50 q 297 -73 306 -86 q 314 -99 335 -104 q 355 -110 390 -110 l 390 -110 z"},"|":{"ha":551,"x_min":210,"x_max":341,"o":"m 341 -244 l 210 -244 l 210 800 l 341 800 l 341 -244 z"},"}":{"ha":425,"x_min":35,"x_max":401,"o":"m 35 666 l 35 800 q 135 800 188 783 q 241 765 261 728 q 281 691 281 632 l 281 632 l 281 434 q 281 389 308 372 q 335 354 401 351 l 401 351 l 401 205 q 335 202 308 185 q 281 167 281 122 l 281 122 l 281 -76 q 281 -134 261 -171 q 241 -209 188 -226 q 135 -244 35 -244 l 35 -244 l 35 -110 q 88 -110 108 -97 q 128 -84 128 -50 l 128 -50 l 128 151 q 128 208 158 237 q 188 266 245 275 l 245 275 l 245 281 q 188 290 158 319 q 128 348 128 405 l 128 405 l 128 606 q 128 629 120 642 q 111 655 91 661 q 71 666 35 666 l 35 666 z"},"~":{"ha":496,"x_min":34,"x_max":462,"o":"m 231 291 l 231 291 q 204 304 184 311 q 163 317 139 317 l 139 317 q 112 317 85 301 q 58 285 34 258 l 34 258 l 34 393 q 58 420 85 433 q 112 446 146 446 l 146 446 q 175 446 205 437 q 235 428 264 414 l 264 414 q 291 401 313 395 q 334 388 357 388 l 357 388 q 384 388 411 404 q 438 420 462 447 l 462 447 l 462 312 q 438 285 411 272 q 384 259 350 259 l 350 259 q 321 259 292 268 q 263 276 231 291 z"}," ":{"ha":221,"x_min":0,"x_max":0,"o":""},"­":{"ha":338,"x_min":36,"x_max":302,"o":"m 302 196 l 36 196 l 36 341 l 302 341 l 302 196 z"},"–":{"ha":500,"x_min":39,"x_max":461,"o":"m 461 203 l 39 203 l 39 334 l 461 334 l 461 203 z"},"—":{"ha":1000,"x_min":39,"x_max":961,"o":"m 961 203 l 39 203 l 39 334 l 961 334 l 961 203 z"},"‘":{"ha":281,"x_min":40,"x_max":241,"o":"m 204 515 l 45 515 l 40 526 q 48 581 58 630 q 67 678 80 721 q 92 764 106 800 l 106 800 l 241 800 q 233 759 226 707 q 218 654 213 603 q 207 552 204 515 l 204 515 z"},"’":{"ha":280,"x_min":40,"x_max":240,"o":"m 76 800 l 235 800 l 240 789 q 233 734 223 686 q 213 637 202 595 q 190 552 175 515 l 175 515 l 40 515 q 45 541 51 579 q 57 617 62 659 q 67 700 71 738 q 75 775 76 800 l 76 800 z"},"“":{"ha":510,"x_min":40,"x_max":470,"o":"m 434 515 l 276 515 l 271 526 q 279 581 289 630 q 298 678 310 721 q 322 764 336 800 l 336 800 l 470 800 q 462 756 455 707 q 447 657 442 608 q 436 558 434 515 l 434 515 z m 204 515 l 45 515 l 40 526 q 48 581 58 630 q 67 678 80 721 q 92 764 106 800 l 106 800 l 241 800 q 233 759 226 707 q 218 654 213 603 q 207 552 204 515 l 204 515 z"},"”":{"ha":510,"x_min":40,"x_max":470,"o":"m 307 800 l 464 800 l 470 789 q 463 734 453 686 q 443 637 431 595 q 419 552 404 515 l 404 515 l 270 515 q 279 564 286 612 q 293 660 299 708 q 304 755 307 800 l 307 800 z m 76 800 l 235 800 l 240 789 q 233 734 223 686 q 213 637 202 595 q 190 552 175 515 l 175 515 l 40 515 q 45 541 51 579 q 56 617 62 659 q 67 700 71 738 q 75 775 76 800 l 76 800 z"},"…":{"ha":839,"x_min":52,"x_max":787,"o":"m 145 -12 l 145 -12 q 102 -12 77 13 q 52 37 52 81 l 52 81 q 52 126 76 151 q 100 176 145 176 l 145 176 q 189 176 213 151 q 236 126 236 81 l 236 81 q 236 37 212 13 q 188 -12 145 -12 z m 420 -12 l 420 -12 q 377 -12 352 13 q 327 37 327 81 l 327 81 q 327 126 351 151 q 375 176 420 176 l 420 176 q 464 176 488 151 q 511 126 511 81 l 511 81 q 511 37 487 13 q 463 -12 420 -12 z m 696 -12 l 696 -12 q 653 -12 628 13 q 603 37 603 81 l 603 81 q 603 126 627 151 q 651 176 696 176 l 696 176 q 740 176 764 151 q 787 126 787 81 l 787 81 q 787 37 763 13 q 739 -12 696 -12 z"},"×":{"ha":496,"x_min":29,"x_max":466,"o":"m 247 441 l 375 570 l 466 479 l 336 352 l 466 225 l 375 134 l 247 263 l 120 134 l 29 225 l 158 352 l 29 479 l 120 570 l 247 441 z"},"÷":{"ha":496,"x_min":34,"x_max":462,"o":"m 462 288 l 34 288 l 34 417 l 462 417 l 462 288 z m 248 69 l 248 69 q 211 69 190 92 q 168 114 168 155 l 168 155 q 168 196 189 219 q 209 241 248 241 l 248 241 q 287 241 307 219 q 327 196 327 155 l 327 155 q 327 115 307 92 q 286 69 248 69 z m 248 464 l 248 464 q 211 464 190 487 q 168 509 168 550 l 168 550 q 168 591 189 614 q 209 636 248 636 l 248 636 q 287 636 307 614 q 327 591 327 550 l 327 550 q 327 510 307 487 q 286 464 248 464 z"},"−":{"ha":496,"x_min":34,"x_max":462,"o":"m 462 288 l 34 288 l 34 417 l 462 417 l 462 288 z"},"₹":{"ha":496,"x_min":46,"x_max":454,"o":"m 361 0 l 183 0 l 47 243 l 64 350 l 87 350 q 119 350 138 356 q 157 361 168 372 l 168 372 q 183 387 188 409 q 193 431 193 476 l 193 476 q 193 512 187 537 q 181 561 162 578 l 162 578 q 152 587 136 592 q 119 597 90 597 l 90 597 l 46 597 l 46 714 l 454 714 l 454 597 l 296 597 q 316 581 331 549 q 346 517 346 474 l 346 474 q 346 405 331 361 q 316 317 283 292 q 249 266 195 253 l 195 253 l 191 274 l 361 0 z m 454 411 l 46 411 l 46 534 l 454 534 l 454 411 z"},"꠰":{"ha":268,"x_min":55,"x_max":213,"o":"m 55 0 l 55 569 l 213 569 l 213 0 l 55 0 z"},"꠱":{"ha":469,"x_min":55,"x_max":414,"o":"m 55 0 l 55 569 l 209 569 l 209 0 l 55 0 z m 260 0 l 260 569 l 414 569 l 414 0 l 260 0 z"},"꠲":{"ha":670,"x_min":55,"x_max":615,"o":"m 55 0 l 55 569 l 208 569 l 208 0 l 55 0 z m 259 0 l 259 569 l 411 569 l 411 0 l 259 0 z m 462 0 l 462 569 l 615 569 l 615 0 l 462 0 z"},"॑":{"ha":0,"x_min":-332,"x_max":-227,"o":"m -332 648 l -332 864 l -227 864 l -227 648 l -332 648 z"},"॒":{"ha":0,"x_min":-491,"x_max":-67,"o":"m -67 -82 l -67 -182 l -491 -182 l -491 -82 l -67 -82 z"},"।":{"ha":320,"x_min":106,"x_max":267,"o":"m 267 -49 l 106 -49 l 106 610 l 267 610 l 267 -49 z"},"॥":{"ha":559,"x_min":106,"x_max":506,"o":"m 506 -49 l 345 -49 l 345 610 l 506 610 l 506 -49 z m 267 -49 l 106 -49 l 106 610 l 267 610 l 267 -49 z"},"᳚":{"ha":0,"x_min":-388,"x_max":-169,"o":"m -388 648 l -388 864 l -300 864 l -300 648 l -388 648 z m -257 648 l -257 864 l -169 864 l -169 648 l -257 648 z"},"̇":{"ha":0,"x_min":-298,"x_max":-126,"o":"m -298 700 l -298 700 q -298 751 -272 768 q -247 785 -212 785 l -212 785 q -177 785 -151 768 q -126 751 -126 700 l -126 700 q -126 651 -151 634 q -177 616 -212 616 l -212 616 q -247 616 -272 634 q -298 651 -298 700 z"},"̣":{"ha":0,"x_min":-298,"x_max":-126,"o":"m -298 -137 l -298 -137 q -298 -86 -272 -69 q -247 -52 -213 -52 l -213 -52 q -178 -52 -152 -69 q -126 -86 -126 -137 l -126 -137 q -126 -186 -152 -203 q -178 -221 -213 -221 l -213 -221 q -247 -221 -272 -203 q -298 -186 -298 -137 z"},"‐":{"ha":338,"x_min":36,"x_max":302,"o":"m 302 196 l 36 196 l 36 341 l 302 341 l 302 196 z"},"​":{"ha":0,"x_min":0,"x_max":0,"o":""},"‌":{"ha":0,"x_min":0,"x_max":0,"o":""},"‍":{"ha":0,"x_min":-161,"x_max":161,"o":"m 29 -244 l -29 -244 l -29 565 l -121 474 l -161 514 l -40 631 l -161 748 l -121 788 l 0 669 l 121 788 l 161 748 l 40 631 l 161 514 l 121 474 l 29 565 l 29 -244 z"},"◌":{"ha":562,"x_min":57,"x_max":504,"o":"m 89 231 l 89 231 q 57 231 57 264 l 57 264 q 57 295 89 295 l 89 295 q 121 295 121 264 l 121 264 q 121 231 89 231 z m 138 95 l 138 95 q 106 95 106 127 l 106 127 q 106 158 138 158 l 138 158 q 169 158 169 127 l 169 127 q 169 95 138 95 z m 281 40 l 281 40 q 249 40 249 72 l 249 72 q 249 104 281 104 l 281 104 q 312 104 312 72 l 312 72 q 312 40 281 40 z m 138 369 l 138 369 q 106 369 106 401 l 106 401 q 106 432 138 432 l 138 432 q 169 432 169 401 l 169 401 q 169 369 138 369 z m 423 95 l 423 95 q 391 95 391 127 l 391 127 q 391 158 423 158 l 423 158 q 455 158 455 127 l 455 127 q 455 95 423 95 z m 281 424 l 281 424 q 249 424 249 456 l 249 456 q 249 487 281 487 l 281 487 q 312 487 312 456 l 312 456 q 312 424 281 424 z m 472 231 l 472 231 q 441 231 441 264 l 441 264 q 441 295 472 295 l 472 295 q 504 295 504 264 l 504 264 q 504 231 472 231 z m 423 369 l 423 369 q 391 369 391 401 l 391 401 q 391 432 423 432 l 423 432 q 455 432 455 401 l 455 401 q 455 369 423 369 z"},"«":{"ha":560,"x_min":22,"x_max":533,"o":"m 22 273 l 22 287 l 177 519 l 294 457 l 193 280 l 294 104 l 177 42 l 22 273 z m 261 273 l 261 287 l 416 519 l 533 457 l 433 280 l 533 104 l 416 42 l 261 273 z"},"»":{"ha":560,"x_min":27,"x_max":538,"o":"m 538 287 l 538 273 l 383 42 l 266 104 l 367 280 l 266 457 l 383 519 l 538 287 z m 299 287 l 299 273 l 144 42 l 27 104 l 127 280 l 27 457 l 144 519 l 299 287 z"},"̈":{"ha":0,"x_min":-169,"x_max":169,"o":"m -169 690 l -169 690 q -169 727 -149 747 q -130 767 -98 767 l -98 767 q -64 767 -44 746 q -25 725 -25 690 l -25 690 q -25 656 -44 635 q -64 614 -98 614 l -98 614 q -130 614 -149 634 q -169 654 -169 690 z m 24 690 l 24 690 q 24 727 44 747 q 63 767 96 767 l 96 767 q 131 767 150 746 q 169 725 169 690 l 169 690 q 169 656 150 635 q 131 614 96 614 l 96 614 q 62 614 43 635 q 24 655 24 690 z"},"̀":{"ha":0,"x_min":-412,"x_max":-152,"o":"m -412 766 l -230 766 q -221 747 -206 718 q -191 688 -176 661 q -161 634 -152 620 l -152 620 l -152 606 l -271 606 q -283 617 -302 637 q -322 657 -343 680 q -365 703 -383 724 q -402 744 -412 756 l -412 756 l -412 766 z"},"́":{"ha":0,"x_min":-362,"x_max":-102,"o":"m -102 766 l -102 756 q -112 743 -128 725 q -145 707 -164 686 q -184 665 -204 645 q -224 624 -243 606 l -243 606 l -362 606 l -362 620 q -346 647 -332 672 q -318 697 -306 721 q -294 744 -284 766 l -284 766 l -102 766 z"},"̋":{"ha":0,"x_min":-140,"x_max":253,"o":"m 253 766 l 253 756 q 247 742 232 723 q 217 703 198 682 q 178 661 158 641 q 137 621 120 606 l 120 606 l 37 606 l 37 620 q 55 656 69 685 q 83 713 93 734 q 102 754 107 766 l 107 766 l 253 766 z m 75 766 l 75 756 q 68 741 54 722 q 39 703 20 683 q 1 662 -21 643 q -43 623 -64 606 l -64 606 l -140 606 l -140 620 q -122 657 -108 685 q -95 713 -85 734 q -75 754 -70 766 l -70 766 l 75 766 z"},"̄":{"ha":0,"x_min":-149,"x_max":148,"o":"m -149 736 l 148 736 l 148 621 l -149 621 l -149 736 z"},"˙":{"ha":252,"x_min":40,"x_max":212,"o":"m 126 776 l 126 776 q 171 776 192 755 q 212 733 212 691 l 212 691 q 212 649 191 628 q 169 607 126 607 l 126 607 q 83 607 62 628 q 40 649 40 691 l 40 691 q 40 734 61 755 q 81 776 126 776 z"},"°":{"ha":359,"x_min":20,"x_max":339,"o":"m 179 416 l 179 416 q 134 416 98 436 q 62 455 41 490 q 20 525 20 570 l 20 570 q 20 616 41 651 q 62 685 98 705 q 134 724 179 724 l 179 724 q 225 724 261 705 q 297 685 318 651 q 339 616 339 570 l 339 570 q 339 525 318 490 q 297 455 261 436 q 225 416 179 416 z m 179 510 l 179 510 q 208 510 224 526 q 239 542 239 570 l 239 570 q 239 598 224 614 q 208 630 179 630 l 179 630 q 151 630 136 614 q 120 598 120 570 l 120 570 q 120 542 136 526 q 151 510 179 510 z"},"A":{"ha":574,"x_min":0,"x_max":574,"o":"m 574 0 l 392 0 l 365 139 l 211 139 l 184 0 l 0 0 l 174 714 l 398 714 l 574 0 z m 339 285 l 310 445 q 305 472 301 497 q 297 522 294 546 q 291 569 288 589 l 288 589 q 286 570 283 547 q 280 524 276 499 q 271 474 266 447 l 266 447 l 236 285 l 339 285 z"},"Á":{"ha":574,"x_min":0,"x_max":574,"o":"m 574 0 l 392 0 l 365 139 l 211 139 l 184 0 l 0 0 l 174 714 l 398 714 l 574 0 z m 339 285 l 310 445 q 305 472 301 497 q 297 522 294 546 q 291 569 288 589 l 288 589 q 286 570 283 547 q 280 524 276 499 q 271 474 266 447 l 266 447 l 236 285 l 339 285 z m 448 927 l 448 917 q 438 904 422 886 q 405 868 386 847 q 366 826 346 806 q 326 785 307 767 l 307 767 l 188 767 l 188 781 q 204 808 218 833 q 232 858 244 882 q 256 905 266 927 l 266 927 l 448 927 z"},"Ă":{"ha":574,"x_min":0,"x_max":574,"o":"m 574 0 l 392 0 l 365 139 l 211 139 l 184 0 l 0 0 l 174 714 l 398 714 l 574 0 z m 339 285 l 310 445 q 305 472 301 497 q 297 522 294 546 q 291 569 288 589 l 288 589 q 286 570 283 547 q 280 524 276 499 q 271 474 266 447 l 266 447 l 236 285 l 339 285 z m 352 948 l 447 948 q 447 893 426 852 q 404 811 368 789 q 332 767 287 767 l 287 767 q 218 767 174 813 q 129 859 129 948 l 129 948 l 224 948 q 226 924 233 909 q 240 894 254 887 q 267 879 287 879 l 287 879 q 307 879 321 886 q 335 892 343 908 q 351 923 352 948 l 352 948 z"},"Â":{"ha":574,"x_min":0,"x_max":574,"o":"m 574 0 l 392 0 l 365 139 l 211 139 l 184 0 l 0 0 l 174 714 l 398 714 l 574 0 z m 339 285 l 310 445 q 305 472 301 497 q 297 522 294 546 q 291 569 288 589 l 288 589 q 286 570 283 547 q 280 524 276 499 q 271 474 266 447 l 266 447 l 236 285 l 339 285 z m 215 927 l 362 927 q 374 905 388 882 q 402 858 420 833 q 437 808 457 781 l 457 781 l 457 767 l 358 767 q 343 779 326 797 q 308 815 288 840 l 288 840 q 267 815 250 797 q 233 778 220 767 l 220 767 l 119 767 l 119 781 q 133 798 152 826 q 171 854 189 882 q 207 910 215 927 l 215 927 z"},"Ä":{"ha":574,"x_min":0,"x_max":574,"o":"m 574 0 l 392 0 l 365 139 l 211 139 l 184 0 l 0 0 l 174 714 l 398 714 l 574 0 z m 339 285 l 310 445 q 305 472 301 497 q 297 522 294 546 q 291 569 288 589 l 288 589 q 286 570 283 547 q 280 524 276 499 q 271 474 266 447 l 266 447 l 236 285 l 339 285 z m 119 851 l 119 851 q 119 888 139 908 q 158 928 190 928 l 190 928 q 224 928 244 907 q 263 886 263 851 l 263 851 q 263 817 244 796 q 224 775 190 775 l 190 775 q 158 775 139 795 q 119 815 119 851 z m 312 851 l 312 851 q 312 888 332 908 q 351 928 384 928 l 384 928 q 419 928 438 907 q 457 886 457 851 l 457 851 q 457 817 438 796 q 419 775 384 775 l 384 775 q 350 775 331 796 q 312 816 312 851 z"},"À":{"ha":574,"x_min":0,"x_max":574,"o":"m 574 0 l 392 0 l 365 139 l 211 139 l 184 0 l 0 0 l 174 714 l 398 714 l 574 0 z m 339 285 l 310 445 q 305 472 301 497 q 297 522 294 546 q 291 569 288 589 l 288 589 q 286 570 283 547 q 280 524 276 499 q 271 474 266 447 l 266 447 l 236 285 l 339 285 z m 138 927 l 320 927 q 329 908 344 879 q 359 849 374 822 q 389 795 398 781 l 398 781 l 398 767 l 279 767 q 267 778 248 798 q 228 818 207 841 q 185 864 167 885 q 148 905 138 917 l 138 917 l 138 927 z"},"Ā":{"ha":574,"x_min":0,"x_max":574,"o":"m 574 0 l 392 0 l 365 139 l 211 139 l 184 0 l 0 0 l 174 714 l 398 714 l 574 0 z m 339 285 l 310 445 q 305 472 301 497 q 297 522 294 546 q 291 569 288 589 l 288 589 q 286 570 283 547 q 280 524 276 499 q 271 474 266 447 l 266 447 l 236 285 l 339 285 z m 140 897 l 437 897 l 437 782 l 140 782 l 140 897 z"},"Ą":{"ha":574,"x_min":0,"x_max":574,"o":"m 574 0 l 392 0 l 365 139 l 211 139 l 184 0 l 0 0 l 174 714 l 398 714 l 574 0 z m 339 285 l 310 445 q 305 472 301 497 q 297 522 294 546 q 291 569 288 589 l 288 589 q 286 570 283 547 q 280 524 276 499 q 271 474 266 447 l 266 447 l 236 285 l 339 285 z m 449 -93 l 449 -93 q 449 -109 460 -121 q 471 -133 490 -133 l 490 -133 q 504 -133 513 -129 q 522 -126 529 -122 l 529 -122 l 529 -225 q 517 -230 498 -235 q 479 -240 454 -240 l 454 -240 q 390 -240 359 -210 q 327 -181 327 -129 l 327 -129 q 327 -106 335 -81 q 343 -57 363 -32 q 382 -7 416 17 l 416 17 l 499 0 q 468 -33 459 -52 q 449 -72 449 -93 z"},"Å":{"ha":574,"x_min":0,"x_max":574,"o":"m 574 0 l 392 0 l 365 139 l 211 139 l 184 0 l 0 0 l 174 714 l 398 714 l 574 0 z m 339 285 l 310 445 q 305 472 301 497 q 297 522 294 546 q 291 569 288 589 l 288 589 q 286 570 283 547 q 280 524 276 499 q 271 474 266 447 l 266 447 l 236 285 l 339 285 z m 288 633 l 288 633 q 232 633 198 668 q 164 703 164 756 l 164 756 q 164 810 198 845 q 232 880 288 880 l 288 880 q 343 880 378 845 q 412 809 412 757 l 412 757 q 412 705 378 669 q 344 633 288 633 z m 288 716 l 288 716 q 305 716 317 728 q 329 739 329 757 l 329 757 q 329 775 317 787 q 305 798 288 798 l 288 798 q 271 798 259 787 q 247 775 247 757 l 247 757 q 247 739 258 728 q 268 716 288 716 z"},"Ã":{"ha":574,"x_min":0,"x_max":574,"o":"m 574 0 l 392 0 l 365 139 l 211 139 l 184 0 l 0 0 l 174 714 l 398 714 l 574 0 z m 339 285 l 310 445 q 305 472 301 497 q 297 522 294 546 q 291 569 288 589 l 288 589 q 286 570 283 547 q 280 524 276 499 q 271 474 266 447 l 266 447 l 236 285 l 339 285 z m 199 765 l 115 765 q 115 788 118 817 q 121 845 130 872 q 138 898 156 915 q 174 932 204 932 l 204 932 q 225 932 244 925 q 263 918 281 909 q 298 899 315 892 q 332 885 349 885 l 349 885 q 362 885 368 898 q 374 910 378 933 l 378 933 l 462 933 q 462 851 436 809 q 409 766 371 766 l 371 766 q 352 766 332 773 q 311 780 292 790 q 273 799 257 806 q 240 813 228 813 l 228 813 q 220 813 211 803 q 201 792 199 765 l 199 765 z"},"Æ":{"ha":741,"x_min":-5,"x_max":701,"o":"m 701 146 l 701 0 l 359 0 l 359 139 l 220 139 l 181 0 l -5 0 l 216 714 l 701 714 l 701 570 l 526 570 l 526 441 l 687 441 l 687 297 l 526 297 l 526 146 l 701 146 z m 334 570 l 259 285 l 359 285 l 359 570 l 334 570 z"},"B":{"ha":558,"x_min":59,"x_max":516,"o":"m 59 714 l 266 714 q 387 714 446 671 q 504 628 504 536 l 504 536 q 504 497 493 465 q 481 432 460 410 q 439 388 411 379 l 411 379 l 411 374 q 448 363 471 341 q 494 318 505 286 q 516 253 516 209 l 516 209 q 516 145 488 98 q 460 51 409 26 q 357 0 286 0 l 286 0 l 59 0 l 59 714 z m 229 436 l 266 436 q 298 436 315 455 q 332 473 332 510 l 332 510 q 332 543 315 560 q 298 576 263 576 l 263 576 l 229 576 l 229 436 z m 271 303 l 229 303 l 229 141 l 273 141 q 308 141 325 162 q 342 182 342 223 l 342 223 q 342 249 334 267 q 326 284 310 294 q 294 303 271 303 l 271 303 z"},"C":{"ha":507,"x_min":39,"x_max":483,"o":"m 320 578 l 320 578 q 295 578 276 563 q 256 547 243 518 q 230 489 223 448 q 216 406 216 354 l 216 354 q 216 282 229 234 q 241 185 266 161 q 291 137 328 137 l 328 137 q 363 137 395 150 q 427 163 459 182 l 459 182 l 459 30 q 425 10 385 0 q 345 -10 301 -10 l 301 -10 q 216 -10 158 32 q 99 74 69 156 q 39 237 39 355 l 39 355 q 39 438 58 506 q 76 573 111 622 q 145 671 194 698 q 243 724 305 724 l 305 724 q 352 724 396 712 q 440 700 483 674 l 483 674 l 438 534 q 410 554 381 566 q 352 578 320 578 z"},"Ć":{"ha":507,"x_min":39,"x_max":483,"o":"m 320 578 l 320 578 q 295 578 276 563 q 256 547 243 518 q 230 489 223 448 q 216 406 216 354 l 216 354 q 216 282 229 234 q 241 185 266 161 q 291 137 328 137 l 328 137 q 363 137 395 150 q 427 163 459 182 l 459 182 l 459 30 q 425 10 385 0 q 345 -10 301 -10 l 301 -10 q 216 -10 158 32 q 99 74 69 156 q 39 237 39 355 l 39 355 q 39 438 58 506 q 76 573 111 622 q 145 671 194 698 q 243 724 305 724 l 305 724 q 352 724 396 712 q 440 700 483 674 l 483 674 l 438 534 q 410 554 381 566 q 352 578 320 578 z m 453 927 l 453 917 q 443 904 427 886 q 410 868 391 847 q 371 826 351 806 q 331 785 312 767 l 312 767 l 193 767 l 193 781 q 209 808 223 833 q 237 858 249 882 q 261 905 271 927 l 271 927 l 453 927 z"},"Č":{"ha":507,"x_min":39,"x_max":483,"o":"m 320 578 l 320 578 q 295 578 276 563 q 256 547 243 518 q 230 489 223 448 q 216 406 216 354 l 216 354 q 216 282 229 234 q 241 185 266 161 q 291 137 328 137 l 328 137 q 363 137 395 150 q 427 163 459 182 l 459 182 l 459 30 q 425 10 385 0 q 345 -10 301 -10 l 301 -10 q 216 -10 158 32 q 99 74 69 156 q 39 237 39 355 l 39 355 q 39 438 58 506 q 76 573 111 622 q 145 671 194 698 q 243 724 305 724 l 305 724 q 352 724 396 712 q 440 700 483 674 l 483 674 l 438 534 q 410 554 381 566 q 352 578 320 578 z m 367 767 l 220 767 q 212 785 194 813 q 176 841 157 869 q 137 897 124 913 l 124 913 l 124 927 l 225 927 q 240 914 257 896 q 274 878 293 854 l 293 854 q 313 879 331 897 q 348 915 363 927 l 363 927 l 462 927 l 462 913 q 448 894 430 867 q 412 840 395 814 q 378 787 367 767 l 367 767 z"},"Ç":{"ha":507,"x_min":39,"x_max":483,"o":"m 320 578 l 320 578 q 295 578 276 563 q 256 547 243 518 q 230 489 223 448 q 216 406 216 354 l 216 354 q 216 282 229 234 q 241 185 266 161 q 291 137 328 137 l 328 137 q 363 137 395 150 q 427 163 459 182 l 459 182 l 459 30 q 425 10 385 0 q 345 -10 301 -10 l 301 -10 q 216 -10 158 32 q 99 74 69 156 q 39 237 39 355 l 39 355 q 39 438 58 506 q 76 573 111 622 q 145 671 194 698 q 243 724 305 724 l 305 724 q 352 724 396 712 q 440 700 483 674 l 483 674 l 438 534 q 410 554 381 566 q 352 578 320 578 z m 390 -126 l 390 -126 q 390 -178 357 -209 q 324 -240 262 -240 l 262 -240 q 237 -240 216 -237 q 194 -235 175 -231 l 175 -231 l 175 -141 q 192 -145 206 -147 q 219 -149 230 -149 l 230 -149 q 248 -149 258 -142 q 267 -135 267 -121 l 267 -121 q 267 -104 250 -94 q 232 -84 201 -83 l 201 -83 l 235 0 l 311 0 l 297 -34 q 326 -38 347 -50 q 368 -62 379 -81 q 390 -101 390 -126 z"},"Ċ":{"ha":507,"x_min":39,"x_max":483,"o":"m 320 578 l 320 578 q 295 578 276 563 q 256 547 243 518 q 230 489 223 448 q 216 406 216 354 l 216 354 q 216 282 229 234 q 241 185 266 161 q 291 137 328 137 l 328 137 q 363 137 395 150 q 427 163 459 182 l 459 182 l 459 30 q 425 10 385 0 q 345 -10 301 -10 l 301 -10 q 216 -10 158 32 q 99 74 69 156 q 39 237 39 355 l 39 355 q 39 438 58 506 q 76 573 111 622 q 145 671 194 698 q 243 724 305 724 l 305 724 q 352 724 396 712 q 440 700 483 674 l 483 674 l 438 534 q 410 554 381 566 q 352 578 320 578 z m 293 937 l 293 937 q 338 937 359 916 q 379 894 379 852 l 379 852 q 379 810 358 789 q 336 768 293 768 l 293 768 q 250 768 229 789 q 207 810 207 852 l 207 852 q 207 895 228 916 q 248 937 293 937 z"},"D":{"ha":587,"x_min":59,"x_max":548,"o":"m 548 372 l 548 372 q 548 254 512 171 q 476 87 408 44 q 340 0 243 0 l 243 0 l 59 0 l 59 714 l 255 714 q 349 714 414 675 q 479 635 514 559 q 548 483 548 372 z m 372 365 l 372 365 q 372 438 359 482 q 345 526 319 547 q 292 567 252 567 l 252 567 l 229 567 l 229 148 l 242 148 q 310 148 341 201 q 372 253 372 365 z"},"Ð":{"ha":587,"x_min":0,"x_max":548,"o":"m 59 714 l 255 714 q 349 714 414 675 q 479 635 514 559 q 548 483 548 372 l 548 372 q 548 254 512 171 q 476 87 408 44 q 340 0 243 0 l 243 0 l 59 0 l 59 308 l 0 308 l 0 433 l 59 433 l 59 714 z m 252 567 l 252 567 l 229 567 l 229 433 l 297 433 l 297 308 l 229 308 l 229 148 l 242 148 q 310 148 341 201 q 372 253 372 365 l 372 365 q 372 438 359 482 q 345 526 319 547 q 292 567 252 567 z"},"Ď":{"ha":587,"x_min":59,"x_max":548,"o":"m 548 372 l 548 372 q 548 254 512 171 q 476 87 408 44 q 340 0 243 0 l 243 0 l 59 0 l 59 714 l 255 714 q 349 714 414 675 q 479 635 514 559 q 548 483 548 372 z m 372 365 l 372 365 q 372 438 359 482 q 345 526 319 547 q 292 567 252 567 l 252 567 l 229 567 l 229 148 l 242 148 q 310 148 341 201 q 372 253 372 365 z m 364 767 l 217 767 q 209 785 191 813 q 173 841 154 869 q 134 897 121 913 l 121 913 l 121 927 l 222 927 q 237 914 254 896 q 271 878 290 854 l 290 854 q 310 879 328 897 q 345 915 360 927 l 360 927 l 459 927 l 459 913 q 445 894 427 867 q 409 840 392 814 q 375 787 364 767 l 364 767 z"},"Đ":{"ha":587,"x_min":0,"x_max":548,"o":"m 59 714 l 255 714 q 349 714 414 675 q 479 635 514 559 q 548 483 548 372 l 548 372 q 548 254 512 171 q 476 87 408 44 q 340 0 243 0 l 243 0 l 59 0 l 59 308 l 0 308 l 0 433 l 59 433 l 59 714 z m 252 567 l 252 567 l 229 567 l 229 433 l 297 433 l 297 308 l 229 308 l 229 148 l 242 148 q 310 148 341 201 q 372 253 372 365 l 372 365 q 372 438 359 482 q 345 526 319 547 q 292 567 252 567 z"},"E":{"ha":443,"x_min":59,"x_max":403,"o":"m 403 146 l 403 0 l 59 0 l 59 714 l 403 714 l 403 570 l 229 570 l 229 441 l 390 441 l 390 297 l 229 297 l 229 146 l 403 146 z"},"É":{"ha":443,"x_min":59,"x_max":403,"o":"m 403 146 l 403 0 l 59 0 l 59 714 l 403 714 l 403 570 l 229 570 l 229 441 l 390 441 l 390 297 l 229 297 l 229 146 l 403 146 z m 389 927 l 389 917 q 379 904 363 886 q 346 868 327 847 q 307 826 287 806 q 267 785 248 767 l 248 767 l 129 767 l 129 781 q 145 808 159 833 q 173 858 185 882 q 197 905 207 927 l 207 927 l 389 927 z"},"Ě":{"ha":443,"x_min":59,"x_max":403,"o":"m 403 146 l 403 0 l 59 0 l 59 714 l 403 714 l 403 570 l 229 570 l 229 441 l 390 441 l 390 297 l 229 297 l 229 146 l 403 146 z m 303 767 l 156 767 q 148 785 130 813 q 112 841 93 869 q 73 897 60 913 l 60 913 l 60 927 l 161 927 q 176 914 193 896 q 210 878 229 854 l 229 854 q 249 879 267 897 q 284 915 299 927 l 299 927 l 398 927 l 398 913 q 384 894 366 867 q 348 840 331 814 q 314 787 303 767 l 303 767 z"},"Ê":{"ha":443,"x_min":59,"x_max":403,"o":"m 403 146 l 403 0 l 59 0 l 59 714 l 403 714 l 403 570 l 229 570 l 229 441 l 390 441 l 390 297 l 229 297 l 229 146 l 403 146 z m 156 927 l 303 927 q 315 905 329 882 q 343 858 361 833 q 378 808 398 781 l 398 781 l 398 767 l 299 767 q 284 779 267 797 q 249 815 229 840 l 229 840 q 208 815 191 797 q 174 778 161 767 l 161 767 l 60 767 l 60 781 q 74 798 93 826 q 112 854 130 882 q 148 910 156 927 l 156 927 z"},"Ë":{"ha":443,"x_min":59,"x_max":403,"o":"m 403 146 l 403 0 l 59 0 l 59 714 l 403 714 l 403 570 l 229 570 l 229 441 l 390 441 l 390 297 l 229 297 l 229 146 l 403 146 z m 60 851 l 60 851 q 60 888 80 908 q 99 928 131 928 l 131 928 q 165 928 185 907 q 204 886 204 851 l 204 851 q 204 817 185 796 q 165 775 131 775 l 131 775 q 99 775 80 795 q 60 815 60 851 z m 253 851 l 253 851 q 253 888 273 908 q 292 928 325 928 l 325 928 q 360 928 379 907 q 398 886 398 851 l 398 851 q 398 817 379 796 q 360 775 325 775 l 325 775 q 291 775 272 796 q 253 816 253 851 z"},"Ė":{"ha":443,"x_min":59,"x_max":403,"o":"m 403 146 l 403 0 l 59 0 l 59 714 l 403 714 l 403 570 l 229 570 l 229 441 l 390 441 l 390 297 l 229 297 l 229 146 l 403 146 z m 229 937 l 229 937 q 274 937 295 916 q 315 894 315 852 l 315 852 q 315 810 294 789 q 272 768 229 768 l 229 768 q 186 768 165 789 q 143 810 143 852 l 143 852 q 143 895 164 916 q 184 937 229 937 z"},"È":{"ha":443,"x_min":59,"x_max":403,"o":"m 403 146 l 403 0 l 59 0 l 59 714 l 403 714 l 403 570 l 229 570 l 229 441 l 390 441 l 390 297 l 229 297 l 229 146 l 403 146 z m 79 927 l 261 927 q 270 908 285 879 q 300 849 315 822 q 330 795 339 781 l 339 781 l 339 767 l 220 767 q 208 778 189 798 q 169 818 148 841 q 126 864 108 885 q 89 905 79 917 l 79 917 l 79 927 z"},"Ē":{"ha":443,"x_min":59,"x_max":403,"o":"m 403 146 l 403 0 l 59 0 l 59 714 l 403 714 l 403 570 l 229 570 l 229 441 l 390 441 l 390 297 l 229 297 l 229 146 l 403 146 z m 81 897 l 378 897 l 378 782 l 81 782 l 81 897 z"},"Ę":{"ha":443,"x_min":59,"x_max":410,"o":"m 403 146 l 403 0 l 59 0 l 59 714 l 403 714 l 403 570 l 229 570 l 229 441 l 390 441 l 390 297 l 229 297 l 229 146 l 403 146 z m 330 -93 l 330 -93 q 330 -109 341 -121 q 352 -133 371 -133 l 371 -133 q 385 -133 394 -129 q 403 -126 410 -122 l 410 -122 l 410 -225 q 398 -230 379 -235 q 360 -240 335 -240 l 335 -240 q 271 -240 240 -210 q 208 -181 208 -129 l 208 -129 q 208 -106 216 -81 q 224 -57 244 -32 q 263 -7 297 17 l 297 17 l 380 0 q 349 -33 340 -52 q 330 -72 330 -93 z"},"F":{"ha":436,"x_min":59,"x_max":401,"o":"m 229 273 l 229 0 l 59 0 l 59 714 l 401 714 l 401 570 l 229 570 l 229 417 l 388 417 l 388 273 l 229 273 z"},"G":{"ha":593,"x_min":39,"x_max":544,"o":"m 295 276 l 295 418 l 544 418 l 544 33 q 489 11 432 1 q 374 -10 314 -10 l 314 -10 q 226 -10 165 33 q 103 76 71 159 q 39 241 39 359 l 39 359 q 39 474 76 556 q 112 637 181 681 q 250 724 347 724 l 347 724 q 403 724 451 712 q 498 699 533 679 l 533 679 l 486 540 q 457 559 424 569 q 390 578 353 578 l 353 578 q 308 578 278 552 q 247 526 232 476 q 216 426 216 354 l 216 354 q 216 284 228 236 q 240 187 265 162 q 289 137 324 137 l 324 137 q 338 137 351 139 q 364 141 377 145 l 377 145 l 377 276 l 295 276 z"},"Ğ":{"ha":593,"x_min":39,"x_max":544,"o":"m 295 276 l 295 418 l 544 418 l 544 33 q 489 11 432 1 q 374 -10 314 -10 l 314 -10 q 226 -10 165 33 q 103 76 71 159 q 39 241 39 359 l 39 359 q 39 474 76 556 q 112 637 181 681 q 250 724 347 724 l 347 724 q 403 724 451 712 q 498 699 533 679 l 533 679 l 486 540 q 457 559 424 569 q 390 578 353 578 l 353 578 q 308 578 278 552 q 247 526 232 476 q 216 426 216 354 l 216 354 q 216 284 228 236 q 240 187 265 162 q 289 137 324 137 l 324 137 q 338 137 351 139 q 364 141 377 145 l 377 145 l 377 276 l 295 276 z m 393 948 l 488 948 q 488 893 467 852 q 445 811 409 789 q 373 767 328 767 l 328 767 q 259 767 215 813 q 170 859 170 948 l 170 948 l 265 948 q 267 924 274 909 q 281 894 295 887 q 308 879 328 879 l 328 879 q 348 879 362 886 q 376 892 384 908 q 392 923 393 948 l 393 948 z"}}}
